VelekaWorld-RegularItalic.ufo
<glyph name="exclam" format="2">
  <advance width="337"/>
  <unicode hex="0021"/>
  <outline>
    <contour>
      <point x="297" y="632" type="curve"/>
      <point x="297" y="632"/>
      <point x="197" y="240"/>
      <point x="179" y="169" type="curve"/>
      <point x="116" y="169" type="line"/>
      <point x="167" y="601" type="line"/>
      <point x="174" y="652"/>
      <point x="192" y="683" name="n07"/>
      <point x="247" y="683" type="curve" smooth="yes"/>
      <point x="281" y="683"/>
      <point x="297" y="666"/>
    </contour>
    <contour>
      <point x="196" y="49" type="curve" smooth="yes" name="n11"/>
      <point x="196" y="17"/>
      <point x="170" y="-9"/>
      <point x="130" y="-9" type="curve" smooth="yes" name="n14"/>
      <point x="101" y="-9"/>
      <point x="66" y="11"/>
      <point x="66" y="49" type="curve" smooth="yes" name="n17"/>
      <point x="66" y="84"/>
      <point x="94" y="109"/>
      <point x="130" y="109" type="curve" smooth="yes" name="n20"/>
      <point x="165" y="109"/>
      <point x="196" y="85"/>
    </contour>
  </outline>
</glyph>
<glyph name="dollar" format="2">
  <advance width="556"/>
  <unicode hex="0024"/>
  <outline>
    <contour>
      <point x="521" y="642" type="curve"/>
      <point x="489" y="493" type="line"/>
      <point x="430" y="493" type="line"/>
      <point x="435" y="591" type="line"/>
      <point x="435" y="595"/>
      <point x="428" y="604"/>
      <point x="424" y="606" type="curve"/>
      <point x="421" y="608"/>
      <point x="396" y="620"/>
      <point x="364" y="623" type="curve"/>
      <point x="317" y="375" type="line"/>
      <point x="406" y="346"/>
      <point x="477" y="293"/>
      <point x="477" y="208" type="curve" smooth="yes" name="n13"/>
      <point x="477" y="53"/>
      <point x="312" y="6"/>
      <point x="245" y="1" type="curve"/>
      <point x="226" y="-102" type="line" name="n17"/>
      <point x="167" y="-102" type="line"/>
      <point x="186" y="0" type="line" name="n19"/>
      <point x="115" y="4"/>
      <point x="67" y="18"/>
      <point x="14" y="44" type="curve"/>
      <point x="46" y="201" type="line"/>
      <point x="113" y="201" type="line"/>
      <point x="104" y="86" type="line"/>
      <point x="104" y="81"/>
      <point x="108" y="78"/>
      <point x="111" y="77" type="curve"/>
      <point x="116" y="75"/>
      <point x="156" y="54"/>
      <point x="197" y="51" type="curve" name="n31"/>
      <point x="246" y="306" type="line"/>
      <point x="162" y="342"/>
      <point x="100" y="393"/>
      <point x="100" y="471" type="curve" smooth="yes" name="n35"/>
      <point x="100" y="585"/>
      <point x="202" y="657"/>
      <point x="316" y="668" type="curve"/>
      <point x="330" y="743" type="line" name="n39"/>
      <point x="387" y="743" type="line"/>
      <point x="375" y="671" type="line"/>
      <point x="440" y="669"/>
      <point x="505" y="647"/>
    </contour>
    <contour>
      <point x="306" y="619" type="line"/>
      <point x="242" y="600"/>
      <point x="200" y="557"/>
      <point x="200" y="498" type="curve" smooth="yes" name="n47"/>
      <point x="200" y="453"/>
      <point x="223" y="423"/>
      <point x="264" y="402" type="curve"/>
    </contour>
    <contour>
      <point x="372" y="181" type="curve" smooth="yes" name="n51"/>
      <point x="372" y="224"/>
      <point x="350" y="258"/>
      <point x="301" y="281" type="curve"/>
      <point x="257" y="55" type="line"/>
      <point x="331" y="73"/>
      <point x="372" y="119"/>
    </contour>
  </outline>
</glyph>
<glyph name="parenleft" format="2">
  <advance width="418"/>
  <unicode hex="0028"/>
  <outline>
    <contour>
      <point x="467" y="718" type="curve"/>
      <point x="458" y="672" type="line"/>
      <point x="237" y="642"/>
      <point x="169" y="272"/>
      <point x="169" y="120" type="curve" smooth="yes" name="n04"/>
      <point x="169" y="-28"/>
      <point x="232" y="-80"/>
      <point x="311" y="-97" type="curve"/>
      <point x="302" y="-143" type="line"/>
      <point x="167" y="-135"/>
      <point x="71" y="-24"/>
      <point x="71" y="139" type="curve" smooth="yes" name="n11"/>
      <point x="71" y="378"/>
      <point x="198" y="694"/>
    </contour>
  </outline>
</glyph>
<glyph name="parenright" format="2">
  <advance width="417"/>
  <unicode hex="0029"/>
  <outline>
    <contour>
      <point x="347" y="444" type="curve" smooth="yes" name="n00"/>
      <point x="347" y="113"/>
      <point x="175" y="-117"/>
      <point x="-48" y="-144" type="curve"/>
      <point x="-39" y="-96" type="line"/>
      <point x="193" y="-65"/>
      <point x="249" y="332"/>
      <point x="249" y="460" type="curve" smooth="yes" name="n07"/>
      <point x="249" y="520"/>
      <point x="232" y="652"/>
      <point x="108" y="672" type="curve"/>
      <point x="117" y="718" type="line"/>
      <point x="331" y="694"/>
      <point x="347" y="497"/>
    </contour>
  </outline>
</glyph>
<glyph name="six" format="2">
  <advance width="556"/>
  <unicode hex="0036"/>
  <outline>
    <contour>
      <point x="519" y="271" type="curve" smooth="yes" name="n00"/>
      <point x="519" y="116"/>
      <point x="398" y="-16"/>
      <point x="246" y="-16" type="curve" smooth="yes" name="n03"/>
      <point x="152" y="-16"/>
      <point x="34" y="30"/>
      <point x="34" y="215" type="curve" smooth="yes" name="n06"/>
      <point x="34" y="459"/>
      <point x="217" y="686"/>
      <point x="506" y="717" type="curve"/>
      <point x="507" y="662" type="line"/>
      <point x="334" y="643"/>
      <point x="212" y="534"/>
      <point x="175" y="401" type="curve"/>
      <point x="223" y="433"/>
      <point x="276" y="452"/>
      <point x="336" y="452" type="curve" smooth="yes" name="n16"/>
      <point x="443" y="452"/>
      <point x="519" y="384"/>
    </contour>
    <contour>
      <point x="413" y="245" type="curve" smooth="yes" name="n19"/>
      <point x="413" y="332"/>
      <point x="376" y="388"/>
      <point x="293" y="388" type="curve" smooth="yes" name="n22"/>
      <point x="253" y="388"/>
      <point x="213" y="376"/>
      <point x="160" y="336" type="curve"/>
      <point x="157" y="323"/>
      <point x="140" y="252"/>
      <point x="140" y="204" type="curve" smooth="yes" name="n28"/>
      <point x="140" y="136"/>
      <point x="159" y="34"/>
      <point x="251" y="34" type="curve" smooth="yes" name="n31"/>
      <point x="335" y="34"/>
      <point x="413" y="133"/>
    </contour>
  </outline>
</glyph>
<glyph name="at" format="2">
  <advance width="936"/>
  <unicode hex="0040"/>
  <outline>
    <contour>
      <point x="874" y="373" type="curve" smooth="yes" name="n00"/>
      <point x="874" y="170"/>
      <point x="729" y="56"/>
      <point x="629" y="56" type="curve" smooth="yes" name="n03"/>
      <point x="574" y="56"/>
      <point x="551" y="84"/>
      <point x="551" y="139" type="curve"/>
      <point x="499" y="87"/>
      <point x="454" y="57"/>
      <point x="407" y="57" type="curve" smooth="yes"/>
      <point x="334" y="57"/>
      <point x="282" y="120"/>
      <point x="282" y="220" type="curve" smooth="yes" name="n12"/>
      <point x="282" y="373"/>
      <point x="404" y="492"/>
      <point x="530" y="492" type="curve" smooth="yes" name="n15"/>
      <point x="559" y="492"/>
      <point x="599" y="481"/>
      <point x="628" y="465" type="curve"/>
      <point x="646" y="488" type="line"/>
      <point x="703" y="488" type="line"/>
      <point x="698" y="472"/>
      <point x="634" y="191"/>
      <point x="634" y="191" type="curve"/>
      <point x="624" y="145"/>
      <point x="633" y="113"/>
      <point x="671" y="113" type="curve" smooth="yes" name="n26"/>
      <point x="730" y="113"/>
      <point x="825" y="213"/>
      <point x="825" y="372" type="curve" smooth="yes" name="n29"/>
      <point x="825" y="560"/>
      <point x="685" y="647"/>
      <point x="544" y="647" type="curve" smooth="yes" name="n32"/>
      <point x="316" y="647"/>
      <point x="154" y="480"/>
      <point x="154" y="257" type="curve" smooth="yes" name="n35"/>
      <point x="154" y="53"/>
      <point x="283" y="-103"/>
      <point x="504" y="-103" type="curve" smooth="yes" name="n38"/>
      <point x="621" y="-103"/>
      <point x="708" y="-63"/>
      <point x="769" y="-29" type="curve"/>
      <point x="783" y="-65" type="line"/>
      <point x="693" y="-113"/>
      <point x="596" y="-153"/>
      <point x="480" y="-153" type="curve" smooth="yes" name="n45"/>
      <point x="266" y="-153"/>
      <point x="83" y="-4"/>
      <point x="83" y="239" type="curve" smooth="yes" name="n48"/>
      <point x="83" y="535"/>
      <point x="309" y="691"/>
      <point x="532" y="691" type="curve" smooth="yes" name="n51"/>
      <point x="730" y="691"/>
      <point x="874" y="579"/>
    </contour>
    <contour>
      <point x="594" y="393" type="line"/>
      <point x="598" y="410"/>
      <point x="571" y="450"/>
      <point x="535" y="450" type="curve" smooth="yes" name="n57"/>
      <point x="436" y="450"/>
      <point x="374" y="351"/>
      <point x="374" y="229" type="curve" smooth="yes" name="n60"/>
      <point x="374" y="157"/>
      <point x="402" y="121"/>
      <point x="452" y="121" type="curve" smooth="yes" name="n63"/>
      <point x="497" y="121"/>
      <point x="533" y="160"/>
      <point x="554" y="186" type="curve"/>
    </contour>
  </outline>
</glyph>
<glyph name="O" format="2">
  <advance width="709"/>
  <unicode hex="004F"/>
  <anchor x="410" y="760" name="top"/>
  <outline>
    <contour>
      <point x="691" y="417" type="curve" smooth="yes" name="n00"/>
      <point x="691" y="175.151"/>
      <point x="528.89" y="-16"/>
      <point x="319.162" y="-16" type="curve" smooth="yes" name="n03"/>
      <point x="157.338" y="-16"/>
      <point x="48" y="97.8023"/>
      <point x="48" y="275.158" type="curve" smooth="yes" name="n06"/>
      <point x="48" y="496.6"/>
      <point x="218.453" y="687"/>
      <point x="421.511" y="687" type="curve" smooth="yes" name="n09"/>
      <point x="577.861" y="687"/>
      <point x="691" y="574.121"/>
    </contour>
    <contour>
      <point x="577" y="407.236" type="curve" smooth="yes" name="n12"/>
      <point x="577" y="546.365"/>
      <point x="509.861" y="637"/>
      <point x="415.559" y="637" type="curve" smooth="yes" name="n15"/>
      <point x="282.237" y="637"/>
      <point x="162" y="455.84"/>
      <point x="162" y="267.522" type="curve" smooth="yes" name="n18"/>
      <point x="162" y="127.024"/>
      <point x="228.925" y="36"/>
      <point x="322.446" y="36" type="curve" smooth="yes" name="n21"/>
      <point x="455.415" y="36"/>
      <point x="577" y="220.009"/>
    </contour>
  </outline>
</glyph>
<glyph name="T" format="2">
  <advance width="585"/>
  <unicode hex="0054"/>
  <outline>
    <contour>
      <point x="649" y="671" type="line"/>
      <point x="618" y="518" type="line"/>
      <point x="555" y="518" type="line"/>
      <point x="559" y="606" type="line" smooth="yes"/>
      <point x="560" y="620"/>
      <point x="554" y="626" name="hr01"/>
      <point x="540" y="626" type="curve" smooth="yes"/>
      <point x="411" y="626" type="line"/>
      <point x="307" y="66" type="line" smooth="yes"/>
      <point x="305" y="56"/>
      <point x="309" y="48"/>
      <point x="327" y="47" type="curve"/>
      <point x="327" y="47"/>
      <point x="370.702" y="43.1665"/>
      <point x="384" y="42" type="curve"/>
      <point x="384" y="0" type="line" name="n15"/>
      <point x="124" y="0" type="line"/>
      <point x="124" y="42" type="line"/>
      <point x="137.713" y="43.1822"/>
      <point x="182" y="47"/>
      <point x="182" y="47" type="curve"/>
      <point x="194" y="48"/>
      <point x="204" y="54"/>
      <point x="206" y="66" type="curve" smooth="yes"/>
      <point x="310" y="626" type="line"/>
      <point x="185" y="626" type="line" smooth="yes" name="n25"/>
      <point x="173" y="626"/>
      <point x="164" y="619"/>
      <point x="160" y="606" type="curve"/>
      <point x="129" y="518" type="line" name="hr02"/>
      <point x="66" y="518" type="line" name="n30"/>
      <point x="95" y="671" type="line" name="n31"/>
    </contour>
  </outline>
</glyph>
<glyph name="underscore" format="2">
  <advance width="303"/>
  <unicode hex="005F"/>
  <outline>
    <contour>
      <point x="238" y="-88" type="line" name="n00"/>
      <point x="226" y="-154" type="line" name="n01"/>
      <point x="-78" y="-154" type="line"/>
      <point x="-64" y="-88" type="line"/>
    </contour>
  </outline>
</glyph>
<glyph name="a" format="2">
  <advance width="520"/>
  <unicode hex="0061"/>
  <anchor x="350" y="570" name="top"/>
  <outline>
    <contour>
      <point x="518" y="27" type="line"/>
      <point x="502" y="20"/>
      <point x="427" y="-12"/>
      <point x="380.377" y="-12" type="curve" smooth="yes"/>
      <point x="340" y="-12"/>
      <point x="323" y="12"/>
      <point x="319" y="56" type="curve"/>
      <point x="289" y="28"/>
      <point x="237" y="-12"/>
      <point x="169.462" y="-12" type="curve" smooth="yes" name="n09"/>
      <point x="59" y="-12"/>
      <point x="32" y="95"/>
      <point x="32" y="172.366" type="curve" smooth="yes" name="n12"/>
      <point x="32" y="322"/>
      <point x="133" y="494"/>
      <point x="320" y="494" type="curve" smooth="yes" name="n15"/>
      <point x="357" y="494"/>
      <point x="392" y="476"/>
      <point x="410" y="458" type="curve"/>
      <point x="425" y="482" type="line"/>
      <point x="493" y="482" type="line"/>
      <point x="485.406" y="465.015"/>
      <point x="479.321" y="450.239"/>
      <point x="474" y="425" type="curve" smooth="yes"/>
      <point x="404" y="93" type="line"/>
      <point x="404" y="58"/>
      <point x="425" y="47"/>
      <point x="445.054" y="47" type="curve" smooth="yes"/>
      <point x="466" y="47"/>
      <point x="507.575" y="59"/>
      <point x="518" y="63" type="curve"/>
    </contour>
    <contour>
      <point x="371" y="392" type="line"/>
      <point x="372" y="399"/>
      <point x="346" y="446"/>
      <point x="334" y="446" type="curve" smooth="yes" name="n34"/>
      <point x="181" y="446"/>
      <point x="131" y="283"/>
      <point x="131" y="175.746" type="curve" smooth="yes" name="n37"/>
      <point x="131" y="117"/>
      <point x="146" y="54"/>
      <point x="204.776" y="54" type="curve" smooth="yes" name="n40"/>
      <point x="255" y="54"/>
      <point x="299.575" y="100"/>
      <point x="314" y="116" type="curve"/>
    </contour>
  </outline>
</glyph>
<glyph name="b" format="2">
  <advance width="492"/>
  <unicode hex="0062"/>
  <outline>
    <contour>
      <point x="460" y="305.592" type="curve" smooth="yes" name="n00"/>
      <point x="460" y="132.316"/>
      <point x="334.207" y="-12"/>
      <point x="174.958" y="-12" type="curve" smooth="yes" name="n03"/>
      <point x="121.557" y="-12"/>
      <point x="64.6425" y="4.22821"/>
      <point x="18" y="34" type="curve"/>
      <point x="136" y="668" type="line"/>
      <point x="47" y="677" type="line"/>
      <point x="47" y="707" type="line"/>
      <point x="203" y="737" type="line" name="n10"/>
      <point x="242" y="737" type="line"/>
      <point x="185" y="434" type="line"/>
      <point x="225.454" y="471.083"/>
      <point x="279.104" y="494"/>
      <point x="324.237" y="494" type="curve" smooth="yes" name="n15"/>
      <point x="405.576" y="494"/>
      <point x="460" y="419.566"/>
    </contour>
    <contour>
      <point x="361" y="291.995" type="curve" smooth="yes" name="n18"/>
      <point x="361" y="373.076"/>
      <point x="327.135" y="428"/>
      <point x="283.938" y="428" type="curve" smooth="yes" name="n21"/>
      <point x="255.877" y="428"/>
      <point x="206.618" y="404.821"/>
      <point x="174" y="377" type="curve"/>
      <point x="118" y="74" type="line"/>
      <point x="133.022" y="52.0443"/>
      <point x="168.052" y="35"/>
      <point x="198.154" y="35" type="curve" smooth="yes" name="n28"/>
      <point x="280.192" y="35"/>
      <point x="361" y="166.748"/>
    </contour>
  </outline>
</glyph>
<glyph name="f" format="2">
  <advance width="321"/>
  <unicode hex="0066"/>
  <outline>
    <contour>
      <point x="441" y="671.05" type="curve" smooth="yes"/>
      <point x="441" y="643"/>
      <point x="415" y="626"/>
      <point x="378" y="621" type="curve"/>
      <point x="300" y="684" type="line"/>
      <point x="258" y="649"/>
      <point x="230" y="508"/>
      <point x="223" y="457" type="curve"/>
      <point x="345" y="457" type="line" name="n08"/>
      <point x="345" y="407" type="line" name="n09"/>
      <point x="214" y="407" type="line"/>
      <point x="208" y="362"/>
      <point x="172" y="96"/>
      <point x="153.79" y="20.7325" type="curve" smooth="yes"/>
      <point x="127" y="-90"/>
      <point x="32" y="-229" name="n15"/>
      <point x="-65.6282" y="-229" type="curve" smooth="yes"/>
      <point x="-118" y="-229"/>
      <point x="-130" y="-189"/>
      <point x="-130" y="-171.119" type="curve" smooth="yes"/>
      <point x="-130" y="-154"/>
      <point x="-119" y="-142"/>
      <point x="-104" y="-131" type="curve"/>
      <point x="-2" y="-157" type="line"/>
      <point x="33" y="-114"/>
      <point x="56" y="-31"/>
      <point x="72.1923" y="60.7562" type="curve" smooth="yes"/>
      <point x="89" y="156"/>
      <point x="105" y="275"/>
      <point x="121" y="406" type="curve"/>
      <point x="44.5" y="398" type="line"/>
      <point x="44.5" y="437" type="line"/>
      <point x="132" y="466" type="line"/>
      <point x="152" y="572"/>
      <point x="212" y="737" name="n34"/>
      <point x="349" y="737" type="curve" smooth="yes"/>
      <point x="417" y="737"/>
      <point x="441" y="698"/>
    </contour>
  </outline>
</glyph>
<glyph name="i" format="2">
  <advance width="266"/>
  <unicode hex="0069"/>
  <outline>
    <contour>
      <point x="259" y="641" type="curve" smooth="yes" name="n00"/>
      <point x="259" y="608.314"/>
      <point x="232.868" y="585"/>
      <point x="196.23" y="585" type="curve" smooth="yes" name="n03"/>
      <point x="160.745" y="585"/>
      <point x="136" y="606.714"/>
      <point x="136" y="637.852" type="curve" smooth="yes" name="n06"/>
      <point x="136" y="671.203"/>
      <point x="163.477" y="697"/>
      <point x="199" y="697" type="curve" smooth="yes" name="n09"/>
      <point x="233" y="697"/>
      <point x="259" y="672.733"/>
    </contour>
    <contour>
      <point x="263" y="29" type="line"/>
      <point x="213.946" y="6.10811"/>
      <point x="149.463" y="-12" name="n14"/>
      <point x="113.406" y="-12" type="curve" smooth="yes"/>
      <point x="70.8559" y="-12"/>
      <point x="45.1913" y="13.2175"/>
      <point x="45.1913" y="58.5577" type="curve" smooth="yes"/>
      <point x="45.1913" y="67.2307"/>
      <point x="46.2016" y="76.4739"/>
      <point x="48" y="86" type="curve" smooth="yes"/>
      <point x="112" y="425" type="line"/>
      <point x="26" y="434" type="line"/>
      <point x="26" y="463" type="line"/>
      <point x="177" y="494" type="line" name="n25"/>
      <point x="218" y="494" type="line"/>
      <point x="142" y="94" type="line" smooth="yes"/>
      <point x="141.406" y="90.8739"/>
      <point x="141.129" y="87.7424"/>
      <point x="141.129" y="84.649" type="curve" smooth="yes"/>
      <point x="141.129" y="60.7258"/>
      <point x="158.098" y="43"/>
      <point x="179.216" y="43" type="curve" smooth="yes"/>
      <point x="196.037" y="43"/>
      <point x="234.465" y="54.2472"/>
      <point x="263" y="67" type="curve"/>
    </contour>
  </outline>
</glyph>
<glyph name="j" format="2">
  <advance width="272"/>
  <unicode hex="006A"/>
  <outline>
    <contour>
      <point x="266" y="641" type="curve" smooth="yes" name="n00"/>
      <point x="266" y="617"/>
      <point x="241" y="585"/>
      <point x="204" y="585" type="curve" smooth="yes" name="n03"/>
      <point x="168" y="585"/>
      <point x="142" y="609"/>
      <point x="142" y="641" type="curve" smooth="yes" name="n06"/>
      <point x="142" y="671"/>
      <point x="162" y="698"/>
      <point x="204" y="698" type="curve" smooth="yes" name="n09"/>
      <point x="244" y="698"/>
      <point x="266" y="671"/>
    </contour>
    <contour>
      <point x="231" y="494" type="line" name="n12"/>
      <point x="160" y="80" type="line" smooth="yes"/>
      <point x="142.855" y="-19.9752"/>
      <point x="72" y="-229" name="n15"/>
      <point x="-62" y="-229" type="curve" smooth="yes"/>
      <point x="-104" y="-229"/>
      <point x="-129" y="-206"/>
      <point x="-129" y="-176" type="curve" smooth="yes"/>
      <point x="-129" y="-151"/>
      <point x="-111" y="-137"/>
      <point x="-101" y="-131" type="curve"/>
      <point x="-1" y="-158" type="line"/>
      <point x="18" y="-137"/>
      <point x="42" y="-67"/>
      <point x="52" y="-12" type="curve" smooth="yes"/>
      <point x="127" y="425" type="line"/>
      <point x="43" y="434" type="line"/>
      <point x="43" y="463" type="line"/>
      <point x="194" y="494" type="line"/>
    </contour>
  </outline>
</glyph>
<glyph name="q" format="2">
  <advance width="521"/>
  <unicode hex="0071"/>
  <outline>
    <contour>
      <point x="491" y="494" type="line"/>
      <point x="363" y="-155" type="line"/>
      <point x="362.529" y="-168.589"/>
      <point x="367.707" y="-173.767"/>
      <point x="383" y="-175" type="curve" smooth="yes"/>
      <point x="445" y="-180" type="line"/>
      <point x="445" y="-218" type="line" name="n06"/>
      <point x="193" y="-218" type="line"/>
      <point x="193" y="-180" type="line"/>
      <point x="246" y="-175" type="line" smooth="yes"/>
      <point x="260.103" y="-173.669"/>
      <point x="268.61" y="-167.125"/>
      <point x="271" y="-155" type="curve" smooth="yes"/>
      <point x="312" y="53" type="line"/>
      <point x="259.266" y="9.43739"/>
      <point x="211.283" y="-12"/>
      <point x="166.51" y="-12" type="curve" smooth="yes" name="n16"/>
      <point x="84.7384" y="-12"/>
      <point x="32" y="56.8711"/>
      <point x="32" y="167.531" type="curve" smooth="yes" name="n19"/>
      <point x="32" y="340.089"/>
      <point x="160.239" y="494"/>
      <point x="307.244" y="494" type="curve" smooth="yes" name="n22"/>
      <point x="346.201" y="494"/>
      <point x="383.748" y="483.085"/>
      <point x="407" y="465" type="curve"/>
      <point x="431" y="494" type="line"/>
    </contour>
    <contour>
      <point x="377" y="388" type="line"/>
      <point x="377.147" y="405.211"/>
      <point x="340.776" y="448"/>
      <point x="326" y="448" type="curve" smooth="yes" name="n30"/>
      <point x="215.624" y="448"/>
      <point x="129" y="327.079"/>
      <point x="129" y="173" type="curve" smooth="yes" name="n33"/>
      <point x="129" y="96.7284"/>
      <point x="160.177" y="49"/>
      <point x="210" y="49" type="curve" smooth="yes" name="n36"/>
      <point x="251" y="49"/>
      <point x="288" y="82"/>
      <point x="323" y="113" type="curve"/>
    </contour>
  </outline>
</glyph>
<glyph name="t" format="2">
  <advance width="299"/>
  <unicode hex="0074"/>
  <outline>
    <contour>
      <point x="349" y="419" type="line" name="n00"/>
      <point x="202" y="419" type="line" name="n01"/>
      <point x="139" y="105" type="line" smooth="yes"/>
      <point x="131.979" y="70.0043"/>
      <point x="163" y="49"/>
      <point x="197" y="49" type="curve" smooth="yes" name="n05"/>
      <point x="235" y="49"/>
      <point x="280" y="66"/>
      <point x="301" y="73" type="curve"/>
      <point x="301" y="33" type="line"/>
      <point x="284" y="26"/>
      <point x="196" y="-12"/>
      <point x="138" y="-12" type="curve" smooth="yes" name="n12"/>
      <point x="66" y="-12"/>
      <point x="44" y="25"/>
      <point x="44" y="74" type="curve" smooth="yes"/>
      <point x="44" y="87"/>
      <point x="45" y="101"/>
      <point x="48" y="115" type="curve" smooth="yes"/>
      <point x="109" y="419" type="line"/>
      <point x="46" y="413" type="line"/>
      <point x="46" y="446" type="line"/>
      <point x="121" y="479" type="line"/>
      <point x="170" y="579" type="line" name="hr01"/>
      <point x="231" y="579" type="line" name="n24"/>
      <point x="211" y="465" type="line" name="hr02"/>
      <point x="349" y="465" type="line" name="n26"/>
    </contour>
  </outline>
</glyph>
<glyph name="exclamdown" format="2">
  <advance width="337"/>
  <unicode hex="00A1"/>
  <outline>
    <contour>
      <point x="268" y="438" type="curve" smooth="yes" name="n00"/>
      <point x="268" y="403"/>
      <point x="241" y="376"/>
      <point x="204" y="376" type="curve" smooth="yes" name="n03"/>
      <point x="168" y="376"/>
      <point x="138" y="402"/>
      <point x="138" y="434" type="curve" smooth="yes" name="n06"/>
      <point x="138" y="468"/>
      <point x="165" y="494"/>
      <point x="204" y="494" type="curve" smooth="yes" name="n09"/>
      <point x="233" y="494"/>
      <point x="268" y="475"/>
    </contour>
    <contour>
      <point x="219" y="316" type="line"/>
      <point x="167" y="-120" type="line" smooth="yes"/>
      <point x="160" y="-176"/>
      <point x="130" y="-198" name="n15"/>
      <point x="89" y="-198" type="curve" smooth="yes"/>
      <point x="51" y="-198"/>
      <point x="36" y="-178"/>
      <point x="36" y="-148" type="curve" smooth="yes"/>
      <point x="36" y="-125"/>
      <point x="155" y="316"/>
      <point x="155" y="316" type="curve"/>
    </contour>
  </outline>
</glyph>
<glyph name="sterling" format="2">
  <advance width="556"/>
  <unicode hex="00A3"/>
  <outline>
    <contour>
      <point x="581" y="614" type="curve" smooth="yes"/>
      <point x="581" y="563"/>
      <point x="512" y="546"/>
      <point x="484" y="542" type="curve"/>
      <point x="441" y="633" type="line" name="n04"/>
      <point x="308" y="626"/>
      <point x="286" y="453"/>
      <point x="269" y="353" type="curve"/>
      <point x="451" y="353" type="line" name="n08"/>
      <point x="451" y="302" type="line" name="n09"/>
      <point x="257" y="302" type="line"/>
      <point x="240" y="208"/>
      <point x="208" y="137"/>
      <point x="119" y="76" type="curve"/>
      <point x="147" y="79"/>
      <point x="171" y="81"/>
      <point x="187" y="81" type="curve" smooth="yes"/>
      <point x="480" y="81" type="line" name="n17"/>
      <point x="480" y="0" type="line" name="n18"/>
      <point x="-4" y="0" type="line"/>
      <point x="-4" y="60" type="line"/>
      <point x="59" y="72"/>
      <point x="95" y="106"/>
      <point x="117" y="150" type="curve" smooth="yes"/>
      <point x="143" y="200"/>
      <point x="149" y="252"/>
      <point x="159" y="302" type="curve"/>
      <point x="88" y="302" type="line"/>
      <point x="88" y="353" type="line"/>
      <point x="166" y="353" type="line"/>
      <point x="172" y="421"/>
      <point x="210" y="687"/>
      <point x="446" y="687" type="curve" smooth="yes" name="n32"/>
      <point x="495" y="687"/>
      <point x="581" y="671"/>
    </contour>
  </outline>
</glyph>
<glyph name="copyright" format="2">
  <advance width="836"/>
  <unicode hex="00A9"/>
  <outline>
    <contour>
      <point x="823" y="351" type="curve" smooth="yes" name="n00"/>
      <point x="823" y="138"/>
      <point x="651" y="-36"/>
      <point x="438" y="-36" type="curve" smooth="yes" name="n03"/>
      <point x="227" y="-36"/>
      <point x="54" y="138"/>
      <point x="54" y="350" type="curve" smooth="yes" name="n06"/>
      <point x="54" y="563"/>
      <point x="226" y="737"/>
      <point x="439" y="737" type="curve" smooth="yes" name="n09"/>
      <point x="654" y="737"/>
      <point x="823" y="560"/>
    </contour>
    <contour>
      <point x="780" y="350" type="curve" smooth="yes" name="n12"/>
      <point x="780" y="539"/>
      <point x="628" y="695"/>
      <point x="439" y="695" type="curve" smooth="yes" name="n15"/>
      <point x="250" y="695"/>
      <point x="97" y="540"/>
      <point x="97" y="350" type="curve" smooth="yes" name="n18"/>
      <point x="97" y="161"/>
      <point x="250" y="6"/>
      <point x="438" y="6" type="curve" smooth="yes" name="n21"/>
      <point x="626" y="6"/>
      <point x="780" y="161"/>
    </contour>
    <contour>
      <point x="596" y="138" type="line"/>
      <point x="593" y="137"/>
      <point x="528" y="114"/>
      <point x="454" y="114" type="curve" smooth="yes" name="n27"/>
      <point x="297" y="114"/>
      <point x="209" y="224"/>
      <point x="209" y="350" type="curve" smooth="yes" name="n30"/>
      <point x="209" y="488"/>
      <point x="306" y="585"/>
      <point x="455" y="585" type="curve" smooth="yes" name="n33"/>
      <point x="507" y="585"/>
      <point x="552" y="573"/>
      <point x="596" y="560" type="curve"/>
      <point x="596" y="441" type="line"/>
      <point x="551" y="441" type="line"/>
      <point x="536" y="517" type="line"/>
      <point x="521" y="527"/>
      <point x="493" y="538"/>
      <point x="465" y="538" type="curve" smooth="yes" name="n42"/>
      <point x="380" y="538"/>
      <point x="301" y="470"/>
      <point x="301" y="352" type="curve" smooth="yes" name="n45"/>
      <point x="301" y="230"/>
      <point x="377" y="160"/>
      <point x="455" y="160" type="curve" smooth="yes" name="n48"/>
      <point x="488" y="160"/>
      <point x="521" y="171"/>
      <point x="538" y="179" type="curve"/>
      <point x="552" y="264" type="line"/>
      <point x="596" y="264" type="line"/>
    </contour>
  </outline>
</glyph>
<glyph name="ordfeminine" format="2">
  <advance width="337"/>
  <unicode hex="00AA"/>
  <outline>
    <contour>
      <point x="394" y="399" type="line"/>
      <point x="383" y="395"/>
      <point x="334" y="376"/>
      <point x="309" y="376" type="curve" smooth="yes"/>
      <point x="277" y="376"/>
      <point x="266" y="390"/>
      <point x="264" y="417" type="curve"/>
      <point x="244" y="399"/>
      <point x="210" y="376"/>
      <point x="171" y="376" type="curve" smooth="yes" name="n09"/>
      <point x="95" y="376"/>
      <point x="77" y="440"/>
      <point x="77" y="483" type="curve" smooth="yes" name="n12"/>
      <point x="77" y="576"/>
      <point x="143" y="679"/>
      <point x="265" y="679" type="curve" smooth="yes" name="n15"/>
      <point x="289" y="679"/>
      <point x="311" y="668"/>
      <point x="323" y="658" type="curve"/>
      <point x="333" y="672" type="line" name="n19"/>
      <point x="377" y="672" type="line"/>
      <point x="373" y="663"/>
      <point x="366" y="644"/>
      <point x="364" y="638" type="curve"/>
      <point x="356" y="606"/>
      <point x="322" y="465"/>
      <point x="322" y="438" type="curve" smooth="yes" name="n26"/>
      <point x="322" y="418"/>
      <point x="333" y="411"/>
      <point x="351" y="411" type="curve" smooth="yes" name="n29"/>
      <point x="360" y="411"/>
      <point x="387" y="419"/>
      <point x="394" y="420" type="curve"/>
    </contour>
    <contour>
      <point x="349" y="342" type="line" name="n33"/>
      <point x="342" y="306" type="line" name="n34"/>
      <point x="42" y="306" type="line"/>
      <point x="50" y="342" type="line"/>
    </contour>
    <contour>
      <point x="298" y="618" type="curve"/>
      <point x="299" y="622"/>
      <point x="282" y="650"/>
      <point x="274" y="650" type="curve" smooth="yes" name="n40"/>
      <point x="174" y="650"/>
      <point x="142" y="553"/>
      <point x="142" y="487" type="curve" smooth="yes" name="n43"/>
      <point x="142" y="453"/>
      <point x="151" y="415"/>
      <point x="192" y="415" type="curve" smooth="yes" name="n46"/>
      <point x="223" y="415"/>
      <point x="254" y="444"/>
      <point x="264" y="453" type="curve"/>
      <point x="268.124" y="473.013"/>
      <point x="285.124" y="555.514"/>
    </contour>
  </outline>
</glyph>
<glyph name="twosuperior" format="2">
  <advance width="360"/>
  <unicode hex="00B2"/>
  <outline>
    <contour>
      <point x="398" y="701" type="curve" smooth="yes" name="n00"/>
      <point x="398" y="590"/>
      <point x="221" y="492"/>
      <point x="139" y="438" type="curve"/>
      <point x="313" y="438" type="line" name="n04"/>
      <point x="334" y="488" type="line"/>
      <point x="371" y="488" type="line"/>
      <point x="350" y="383" type="line" name="n07"/>
      <point x="47" y="383" type="line"/>
      <point x="56" y="427" type="line"/>
      <point x="241" y="549"/>
      <point x="328" y="610"/>
      <point x="328" y="694" type="curve" smooth="yes" name="n12"/>
      <point x="328" y="735"/>
      <point x="303" y="754"/>
      <point x="262" y="754" type="curve" smooth="yes" name="n15"/>
      <point x="235" y="754"/>
      <point x="214" y="744"/>
      <point x="208" y="741" type="curve"/>
      <point x="195" y="679" type="line"/>
      <point x="195" y="679"/>
      <point x="181" y="668"/>
      <point x="160" y="668" type="curve" smooth="yes"/>
      <point x="152" y="668"/>
      <point x="126" y="671"/>
      <point x="126" y="696" type="curve" smooth="yes"/>
      <point x="126" y="744"/>
      <point x="202" y="792"/>
      <point x="281" y="792" type="curve" smooth="yes" name="n28"/>
      <point x="342" y="792"/>
      <point x="398" y="769"/>
    </contour>
  </outline>
</glyph>
<glyph name="paragraph" format="2">
  <advance width="485"/>
  <unicode hex="00B6"/>
  <outline>
    <contour>
      <point x="483" y="635" type="line"/>
      <point x="421" y="625" type="line"/>
      <point x="421" y="-79" type="line" name="n02"/>
      <point x="373" y="-79" type="line" name="n03"/>
      <point x="373" y="630" type="line"/>
      <point x="296" y="630" type="line" name="n05"/>
      <point x="296" y="281" type="line"/>
      <point x="152" y="281"/>
      <point x="51" y="320"/>
      <point x="51" y="475" type="curve" smooth="yes" name="n09"/>
      <point x="51" y="622"/>
      <point x="137" y="671"/>
      <point x="286" y="671" type="curve" smooth="yes" name="n12"/>
      <point x="483" y="671" type="line"/>
    </contour>
  </outline>
</glyph>
<glyph name="onehalf" format="2">
  <advance width="878"/>
  <unicode hex="00BD"/>
  <outline>
    <contour>
      <point x="815" y="321" type="curve" smooth="yes" name="n00"/>
      <point x="815" y="209"/>
      <point x="634" y="109"/>
      <point x="552" y="56" type="curve"/>
      <point x="728" y="56" type="line" name="n04"/>
      <point x="750" y="105" type="line"/>
      <point x="787" y="105" type="line"/>
      <point x="765" y="0" type="line" name="n07"/>
      <point x="458" y="0" type="line"/>
      <point x="468" y="44" type="line"/>
      <point x="554" y="100"/>
      <point x="744" y="196"/>
      <point x="744" y="314" type="curve" smooth="yes" name="n12"/>
      <point x="744" y="356"/>
      <point x="717" y="374"/>
      <point x="676" y="374" type="curve" smooth="yes" name="n15"/>
      <point x="649" y="374"/>
      <point x="627" y="364"/>
      <point x="621" y="361" type="curve"/>
      <point x="608" y="299" type="line"/>
      <point x="608" y="299"/>
      <point x="595" y="288"/>
      <point x="573" y="288" type="curve" smooth="yes"/>
      <point x="563" y="288"/>
      <point x="539" y="291"/>
      <point x="539" y="316" type="curve" smooth="yes"/>
      <point x="539" y="365"/>
      <point x="616" y="413"/>
      <point x="696" y="413" type="curve" smooth="yes" name="n28"/>
      <point x="758" y="413"/>
      <point x="815" y="389"/>
    </contour>
    <contour>
      <point x="752" y="698" type="line"/>
      <point x="171" y="0" type="line"/>
      <point x="100" y="0" type="line"/>
      <point x="681" y="698" type="line"/>
    </contour>
    <contour>
      <point x="279" y="701" type="line" name="n35"/>
      <point x="206" y="346" type="line" smooth="yes"/>
      <point x="203.748" y="335.049"/>
      <point x="209" y="329"/>
      <point x="220" y="329" type="curve"/>
      <point x="263" y="325" type="line"/>
      <point x="263" y="292" type="line"/>
      <point x="68" y="292" type="line"/>
      <point x="68" y="326" type="line"/>
      <point x="123" y="329" type="line"/>
      <point x="137" y="329"/>
      <point x="143" y="335"/>
      <point x="146" y="346" type="curve"/>
      <point x="205" y="641" type="line"/>
      <point x="109" y="630" type="line"/>
      <point x="109" y="662" type="line"/>
      <point x="258" y="701" type="line"/>
    </contour>
  </outline>
</glyph>
<glyph name="Oslash" format="2">
  <advance width="709"/>
  <unicode hex="00D8"/>
  <outline>
    <contour>
      <point x="691" y="417" type="curve" smooth="yes" name="n00"/>
      <point x="691" y="206"/>
      <point x="555" y="-16"/>
      <point x="320" y="-16" type="curve" smooth="yes" name="n03"/>
      <point x="267" y="-16"/>
      <point x="219" y="-4"/>
      <point x="179" y="19" type="curve"/>
      <point x="114" y="-80" type="line"/>
      <point x="71" y="-48" type="line"/>
      <point x="134" y="50" type="line"/>
      <point x="80" y="99"/>
      <point x="48" y="172"/>
      <point x="48" y="262" type="curve" smooth="yes" name="n12"/>
      <point x="48" y="477"/>
      <point x="200" y="687"/>
      <point x="420" y="687" type="curve" smooth="yes" name="n15"/>
      <point x="462" y="687"/>
      <point x="500" y="679"/>
      <point x="533" y="666" type="curve"/>
      <point x="587" y="749" type="line"/>
      <point x="638" y="718" type="line"/>
      <point x="584" y="637" type="line"/>
      <point x="652" y="588"/>
      <point x="691" y="508"/>
    </contour>
    <contour>
      <point x="497" y="609" type="line"/>
      <point x="472" y="627"/>
      <point x="443" y="637"/>
      <point x="411" y="637" type="curve" smooth="yes" name="n27"/>
      <point x="265" y="637"/>
      <point x="161" y="431"/>
      <point x="161" y="254" type="curve" smooth="yes" name="n30"/>
      <point x="161" y="206"/>
      <point x="170" y="164"/>
      <point x="187" y="130" type="curve"/>
    </contour>
    <contour>
      <point x="577" y="417" type="curve" smooth="yes" name="n34"/>
      <point x="577" y="478"/>
      <point x="563" y="528"/>
      <point x="538" y="566" type="curve"/>
      <point x="220" y="82" type="line"/>
      <point x="249" y="52"/>
      <point x="286" y="36"/>
      <point x="327" y="36" type="curve" smooth="yes" name="n41"/>
      <point x="473" y="36"/>
      <point x="577" y="246"/>
    </contour>
  </outline>
</glyph>
<glyph name="eth" format="2">
  <advance width="505"/>
  <unicode hex="00F0"/>
  <outline>
    <contour>
      <point x="485" y="657" type="line"/>
      <point x="373" y="612" type="line"/>
      <point x="420" y="529"/>
      <point x="468" y="400"/>
      <point x="468" y="294" type="curve" smooth="yes" name="n04"/>
      <point x="468" y="175"/>
      <point x="402" y="-12"/>
      <point x="210" y="-12" type="curve" smooth="yes" name="n07"/>
      <point x="105" y="-12"/>
      <point x="32" y="60"/>
      <point x="32" y="179" type="curve" smooth="yes" name="n10"/>
      <point x="32" y="344"/>
      <point x="138" y="494"/>
      <point x="289" y="494" type="curve" smooth="yes" name="n13"/>
      <point x="306" y="494"/>
      <point x="322" y="488"/>
      <point x="337" y="479" type="curve"/>
      <point x="323" y="515"/>
      <point x="301" y="562"/>
      <point x="292" y="581" type="curve"/>
      <point x="153" y="524" type="line"/>
      <point x="135" y="569" type="line"/>
      <point x="266" y="619" type="line"/>
      <point x="231" y="668" type="line"/>
      <point x="154" y="688" type="line"/>
      <point x="158" y="718" type="line"/>
      <point x="288" y="737" type="line"/>
      <point x="348" y="652" type="line"/>
      <point x="466" y="699" type="line"/>
    </contour>
    <contour>
      <point x="370" y="291" type="curve" smooth="yes" name="n29"/>
      <point x="370" y="354"/>
      <point x="362" y="394"/>
      <point x="350" y="435" type="curve"/>
      <point x="339" y="444"/>
      <point x="323" y="451"/>
      <point x="300" y="451" type="curve" smooth="yes" name="n35"/>
      <point x="181" y="451"/>
      <point x="133" y="297"/>
      <point x="133" y="183" type="curve" smooth="yes" name="n38"/>
      <point x="133" y="79"/>
      <point x="178" y="34"/>
      <point x="222" y="34" type="curve" smooth="yes" name="n41"/>
      <point x="319" y="34"/>
      <point x="370" y="173"/>
    </contour>
  </outline>
</glyph>
<glyph name="dcaron" format="2">
  <advance width="676"/>
  <unicode hex="010F"/>
  <outline>
    <contour>
      <point x="529" y="737" type="line"/>
      <point x="415" y="86" type="line" smooth="yes"/>
      <point x="408" y="49"/>
      <point x="442" y="40"/>
      <point x="451" y="40" type="curve" smooth="yes"/>
      <point x="461" y="40"/>
      <point x="514" y="57"/>
      <point x="523" y="59" type="curve"/>
      <point x="523" y="22" type="line"/>
      <point x="507" y="16"/>
      <point x="433" y="-12"/>
      <point x="392" y="-12" type="curve" smooth="yes"/>
      <point x="331" y="-12"/>
      <point x="317" y="19"/>
      <point x="317" y="63" type="curve"/>
      <point x="282" y="26"/>
      <point x="231" y="-12"/>
      <point x="175" y="-12" type="curve" smooth="yes" name="n17"/>
      <point x="63" y="-12"/>
      <point x="32" y="83"/>
      <point x="32" y="167" type="curve" smooth="yes" name="n20"/>
      <point x="32" y="326"/>
      <point x="138" y="494"/>
      <point x="315" y="494" type="curve" smooth="yes" name="n23"/>
      <point x="345" y="494"/>
      <point x="373" y="481"/>
      <point x="390" y="475" type="curve"/>
      <point x="424" y="668" type="line"/>
      <point x="333" y="677" type="line"/>
      <point x="333" y="707" type="line"/>
      <point x="488" y="737" type="line"/>
    </contour>
    <contour>
      <point x="376" y="394" type="line" smooth="yes"/>
      <point x="377" y="400"/>
      <point x="339" y="449"/>
      <point x="313" y="449" type="curve" smooth="yes" name="n34"/>
      <point x="216" y="449"/>
      <point x="129" y="329"/>
      <point x="129" y="173" type="curve" smooth="yes" name="n37"/>
      <point x="129" y="87"/>
      <point x="168" y="49"/>
      <point x="207" y="49" type="curve" smooth="yes" name="n40"/>
      <point x="243" y="49"/>
      <point x="294" y="89"/>
      <point x="330" y="131" type="curve"/>
    </contour>
    <contour>
      <point x="694" y="696" type="curve" smooth="yes" name="n44"/>
      <point x="694" y="612"/>
      <point x="623" y="565"/>
      <point x="548" y="551" type="curve"/>
      <point x="554" y="584" type="line"/>
      <point x="608" y="601"/>
      <point x="628" y="615"/>
      <point x="639" y="672" type="curve" name="n51"/>
      <point x="586" y="672" type="line"/>
      <point x="580" y="679"/>
      <point x="578" y="690"/>
      <point x="578" y="699" type="curve" smooth="yes" name="n55"/>
      <point x="578" y="732"/>
      <point x="607" y="756"/>
      <point x="639" y="756" type="curve" smooth="yes" name="n58"/>
      <point x="676" y="756"/>
      <point x="694" y="732"/>
    </contour>
  </outline>
</glyph>
<glyph name="hbar" format="2">
  <advance width="523"/>
  <unicode hex="0127"/>
  <outline>
    <contour>
      <point x="522" y="25" type="line"/>
      <point x="505" y="19"/>
      <point x="430" y="-12" name="n02"/>
      <point x="388" y="-12" type="curve" smooth="yes"/>
      <point x="364" y="-12"/>
      <point x="304" y="-1"/>
      <point x="315" y="53" type="curve" smooth="yes"/>
      <point x="376" y="348" type="line" smooth="yes"/>
      <point x="387" y="401"/>
      <point x="343" y="428"/>
      <point x="321" y="428" type="curve" smooth="yes" name="n10"/>
      <point x="289" y="428"/>
      <point x="227" y="396"/>
      <point x="183" y="350" type="curve"/>
      <point x="110" y="0" type="line" name="n14"/>
      <point x="18" y="0" type="line"/>
      <point x="126" y="525" type="line"/>
      <point x="46" y="525" type="line" name="n17"/>
      <point x="46" y="575" type="line" name="n18"/>
      <point x="137" y="575" type="line"/>
      <point x="156" y="668" type="line"/>
      <point x="67" y="677" type="line"/>
      <point x="67" y="707" type="line"/>
      <point x="223" y="737" type="line" name="n23"/>
      <point x="263" y="737" type="line"/>
      <point x="229" y="575" type="line"/>
      <point x="333" y="575" type="line"/>
      <point x="333" y="525" type="line"/>
      <point x="219" y="525" type="line"/>
      <point x="196" y="414" type="line"/>
      <point x="237" y="459"/>
      <point x="309" y="494"/>
      <point x="376" y="494" type="curve" smooth="yes" name="n32"/>
      <point x="449" y="494"/>
      <point x="490" y="449"/>
      <point x="471" y="359" type="curve" smooth="yes"/>
      <point x="416" y="90" type="line" smooth="yes"/>
      <point x="408" y="52"/>
      <point x="446" y="41"/>
      <point x="458" y="41" type="curve" smooth="yes"/>
      <point x="476" y="41"/>
      <point x="498" y="53"/>
      <point x="521" y="60" type="curve"/>
    </contour>
  </outline>
</glyph>
<glyph name="ij" format="2">
  <advance width="539"/>
  <unicode hex="0133"/>
  <outline>
    <contour>
      <point x="259" y="641" type="curve" smooth="yes" name="n00"/>
      <point x="259" y="612"/>
      <point x="237" y="585"/>
      <point x="198" y="585" type="curve" smooth="yes"/>
      <point x="157" y="585"/>
      <point x="136" y="610"/>
      <point x="136" y="641" type="curve" smooth="yes" name="n06"/>
      <point x="136" y="667"/>
      <point x="159" y="697"/>
      <point x="199" y="697" type="curve" smooth="yes"/>
      <point x="237" y="697"/>
      <point x="259" y="669"/>
    </contour>
    <contour>
      <point x="263" y="29" type="line"/>
      <point x="248" y="22"/>
      <point x="172" y="-12"/>
      <point x="117" y="-12" type="curve" smooth="yes" name="n15"/>
      <point x="49" y="-12"/>
      <point x="39" y="40"/>
      <point x="48" y="86" type="curve" smooth="yes"/>
      <point x="112" y="425" type="line"/>
      <point x="26" y="434" type="line"/>
      <point x="26" y="463" type="line"/>
      <point x="177" y="494" type="line" name="n22"/>
      <point x="218" y="494" type="line"/>
      <point x="142" y="94" type="line" smooth="yes"/>
      <point x="137" y="67"/>
      <point x="154" y="43"/>
      <point x="181" y="43" type="curve" smooth="yes" name="n27"/>
      <point x="204" y="43"/>
      <point x="250" y="63"/>
      <point x="263" y="67" type="curve"/>
    </contour>
    <contour>
      <point x="532" y="641" type="curve" smooth="yes" name="n31"/>
      <point x="532" y="617"/>
      <point x="507" y="585"/>
      <point x="470" y="585" type="curve" smooth="yes" name="n34"/>
      <point x="434" y="585"/>
      <point x="408" y="609"/>
      <point x="408" y="641" type="curve" smooth="yes" name="n37"/>
      <point x="408" y="671"/>
      <point x="428" y="698"/>
      <point x="470" y="698" type="curve" smooth="yes" name="n40"/>
      <point x="510" y="698"/>
      <point x="532" y="671"/>
    </contour>
    <contour>
      <point x="497" y="494" type="line"/>
      <point x="426" y="80" type="line" smooth="yes"/>
      <point x="409" y="-20"/>
      <point x="338" y="-229" name="n46"/>
      <point x="204" y="-229" type="curve" smooth="yes"/>
      <point x="162" y="-229"/>
      <point x="137" y="-206"/>
      <point x="137" y="-176" type="curve" smooth="yes"/>
      <point x="137" y="-151"/>
      <point x="155" y="-137"/>
      <point x="165" y="-131" type="curve"/>
      <point x="265" y="-158" type="line"/>
      <point x="284" y="-137"/>
      <point x="308" y="-67"/>
      <point x="318" y="-12" type="curve" smooth="yes"/>
      <point x="393" y="425" type="line"/>
      <point x="309" y="434" type="line"/>
      <point x="309" y="463" type="line"/>
      <point x="460" y="494" type="line"/>
    </contour>
  </outline>
</glyph>
<glyph name="Lcedilla" format="2">
  <advance width="518"/>
  <unicode hex="013B"/>
  <outline>
    <contour>
      <point x="483" y="185" type="line"/>
      <point x="447" y="0" type="line" name="n01"/>
      <point x="-15" y="0" type="line"/>
      <point x="-15" y="42" type="line"/>
      <point x="-1.21767" y="43.1881"/>
      <point x="43" y="47"/>
      <point x="43" y="47" type="curve"/>
      <point x="56" y="48"/>
      <point x="65" y="54"/>
      <point x="67" y="66" type="curve" smooth="yes"/>
      <point x="171" y="604" type="line" smooth="yes"/>
      <point x="173" y="615"/>
      <point x="169" y="623"/>
      <point x="152" y="624" type="curve"/>
      <point x="152" y="624"/>
      <point x="109.786" y="627.769"/>
      <point x="96" y="629" type="curve"/>
      <point x="96" y="671" type="line" name="n17"/>
      <point x="356" y="671" type="line"/>
      <point x="356" y="629" type="line"/>
      <point x="341.006" y="627.729"/>
      <point x="297" y="624"/>
      <point x="297" y="624" type="curve"/>
      <point x="282" y="623"/>
      <point x="274" y="614"/>
      <point x="272" y="604" type="curve" smooth="yes"/>
      <point x="166" y="50" type="line" name="hr01"/>
      <point x="363" y="50" type="line" smooth="yes" name="n27"/>
      <point x="376" y="50"/>
      <point x="384.221" y="57.9285"/>
      <point x="388" y="70" type="curve" smooth="yes"/>
      <point x="424" y="185" type="line" name="n31"/>
    </contour>
    <contour>
      <point x="241" y="-121" type="curve" smooth="yes" name="n32"/>
      <point x="241" y="-204"/>
      <point x="169" y="-252"/>
      <point x="94" y="-266" type="curve"/>
      <point x="100" y="-232" type="line"/>
      <point x="154" y="-216"/>
      <point x="174" y="-202"/>
      <point x="185" y="-145" type="curve" name="n39"/>
      <point x="132" y="-145" type="line"/>
      <point x="126" y="-138"/>
      <point x="124" y="-127"/>
      <point x="124" y="-118" type="curve" smooth="yes" name="n43"/>
      <point x="124" y="-84"/>
      <point x="153" y="-61"/>
      <point x="185" y="-61" type="curve" smooth="yes" name="n46"/>
      <point x="222" y="-61"/>
      <point x="241" y="-85"/>
    </contour>
  </outline>
</glyph>
<glyph name="Lcaron" format="2">
  <advance width="518"/>
  <unicode hex="013D"/>
  <outline>
    <contour>
      <point x="483" y="185" type="line"/>
      <point x="447" y="0" type="line" name="n01"/>
      <point x="-15" y="0" type="line"/>
      <point x="-15" y="42" type="line"/>
      <point x="-1.21767" y="43.1881"/>
      <point x="43" y="47"/>
      <point x="43" y="47" type="curve"/>
      <point x="56" y="48"/>
      <point x="65" y="54"/>
      <point x="67" y="66" type="curve" smooth="yes"/>
      <point x="171" y="604" type="line" smooth="yes"/>
      <point x="173" y="615"/>
      <point x="169" y="623"/>
      <point x="152" y="624" type="curve"/>
      <point x="152" y="624"/>
      <point x="109.786" y="627.769"/>
      <point x="96" y="629" type="curve"/>
      <point x="96" y="671" type="line" name="n17"/>
      <point x="356" y="671" type="line"/>
      <point x="356" y="629" type="line"/>
      <point x="341.006" y="627.729" name="hr02"/>
      <point x="297" y="624"/>
      <point x="297" y="624" type="curve"/>
      <point x="282" y="623"/>
      <point x="274" y="614"/>
      <point x="272" y="604" type="curve" smooth="yes"/>
      <point x="166" y="50" type="line"/>
      <point x="363" y="50" type="line" smooth="yes" name="n27"/>
      <point x="376" y="50"/>
      <point x="384.221" y="57.9285"/>
      <point x="388" y="70" type="curve" smooth="yes"/>
      <point x="424" y="185" type="line" name="n31"/>
    </contour>
    <contour>
      <point x="531" y="652" type="curve" smooth="yes" name="n32"/>
      <point x="531" y="568"/>
      <point x="460" y="521"/>
      <point x="385" y="507" type="curve"/>
      <point x="391" y="540" type="line"/>
      <point x="445" y="557"/>
      <point x="465" y="571"/>
      <point x="476" y="628" type="curve" name="n39"/>
      <point x="423" y="628" type="line"/>
      <point x="417" y="635"/>
      <point x="415" y="646"/>
      <point x="415" y="655" type="curve" smooth="yes" name="n43"/>
      <point x="415" y="688"/>
      <point x="444" y="712"/>
      <point x="476" y="712" type="curve" smooth="yes" name="n46"/>
      <point x="513" y="712"/>
      <point x="531" y="688"/>
    </contour>
  </outline>
</glyph>
<glyph name="Eng" format="2">
  <advance width="725"/>
  <unicode hex="014A"/>
  <outline>
    <contour>
      <point x="689" y="512" type="curve" smooth="yes"/>
      <point x="689" y="501"/>
      <point x="688" y="490"/>
      <point x="686" y="478" type="curve" smooth="yes"/>
      <point x="588" y="-44" type="line"/>
      <point x="564" y="-177"/>
      <point x="499" y="-229" name="n06"/>
      <point x="354" y="-229" type="curve" smooth="yes"/>
      <point x="316" y="-229"/>
      <point x="262" y="-203"/>
      <point x="262" y="-165" type="curve" smooth="yes"/>
      <point x="262" y="-131"/>
      <point x="291" y="-88"/>
      <point x="319" y="-88" type="curve"/>
      <point x="393" y="-173" type="line"/>
      <point x="464" y="-160"/>
      <point x="474" y="-113"/>
      <point x="487" y="-44" type="curve" smooth="yes"/>
      <point x="584" y="478" type="line" smooth="yes"/>
      <point x="599" y="558"/>
      <point x="535" y="614"/>
      <point x="459" y="614" type="curve" smooth="yes" name="n21"/>
      <point x="382" y="614"/>
      <point x="270" y="507"/>
      <point x="245" y="463" type="curve"/>
      <point x="168" y="66" type="line" smooth="yes"/>
      <point x="166" y="56"/>
      <point x="171" y="48"/>
      <point x="188" y="47" type="curve"/>
      <point x="188" y="47"/>
      <point x="229.477" y="43.4244"/>
      <point x="246" y="42" type="curve"/>
      <point x="246" y="0" type="line" name="n32"/>
      <point x="-15" y="0" type="line"/>
      <point x="-15" y="42" type="line"/>
      <point x="-0.997611" y="43.2071"/>
      <point x="43" y="47"/>
      <point x="43" y="47" type="curve"/>
      <point x="56" y="48"/>
      <point x="65" y="54"/>
      <point x="67" y="66" type="curve" smooth="yes"/>
      <point x="171" y="604" type="line" smooth="yes"/>
      <point x="173" y="615"/>
      <point x="169" y="623"/>
      <point x="151" y="624" type="curve"/>
      <point x="151" y="624"/>
      <point x="108.267" y="627.815"/>
      <point x="95" y="629" type="curve"/>
      <point x="95" y="671" type="line" name="n48"/>
      <point x="285" y="671" type="line"/>
      <point x="262" y="551" type="line"/>
      <point x="326" y="639"/>
      <point x="409" y="687" name="hr02"/>
      <point x="503" y="687" type="curve" smooth="yes" name="n53"/>
      <point x="593" y="687"/>
      <point x="689" y="617"/>
    </contour>
  </outline>
</glyph>
<glyph name="oe" format="2">
  <advance width="747"/>
  <unicode hex="0153"/>
  <outline>
    <contour>
      <point x="729" y="383" type="curve" smooth="yes" name="n00"/>
      <point x="729" y="254"/>
      <point x="529" y="225"/>
      <point x="457" y="220" type="curve" name="n03"/>
      <point x="455" y="207"/>
      <point x="454" y="186"/>
      <point x="454" y="175" type="curve" smooth="yes" name="n06"/>
      <point x="454" y="97"/>
      <point x="494" y="48"/>
      <point x="550" y="48" type="curve" smooth="yes" name="n09"/>
      <point x="602" y="48"/>
      <point x="661" y="93"/>
      <point x="717" y="145" type="curve"/>
      <point x="717" y="82" type="line"/>
      <point x="663" y="32"/>
      <point x="603" y="-12"/>
      <point x="516" y="-12" type="curve" smooth="yes" name="n16"/>
      <point x="459" y="-12"/>
      <point x="412" y="18"/>
      <point x="382" y="86" type="curve"/>
      <point x="337" y="13"/>
      <point x="279" y="-12"/>
      <point x="210" y="-12" type="curve" smooth="yes" name="n22"/>
      <point x="104" y="-12"/>
      <point x="32" y="60"/>
      <point x="32" y="178" type="curve" smooth="yes" name="n25"/>
      <point x="32" y="327"/>
      <point x="129" y="494"/>
      <point x="296" y="494" type="curve" smooth="yes" name="n28"/>
      <point x="369" y="494"/>
      <point x="420" y="444"/>
      <point x="441" y="383" type="curve"/>
      <point x="470" y="451" name="hr01"/>
      <point x="556" y="494"/>
      <point x="622" y="494" type="curve" smooth="yes" name="n34"/>
      <point x="706" y="494"/>
      <point x="729" y="425"/>
    </contour>
    <contour>
      <point x="641" y="383" type="curve" smooth="yes" name="n37"/>
      <point x="641" y="400"/>
      <point x="637" y="447"/>
      <point x="598" y="447" type="curve" smooth="yes" name="n40"/>
      <point x="532" y="447"/>
      <point x="484" y="346"/>
      <point x="462" y="258" type="curve" name="n43"/>
      <point x="532" y="263"/>
      <point x="641" y="301"/>
    </contour>
    <contour>
      <point x="368" y="293" type="curve" smooth="yes" name="n46"/>
      <point x="368" y="371"/>
      <point x="339" y="451"/>
      <point x="282" y="451" type="curve" smooth="yes" name="n49"/>
      <point x="195" y="451" name="hr03"/>
      <point x="135" y="309"/>
      <point x="135" y="182" type="curve" smooth="yes" name="n52"/>
      <point x="135" y="96"/>
      <point x="166" y="33"/>
      <point x="220" y="33" type="curve" smooth="yes" name="n55"/>
      <point x="316" y="33"/>
      <point x="368" y="179"/>
    </contour>
  </outline>
</glyph>
<glyph name="Rcedilla" format="2">
  <advance width="641"/>
  <unicode hex="0156"/>
  <outline>
    <contour>
      <point x="615" y="0" type="line" name="n00"/>
      <point x="588" y="-12"/>
      <point x="565" y="-16" name="hr01"/>
      <point x="542" y="-16" type="curve" smooth="yes" name="n03"/>
      <point x="421" y="-16"/>
      <point x="404" y="71"/>
      <point x="389" y="145" type="curve" smooth="yes"/>
      <point x="373" y="219"/>
      <point x="359" y="296"/>
      <point x="265" y="296" type="curve" smooth="yes" name="n09"/>
      <point x="248" y="296"/>
      <point x="213" y="295"/>
      <point x="213" y="295" type="curve"/>
      <point x="170" y="66" type="line" smooth="yes"/>
      <point x="168" y="56"/>
      <point x="172" y="48"/>
      <point x="189" y="47" type="curve"/>
      <point x="189" y="47"/>
      <point x="232.755" y="43.2281"/>
      <point x="247" y="42" type="curve"/>
      <point x="247" y="0" type="line" name="hr02"/>
      <point x="-13" y="0" type="line"/>
      <point x="-13" y="42" type="line"/>
      <point x="1.00958" y="43.2289"/>
      <point x="44" y="47"/>
      <point x="44" y="47" type="curve"/>
      <point x="57" y="48"/>
      <point x="66" y="54"/>
      <point x="69" y="66" type="curve"/>
      <point x="171" y="604" type="line" smooth="yes"/>
      <point x="173" y="615"/>
      <point x="169" y="623"/>
      <point x="152" y="624" type="curve"/>
      <point x="152" y="624"/>
      <point x="109.543" y="627.791"/>
      <point x="96" y="629" type="curve"/>
      <point x="96" y="671" type="line"/>
      <point x="364" y="671" type="line" smooth="yes" name="n37"/>
      <point x="475" y="671"/>
      <point x="581" y="638"/>
      <point x="581" y="523" type="curve" smooth="yes" name="n40"/>
      <point x="581" y="415"/>
      <point x="489" y="348"/>
      <point x="377" y="317" type="curve"/>
      <point x="459" y="282"/>
      <point x="468" y="230"/>
      <point x="487" y="154" type="curve" smooth="yes"/>
      <point x="506" y="79"/>
      <point x="530" y="41" name="hr03"/>
      <point x="615" y="41" type="curve" name="n49"/>
    </contour>
    <contour>
      <point x="468" y="509" type="curve" smooth="yes" name="n50"/>
      <point x="468" y="606"/>
      <point x="374" y="624"/>
      <point x="297" y="621" type="curve" name="n53"/>
      <point x="292" y="621"/>
      <point x="281" y="620"/>
      <point x="275" y="620" type="curve"/>
      <point x="224" y="347" type="line"/>
      <point x="227.517" y="347"/>
      <point x="246" y="347"/>
      <point x="246" y="347" type="curve" name="n60"/>
      <point x="354" y="347"/>
      <point x="468" y="382"/>
    </contour>
    <contour>
      <point x="276" y="-121" type="curve" smooth="yes" name="n63"/>
      <point x="276" y="-204"/>
      <point x="204" y="-252"/>
      <point x="129" y="-266" type="curve"/>
      <point x="135" y="-232" type="line"/>
      <point x="189" y="-216"/>
      <point x="209" y="-202"/>
      <point x="220" y="-145" type="curve" name="n70"/>
      <point x="167" y="-145" type="line"/>
      <point x="161" y="-138"/>
      <point x="159" y="-127"/>
      <point x="159" y="-118" type="curve" smooth="yes" name="n74"/>
      <point x="159" y="-84"/>
      <point x="188" y="-61"/>
      <point x="220" y="-61" type="curve" smooth="yes" name="n77"/>
      <point x="257" y="-61"/>
      <point x="276" y="-85"/>
    </contour>
  </outline>
</glyph>
<glyph name="tbar" format="2">
  <advance width="299"/>
  <unicode hex="0167"/>
  <outline>
    <contour>
      <point x="310" y="222" type="line" name="n00"/>
      <point x="163" y="222" type="line"/>
      <point x="139" y="105" type="line" smooth="yes"/>
      <point x="132" y="70"/>
      <point x="163" y="49"/>
      <point x="197" y="49" type="curve" smooth="yes" name="n05"/>
      <point x="235" y="49"/>
      <point x="280" y="66"/>
      <point x="301" y="73" type="curve"/>
      <point x="301" y="33" type="line"/>
      <point x="284" y="26"/>
      <point x="196" y="-12"/>
      <point x="138" y="-12" type="curve" smooth="yes" name="n12"/>
      <point x="66" y="-12"/>
      <point x="44" y="25"/>
      <point x="44" y="74" type="curve" smooth="yes"/>
      <point x="44" y="87"/>
      <point x="45" y="101"/>
      <point x="48" y="115" type="curve" smooth="yes"/>
      <point x="69" y="222" type="line"/>
      <point x="7" y="222" type="line"/>
      <point x="7" y="277" type="line"/>
      <point x="80" y="277" type="line"/>
      <point x="109" y="419" type="line"/>
      <point x="46" y="413" type="line"/>
      <point x="46" y="446" type="line"/>
      <point x="121" y="479" type="line"/>
      <point x="170" y="579" type="line"/>
      <point x="231" y="579" type="line" name="n28"/>
      <point x="211" y="465" type="line" name="hr01"/>
      <point x="349" y="465" type="line" name="n30"/>
      <point x="349" y="419" type="line" name="n31"/>
      <point x="202" y="419" type="line" name="n32"/>
      <point x="173" y="277" type="line"/>
      <point x="310" y="277" type="line" name="n34"/>
    </contour>
  </outline>
</glyph>
<glyph name="uni0181" format="2">
  <advance width="627"/>
  <unicode hex="0181"/>
  <outline>
    <contour>
      <point x="595" y="543" type="curve" smooth="yes" name="n00"/>
      <point x="595" y="440"/>
      <point x="520" y="387"/>
      <point x="429" y="357" type="curve"/>
      <point x="515" y="345"/>
      <point x="576" y="311" name="hr01"/>
      <point x="576" y="224" type="curve" smooth="yes" name="n06"/>
      <point x="576" y="60"/>
      <point x="448" y="0"/>
      <point x="281" y="0" type="curve" smooth="yes" name="n09"/>
      <point x="7" y="0" type="line"/>
      <point x="7" y="42" type="line"/>
      <point x="22.7647" y="43.2713"/>
      <point x="69" y="47"/>
      <point x="69" y="47" type="curve"/>
      <point x="82" y="48"/>
      <point x="86" y="54"/>
      <point x="89" y="66" type="curve"/>
      <point x="190" y="598" type="line" smooth="yes"/>
      <point x="192" y="608"/>
      <point x="188" y="618"/>
      <point x="170" y="618" type="curve" smooth="yes"/>
      <point x="139" y="618" type="line" smooth="yes"/>
      <point x="104" y="618"/>
      <point x="93" y="598"/>
      <point x="93" y="598" type="curve"/>
      <point x="120" y="528" type="line"/>
      <point x="97" y="507"/>
      <point x="71" y="495"/>
      <point x="52" y="495" type="curve" smooth="yes"/>
      <point x="24" y="495"/>
      <point x="4" y="523"/>
      <point x="4" y="550" type="curve" smooth="yes"/>
      <point x="4" y="630"/>
      <point x="91" y="671"/>
      <point x="141" y="671" type="curve" smooth="yes"/>
      <point x="398" y="671" type="line" smooth="yes" name="n36"/>
      <point x="542" y="671"/>
      <point x="595" y="620" name="hr02"/>
    </contour>
    <contour>
      <point x="485" y="536" type="curve" smooth="yes" name="n39"/>
      <point x="485" y="599"/>
      <point x="433" y="628"/>
      <point x="348" y="628" type="curve" smooth="yes" name="n42"/>
      <point x="328" y="628"/>
      <point x="308" y="626"/>
      <point x="297" y="625" type="curve"/>
      <point x="249" y="371" type="line"/>
      <point x="263" y="370"/>
      <point x="287" y="369"/>
      <point x="295" y="369" type="curve" smooth="yes" name="n49"/>
      <point x="421" y="369"/>
      <point x="485" y="446"/>
    </contour>
    <contour>
      <point x="467" y="214" type="curve" smooth="yes" name="n52"/>
      <point x="467" y="295"/>
      <point x="407" y="325" name="hr03"/>
      <point x="313" y="325" type="curve" smooth="yes" name="n55"/>
      <point x="288" y="325"/>
      <point x="261" y="323"/>
      <point x="239" y="320" type="curve"/>
      <point x="187" y="48" type="line"/>
      <point x="202" y="47"/>
      <point x="231" y="45"/>
      <point x="248" y="45" type="curve" smooth="yes" name="n62"/>
      <point x="391" y="45"/>
      <point x="467" y="108"/>
    </contour>
  </outline>
</glyph>
<glyph name="uni0182" format="2">
  <advance width="592"/>
  <unicode hex="0182"/>
  <outline>
    <contour>
      <point x="560" y="671" type="line" name="n00"/>
      <point x="529" y="515" type="line" name="n01"/>
      <point x="474" y="515" type="line"/>
      <point x="478" y="605" type="line"/>
      <point x="479" y="614"/>
      <point x="475" y="624" name="hr01"/>
      <point x="465" y="624" type="curve" smooth="yes"/>
      <point x="297" y="624" type="line" smooth="yes"/>
      <point x="283" y="624"/>
      <point x="274" y="611"/>
      <point x="272" y="603" type="curve"/>
      <point x="227" y="368" type="line"/>
      <point x="227" y="368"/>
      <point x="272" y="373"/>
      <point x="301" y="373" type="curve" smooth="yes" name="n14"/>
      <point x="432" y="373"/>
      <point x="554" y="335"/>
      <point x="554" y="224" type="curve" smooth="yes" name="n17"/>
      <point x="554" y="27"/>
      <point x="392" y="0"/>
      <point x="211" y="0" type="curve" smooth="yes" name="n20"/>
      <point x="-28" y="0" type="line"/>
      <point x="-28" y="43" type="line"/>
      <point x="42" y="47" type="line" smooth="yes"/>
      <point x="56" y="48"/>
      <point x="66" y="60"/>
      <point x="67" y="68" type="curve"/>
      <point x="171" y="603" type="line" smooth="yes"/>
      <point x="173" y="614"/>
      <point x="166" y="623"/>
      <point x="154" y="624" type="curve" smooth="yes" name="n30"/>
      <point x="102" y="628" type="line"/>
      <point x="102" y="671" type="line" name="n32"/>
    </contour>
    <contour>
      <point x="445" y="214" type="curve" smooth="yes" name="n33"/>
      <point x="445" y="295"/>
      <point x="387" y="325"/>
      <point x="282" y="325" type="curve" smooth="yes" name="n36"/>
      <point x="261" y="325"/>
      <point x="217" y="320"/>
      <point x="217" y="320" type="curve"/>
      <point x="164" y="48" type="line"/>
      <point x="164" y="48"/>
      <point x="189" y="46"/>
      <point x="214" y="46" type="curve" smooth="yes" name="n43"/>
      <point x="357" y="46"/>
      <point x="445" y="95"/>
    </contour>
  </outline>
</glyph>
<glyph name="uni0185" format="2">
  <advance width="492"/>
  <unicode hex="0185"/>
  <outline>
    <contour>
      <point x="460" y="310" type="curve" smooth="yes" name="n00"/>
      <point x="460" y="186"/>
      <point x="381" y="-12"/>
      <point x="178" y="-12" type="curve" smooth="yes" name="n03"/>
      <point x="122" y="-12"/>
      <point x="65" y="4"/>
      <point x="18" y="34" type="curve"/>
      <point x="98" y="464" type="line"/>
      <point x="18" y="547" type="line"/>
      <point x="247" y="765" type="line"/>
      <point x="185" y="434" type="line"/>
      <point x="221" y="467"/>
      <point x="274" y="494"/>
      <point x="322" y="494" type="curve" smooth="yes" name="n13"/>
      <point x="425" y="494"/>
      <point x="460" y="393"/>
    </contour>
    <contour>
      <point x="361" y="306" type="curve" smooth="yes" name="n16"/>
      <point x="361" y="396"/>
      <point x="313" y="428"/>
      <point x="289" y="428" type="curve" smooth="yes" name="n19"/>
      <point x="257" y="428"/>
      <point x="208" y="406"/>
      <point x="174" y="377" type="curve"/>
      <point x="118" y="74" type="line"/>
      <point x="131" y="55"/>
      <point x="164" y="35"/>
      <point x="200" y="35" type="curve" smooth="yes" name="n26"/>
      <point x="292" y="35"/>
      <point x="361" y="186"/>
    </contour>
  </outline>
</glyph>
<glyph name="uni018F" format="2">
  <advance width="601"/>
  <unicode hex="018F"/>
  <outline>
    <contour>
      <point x="583" y="430" type="curve" smooth="yes" name="n00"/>
      <point x="583" y="204"/>
      <point x="464" y="-16"/>
      <point x="212" y="-16" type="curve" smooth="yes" name="n03"/>
      <point x="59" y="-16"/>
      <point x="21" y="94"/>
      <point x="21" y="132" type="curve" smooth="yes" name="n06"/>
      <point x="21" y="291"/>
      <point x="157" y="377"/>
      <point x="470" y="378" type="curve" name="n09"/>
      <point x="472" y="394"/>
      <point x="473" y="408"/>
      <point x="473" y="425" type="curve" smooth="yes" name="n12"/>
      <point x="473" y="528"/>
      <point x="412" y="630"/>
      <point x="317" y="630" type="curve" smooth="yes" name="n15"/>
      <point x="224" y="630"/>
      <point x="150" y="555"/>
      <point x="83" y="500" type="curve"/>
      <point x="83" y="577" type="line"/>
      <point x="166" y="653"/>
      <point x="215" y="687"/>
      <point x="335" y="687" type="curve" smooth="yes" name="n22"/>
      <point x="426" y="687"/>
      <point x="583" y="621"/>
    </contour>
    <contour>
      <point x="462" y="322" type="curve" name="n25"/>
      <point x="220" y="320"/>
      <point x="142" y="233"/>
      <point x="142" y="131" type="curve" smooth="yes" name="n28"/>
      <point x="142" y="90"/>
      <point x="190" y="37"/>
      <point x="232" y="37" type="curve" smooth="yes" name="n31"/>
      <point x="340" y="37"/>
      <point x="427" y="171"/>
    </contour>
  </outline>
</glyph>
<glyph name="uni0191" format="2">
  <advance width="514"/>
  <unicode hex="0191"/>
  <outline>
    <contour>
      <point x="569" y="671" type="line" name="n00"/>
      <point x="538" y="510" type="line"/>
      <point x="474" y="510" type="line"/>
      <point x="474" y="602" type="line" smooth="yes"/>
      <point x="474" y="616"/>
      <point x="469" y="621"/>
      <point x="454" y="621" type="curve" smooth="yes" name="n06"/>
      <point x="275" y="621" type="line"/>
      <point x="226" y="364" type="line" name="n08"/>
      <point x="354" y="364" type="line" smooth="yes"/>
      <point x="368" y="364"/>
      <point x="375" y="369"/>
      <point x="378" y="383" type="curve"/>
      <point x="397" y="451" type="line"/>
      <point x="454" y="451" type="line"/>
      <point x="410" y="223" type="line"/>
      <point x="353" y="223" type="line"/>
      <point x="363" y="293" type="line" smooth="yes"/>
      <point x="365" y="306"/>
      <point x="357" y="313"/>
      <point x="343" y="313" type="curve" smooth="yes"/>
      <point x="216" y="313" type="line" name="n21"/>
      <point x="149" y="-32" type="line" smooth="yes"/>
      <point x="123" y="-165"/>
      <point x="32" y="-229" name="n24"/>
      <point x="-113" y="-229" type="curve" smooth="yes"/>
      <point x="-151" y="-229"/>
      <point x="-191" y="-202"/>
      <point x="-191" y="-164" type="curve" smooth="yes"/>
      <point x="-191" y="-130"/>
      <point x="-151" y="-89"/>
      <point x="-123" y="-89" type="curve"/>
      <point x="-55" y="-174" type="line"/>
      <point x="-34" y="-170"/>
      <point x="-17" y="-167"/>
      <point x="0" y="-152" type="curve" smooth="yes"/>
      <point x="19" y="-136"/>
      <point x="36" y="-92"/>
      <point x="49" y="-28" type="curve" smooth="yes"/>
      <point x="171" y="604" type="line" smooth="yes"/>
      <point x="173" y="615"/>
      <point x="169" y="623"/>
      <point x="151" y="624" type="curve"/>
      <point x="151" y="624"/>
      <point x="108.292" y="627.813"/>
      <point x="95" y="629" type="curve"/>
      <point x="95" y="671" type="line"/>
    </contour>
  </outline>
</glyph>
<glyph name="uni0195" format="2">
  <advance width="834"/>
  <unicode hex="0195"/>
  <outline>
    <contour>
      <point x="333" y="146" type="curve"/>
      <point x="376" y="348" type="line" smooth="yes"/>
      <point x="387" y="401"/>
      <point x="343" y="428"/>
      <point x="321" y="428" type="curve" smooth="yes" name="n04"/>
      <point x="289" y="428"/>
      <point x="227" y="396"/>
      <point x="183" y="350" type="curve"/>
      <point x="110" y="0" type="line" name="n08"/>
      <point x="18" y="0" type="line"/>
      <point x="156" y="668" type="line"/>
      <point x="67" y="677" type="line"/>
      <point x="67" y="707" type="line"/>
      <point x="223" y="737" type="line" name="n13"/>
      <point x="263" y="737" type="line"/>
      <point x="196" y="414" type="line"/>
      <point x="237" y="459"/>
      <point x="309" y="494"/>
      <point x="376" y="494" type="curve" smooth="yes" name="n18"/>
      <point x="449" y="494"/>
      <point x="490" y="449"/>
      <point x="471" y="359" type="curve" smooth="yes"/>
      <point x="428" y="150" type="line" smooth="yes"/>
      <point x="407" y="52"/>
      <point x="460" y="50" name="hr01"/>
      <point x="486" y="50" type="curve" smooth="yes" name="n25"/>
      <point x="534" y="50"/>
      <point x="597" y="74"/>
      <point x="612" y="149" type="curve" smooth="yes"/>
      <point x="681" y="482" type="line"/>
      <point x="774" y="482" type="line"/>
      <point x="708" y="167" type="line" smooth="yes"/>
      <point x="685" y="58"/>
      <point x="562" y="-12"/>
      <point x="453" y="-12" type="curve" smooth="yes" name="n34"/>
      <point x="360" y="-12"/>
      <point x="310" y="32"/>
    </contour>
  </outline>
</glyph>
<glyph name="uni0196" format="2">
  <advance width="408"/>
  <unicode hex="0196"/>
  <outline>
    <contour>
      <point x="391" y="91" type="curve" smooth="yes"/>
      <point x="391" y="16"/>
      <point x="270" y="-16"/>
      <point x="211" y="-16" type="curve" smooth="yes" name="n03"/>
      <point x="136" y="-16"/>
      <point x="77" y="10"/>
      <point x="77" y="94" type="curve" smooth="yes" name="n06"/>
      <point x="77" y="109"/>
      <point x="79" y="124"/>
      <point x="82" y="139" type="curve" smooth="yes"/>
      <point x="171" y="604" type="line" smooth="yes"/>
      <point x="173" y="615"/>
      <point x="169" y="623"/>
      <point x="152" y="624" type="curve"/>
      <point x="152" y="624"/>
      <point x="110.831" y="627.676"/>
      <point x="96" y="629" type="curve"/>
      <point x="96" y="671" type="line" name="n17"/>
      <point x="286" y="671" type="line"/>
      <point x="187" y="161" type="line"/>
      <point x="185" y="149"/>
      <point x="183" y="136"/>
      <point x="183" y="124" type="curve" smooth="yes" name="n22"/>
      <point x="183" y="73"/>
      <point x="211" y="46"/>
      <point x="263" y="46" type="curve" name="n25"/>
      <point x="326" y="164" type="line"/>
      <point x="359" y="161"/>
      <point x="391" y="124"/>
    </contour>
  </outline>
</glyph>
<glyph name="uni0197" format="2">
  <advance width="313"/>
  <unicode hex="0197"/>
  <outline>
    <contour>
      <point x="356" y="629" type="line"/>
      <point x="292" y="624" type="line" smooth="yes"/>
      <point x="279" y="623"/>
      <point x="275" y="617"/>
      <point x="272" y="604" type="curve"/>
      <point x="230" y="384" type="line"/>
      <point x="327" y="384" type="line" name="n06"/>
      <point x="327" y="334" type="line" name="n07"/>
      <point x="220" y="334" type="line"/>
      <point x="168" y="66" type="line" smooth="yes"/>
      <point x="166" y="56"/>
      <point x="170" y="48"/>
      <point x="188" y="47" type="curve"/>
      <point x="188" y="47"/>
      <point x="231.252" y="43.2713"/>
      <point x="246" y="42" type="curve"/>
      <point x="246" y="0" type="line"/>
      <point x="-15" y="0" type="line"/>
      <point x="-15" y="42" type="line"/>
      <point x="0.484278" y="43.2289"/>
      <point x="48" y="47"/>
      <point x="48" y="47" type="curve"/>
      <point x="60" y="48"/>
      <point x="65" y="54"/>
      <point x="67" y="66" type="curve"/>
      <point x="119" y="334" type="line"/>
      <point x="31" y="334" type="line"/>
      <point x="31" y="384" type="line"/>
      <point x="129" y="384" type="line"/>
      <point x="171" y="604" type="line" smooth="yes"/>
      <point x="173" y="615"/>
      <point x="169" y="623"/>
      <point x="152" y="624" type="curve"/>
      <point x="152" y="624"/>
      <point x="109.292" y="627.813"/>
      <point x="96" y="629" type="curve"/>
      <point x="96" y="671" type="line"/>
      <point x="356" y="671" type="line"/>
    </contour>
  </outline>
</glyph>
<glyph name="uni0199" format="2">
  <advance width="508"/>
  <unicode hex="0199"/>
  <outline>
    <contour>
      <point x="497" y="23" type="line"/>
      <point x="464" y="6"/>
      <point x="405" y="-12"/>
      <point x="373" y="-12" type="curve" smooth="yes" name="n03"/>
      <point x="341" y="-12"/>
      <point x="309" y="11"/>
      <point x="293" y="35" type="curve" smooth="yes"/>
      <point x="266" y="76"/>
      <point x="213" y="200"/>
      <point x="192" y="244" type="curve"/>
      <point x="146" y="203" type="line"/>
      <point x="105" y="0" type="line" name="n11"/>
      <point x="13" y="0" type="line"/>
      <point x="110" y="491" type="line"/>
      <point x="122" y="548"/>
      <point x="135" y="587"/>
      <point x="164" y="629" type="curve" smooth="yes"/>
      <point x="220" y="709"/>
      <point x="299" y="737"/>
      <point x="377" y="737" type="curve" smooth="yes" name="n19"/>
      <point x="439" y="737"/>
      <point x="458" y="705"/>
      <point x="452" y="676" type="curve"/>
      <point x="444" y="631"/>
      <point x="385" y="618"/>
      <point x="385" y="618" type="curve"/>
      <point x="337" y="682" type="line" name="n26"/>
      <point x="278" y="681"/>
      <point x="233" y="629"/>
      <point x="214" y="537" type="curve" smooth="yes"/>
      <point x="160" y="272" type="line"/>
      <point x="322" y="439" type="line" smooth="yes"/>
      <point x="360" y="478"/>
      <point x="382" y="494" name="n33"/>
      <point x="417" y="494" type="curve" smooth="yes"/>
      <point x="462" y="494"/>
      <point x="483" y="465"/>
      <point x="482" y="440" type="curve"/>
      <point x="482" y="417"/>
      <point x="462" y="390"/>
      <point x="415" y="374" type="curve"/>
      <point x="381" y="410" type="line"/>
      <point x="344" y="382"/>
      <point x="293" y="337"/>
      <point x="262" y="309" type="curve"/>
      <point x="280" y="275"/>
      <point x="302" y="203"/>
      <point x="332" y="149" type="curve" smooth="yes"/>
      <point x="362" y="93"/>
      <point x="400" y="42" name="hr02"/>
      <point x="435" y="42" type="curve" smooth="yes" name="n50"/>
      <point x="449" y="42"/>
      <point x="480" y="49"/>
      <point x="497" y="57" type="curve"/>
    </contour>
  </outline>
</glyph>
<glyph name="uni019C" format="2">
  <advance width="1073"/>
  <unicode hex="019C"/>
  <outline>
    <contour>
      <point x="278" y="602" type="curve" smooth="yes"/>
      <point x="201" y="218" type="line"/>
      <point x="184" y="129"/>
      <point x="236" y="67"/>
      <point x="325" y="67" type="curve" smooth="yes"/>
      <point x="365" y="67"/>
      <point x="426" y="93"/>
      <point x="468" y="113" type="curve"/>
      <point x="465" y="138"/>
      <point x="466" y="166"/>
      <point x="472" y="198" type="curve" smooth="yes"/>
      <point x="553" y="602" type="line" smooth="yes"/>
      <point x="555" y="612"/>
      <point x="550.002" y="623.034"/>
      <point x="536" y="624" type="curve" smooth="yes" name="n14"/>
      <point x="478" y="628" type="line"/>
      <point x="478" y="671" type="line" name="n16"/>
      <point x="740" y="671" type="line"/>
      <point x="740" y="628" type="line"/>
      <point x="679" y="624" type="line" smooth="yes"/>
      <point x="665" y="623"/>
      <point x="656" y="612"/>
      <point x="654" y="602" type="curve" smooth="yes"/>
      <point x="577" y="218" type="line"/>
      <point x="560" y="129"/>
      <point x="585" y="67"/>
      <point x="674" y="67" type="curve" smooth="yes" name="n26"/>
      <point x="741" y="67"/>
      <point x="776" y="97"/>
      <point x="837" y="138" type="curve"/>
      <point x="929" y="602" type="line" smooth="yes"/>
      <point x="931" y="612"/>
      <point x="926" y="623"/>
      <point x="912" y="624" type="curve" smooth="yes"/>
      <point x="854" y="628" type="line"/>
      <point x="854" y="671" type="line"/>
      <point x="1116" y="671" type="line"/>
      <point x="1116" y="628" type="line"/>
      <point x="1055" y="624" type="line" smooth="yes"/>
      <point x="1041" y="623"/>
      <point x="1032" y="612"/>
      <point x="1030" y="602" type="curve" smooth="yes"/>
      <point x="924" y="67" type="line"/>
      <point x="922" y="59"/>
      <point x="926" y="49"/>
      <point x="939" y="48" type="curve"/>
      <point x="939" y="48"/>
      <point x="984.956" y="44.0382"/>
      <point x="997" y="43" type="curve"/>
      <point x="997" y="0" type="line" name="n49"/>
      <point x="809" y="0" type="line"/>
      <point x="826" y="81" type="line"/>
      <point x="739" y="21"/>
      <point x="698" y="-16" name="hr02"/>
      <point x="618" y="-16" type="curve" smooth="yes" name="n54"/>
      <point x="551" y="-16"/>
      <point x="501" y="12"/>
      <point x="479" y="65" type="curve"/>
      <point x="404" y="15"/>
      <point x="342" y="-16"/>
      <point x="269" y="-16" type="curve" smooth="yes"/>
      <point x="171" y="-16"/>
      <point x="92" y="44"/>
      <point x="92" y="151" type="curve" smooth="yes"/>
      <point x="92" y="166"/>
      <point x="93" y="181"/>
      <point x="97" y="198" type="curve"/>
      <point x="177" y="602" type="line" smooth="yes"/>
      <point x="179" y="612"/>
      <point x="174" y="623"/>
      <point x="160" y="624" type="curve" smooth="yes"/>
      <point x="102" y="628" type="line"/>
      <point x="102" y="671" type="line"/>
      <point x="364" y="671" type="line"/>
      <point x="364" y="628" type="line"/>
      <point x="303" y="624" type="line" smooth="yes"/>
      <point x="289" y="623"/>
      <point x="280" y="612"/>
    </contour>
  </outline>
</glyph>
<glyph name="uni01A4" format="2">
  <advance width="607"/>
  <unicode hex="01A4"/>
  <outline>
    <contour>
      <point x="600" y="510.353" type="curve" smooth="yes" name="n00"/>
      <point x="600" y="349.856"/>
      <point x="469" y="250"/>
      <point x="290.927" y="250" type="curve" smooth="yes"/>
      <point x="228.575" y="250" type="line" name="n04"/>
      <point x="190" y="66" type="line" smooth="yes"/>
      <point x="189.377" y="63.0267"/>
      <point x="192.024" y="48.3473"/>
      <point x="209" y="47" type="curve" smooth="yes"/>
      <point x="272" y="42" type="line"/>
      <point x="272" y="0" type="line"/>
      <point x="12" y="0" type="line"/>
      <point x="12" y="42" type="line"/>
      <point x="59" y="47" type="line" smooth="yes"/>
      <point x="71.9652" y="48.3793"/>
      <point x="81.4314" y="53.9003"/>
      <point x="84" y="66" type="curve" smooth="yes"/>
      <point x="198" y="602.066" type="line" smooth="yes"/>
      <point x="198.535" y="604.577"/>
      <point x="196.274" y="623"/>
      <point x="182" y="623" type="curve" smooth="yes" name="n20"/>
      <point x="159" y="623" type="line" smooth="yes"/>
      <point x="124" y="623"/>
      <point x="109" y="615.025"/>
      <point x="95" y="599.075" type="curve"/>
      <point x="123" y="528.297" type="line"/>
      <point x="99" y="507.363"/>
      <point x="77" y="498.391"/>
      <point x="58.0102" y="498.391" type="curve" smooth="yes"/>
      <point x="27" y="498.391"/>
      <point x="9" y="522.316"/>
      <point x="9" y="559.2" type="curve" smooth="yes"/>
      <point x="9" y="644.447"/>
      <point x="104" y="671"/>
      <point x="180" y="671" type="curve" smooth="yes" name="n34"/>
      <point x="372" y="671" type="line" smooth="yes"/>
      <point x="535" y="671"/>
      <point x="600" y="603.063"/>
    </contour>
    <contour>
      <point x="496" y="492.45" type="curve" smooth="yes" name="n38"/>
      <point x="496" y="570.166"/>
      <point x="455" y="623"/>
      <point x="344.217" y="623" type="curve" smooth="yes"/>
      <point x="329" y="623"/>
      <point x="317" y="622.003"/>
      <point x="304.787" y="620.009" type="curve"/>
      <point x="241" y="304" type="line" name="n45"/>
      <point x="271.38" y="303.707" type="line" smooth="yes"/>
      <point x="406.031" y="302.408"/>
      <point x="496" y="377.336"/>
    </contour>
  </outline>
</glyph>
<glyph name="uni01A8" format="2">
  <advance width="368"/>
  <unicode hex="01A8"/>
  <outline>
    <contour>
      <point x="213" y="450" type="curve" smooth="yes" name="n00"/>
      <point x="201" y="450"/>
      <point x="177" y="440"/>
      <point x="173" y="437" type="curve"/>
      <point x="148" y="376" type="line"/>
      <point x="141" y="374"/>
      <point x="122" y="364"/>
      <point x="108" y="366" type="curve" smooth="yes"/>
      <point x="87" y="369"/>
      <point x="71" y="379"/>
      <point x="71" y="407" type="curve" smooth="yes"/>
      <point x="71" y="463"/>
      <point x="139" y="493"/>
      <point x="214" y="493" type="curve" smooth="yes" name="n13"/>
      <point x="306" y="493"/>
      <point x="360" y="459"/>
      <point x="360" y="392" type="curve" smooth="yes" name="n16"/>
      <point x="360" y="311"/>
      <point x="316" y="278"/>
      <point x="229" y="222" type="curve" smooth="yes"/>
      <point x="151" y="172"/>
      <point x="93" y="164"/>
      <point x="93" y="95" type="curve" smooth="yes" name="n22"/>
      <point x="93" y="61"/>
      <point x="121" y="33"/>
      <point x="166" y="33" type="curve" smooth="yes" name="n25"/>
      <point x="192" y="33"/>
      <point x="211" y="45"/>
      <point x="229" y="64" type="curve"/>
      <point x="244" y="134" type="line"/>
      <point x="250" y="138"/>
      <point x="270" y="144"/>
      <point x="292" y="144" type="curve" smooth="yes"/>
      <point x="314" y="144"/>
      <point x="337" y="125"/>
      <point x="337" y="92" type="curve" smooth="yes"/>
      <point x="337" y="30"/>
      <point x="244" y="-12"/>
      <point x="164" y="-12" type="curve" smooth="yes" name="n38"/>
      <point x="69" y="-12"/>
      <point x="14" y="22"/>
      <point x="14" y="95" type="curve" smooth="yes" name="n41"/>
      <point x="14" y="181"/>
      <point x="78" y="228"/>
      <point x="158" y="276" type="curve" smooth="yes"/>
      <point x="250" y="331"/>
      <point x="279" y="337"/>
      <point x="279" y="396" type="curve" smooth="yes" name="n47"/>
      <point x="279" y="426"/>
      <point x="246" y="450"/>
    </contour>
  </outline>
</glyph>
<glyph name="uni01B2" format="2">
  <advance width="703"/>
  <unicode hex="01B2"/>
  <outline>
    <contour>
      <point x="680" y="450" type="curve" smooth="yes" name="n00"/>
      <point x="680" y="191"/>
      <point x="519" y="-14"/>
      <point x="278" y="-14" type="curve" smooth="yes" name="n03"/>
      <point x="172" y="-14"/>
      <point x="79" y="43"/>
      <point x="79" y="160" type="curve" smooth="yes" name="n06"/>
      <point x="79" y="171"/>
      <point x="85" y="212"/>
      <point x="96" y="264" type="curve" smooth="yes"/>
      <point x="165" y="604" type="line" smooth="yes"/>
      <point x="167" y="615"/>
      <point x="163" y="623"/>
      <point x="146" y="624" type="curve"/>
      <point x="146" y="624"/>
      <point x="102.448" y="627.82"/>
      <point x="89" y="629" type="curve"/>
      <point x="89" y="671" type="line" name="n17"/>
      <point x="280" y="671" type="line"/>
      <point x="197" y="264" type="line"/>
      <point x="189" y="228"/>
      <point x="186" y="202"/>
      <point x="186" y="195" type="curve" smooth="yes" name="n22"/>
      <point x="186" y="104"/>
      <point x="248" y="57"/>
      <point x="324" y="57" type="curve" smooth="yes" name="n25"/>
      <point x="482" y="57"/>
      <point x="607" y="287"/>
      <point x="607" y="414" type="curve" smooth="yes" name="n28"/>
      <point x="607" y="491"/>
      <point x="575" y="549"/>
      <point x="561" y="563" type="curve" name="n31"/>
      <point x="458" y="563" type="line"/>
      <point x="458" y="563"/>
      <point x="437" y="585"/>
      <point x="437" y="611" type="curve" smooth="yes"/>
      <point x="437" y="655"/>
      <point x="485" y="687"/>
      <point x="535" y="687" type="curve" smooth="yes" name="n38"/>
      <point x="637" y="687"/>
      <point x="680" y="544"/>
    </contour>
  </outline>
</glyph>
<glyph name="uni01BD" format="2">
  <advance width="406"/>
  <unicode hex="01BD"/>
  <outline>
    <contour>
      <point x="201" y="416" type="curve"/>
      <point x="183" y="335" type="line"/>
      <point x="271" y="327"/>
      <point x="368" y="270"/>
      <point x="368" y="170" type="curve" smooth="yes" name="n04"/>
      <point x="368" y="53"/>
      <point x="247" y="-12"/>
      <point x="137" y="-12" type="curve" smooth="yes" name="n07"/>
      <point x="66" y="-12"/>
      <point x="7" y="23"/>
      <point x="7" y="81" type="curve" smooth="yes"/>
      <point x="7" y="113"/>
      <point x="41" y="141" name="hr01"/>
      <point x="65" y="141" type="curve" smooth="yes" name="n13"/>
      <point x="72" y="141"/>
      <point x="89" y="137"/>
      <point x="91" y="136" type="curve"/>
      <point x="93.1788" y="120.748"/>
      <point x="101.034" y="65.7594"/>
      <point x="103" y="52" type="curve"/>
      <point x="112" y="41"/>
      <point x="138" y="33" name="hr02"/>
      <point x="153" y="33" type="curve" smooth="yes" name="n22"/>
      <point x="203" y="33"/>
      <point x="273" y="68"/>
      <point x="273" y="153" type="curve" smooth="yes" name="n25"/>
      <point x="273" y="217"/>
      <point x="194" y="271"/>
      <point x="84" y="271" type="curve" name="n28"/>
      <point x="88.0811" y="290.089"/>
      <point x="111.601" y="400.099"/>
      <point x="115" y="416" type="curve"/>
      <point x="116" y="422"/>
      <point x="113" y="430"/>
      <point x="104" y="431" type="curve" name="n34"/>
      <point x="97.8559" y="431.429"/>
      <point x="67.4845" y="433.548"/>
      <point x="61" y="434" type="curve"/>
      <point x="62.2762" y="441.657"/>
      <point x="67.2134" y="471.28"/>
      <point x="69" y="482" type="curve" name="n40"/>
      <point x="116.128" y="482"/>
      <point x="335.998" y="482"/>
      <point x="417" y="482" type="curve"/>
      <point x="394" y="365" type="line"/>
      <point x="387.978" y="365"/>
      <point x="361.965" y="365"/>
      <point x="353" y="365" type="curve"/>
      <point x="356" y="417" type="line"/>
      <point x="356" y="424"/>
      <point x="353" y="431"/>
      <point x="347" y="431" type="curve" smooth="yes"/>
      <point x="218" y="431" type="line" smooth="yes"/>
      <point x="209" y="431"/>
      <point x="202" y="422"/>
    </contour>
  </outline>
</glyph>
<glyph name="uni01BF" format="2">
  <advance width="492"/>
  <unicode hex="01BF"/>
  <outline>
    <contour>
      <point x="156" y="-180" type="line"/>
      <point x="156" y="-218" type="line"/>
      <point x="-96" y="-218" type="line"/>
      <point x="-96" y="-180" type="line"/>
      <point x="-44" y="-175" type="line" smooth="yes"/>
      <point x="-31" y="-174"/>
      <point x="-22" y="-168"/>
      <point x="-20" y="-155" type="curve"/>
      <point x="93" y="425" type="line"/>
      <point x="9" y="434" type="line"/>
      <point x="9" y="463" type="line"/>
      <point x="160" y="494" type="line"/>
      <point x="199" y="494" type="line"/>
      <point x="187" y="432" type="line"/>
      <point x="222" y="463"/>
      <point x="275" y="494"/>
      <point x="331" y="494" type="curve" smooth="yes" name="n16"/>
      <point x="422" y="494"/>
      <point x="460" y="437"/>
      <point x="460" y="364" type="curve" smooth="yes" name="n19"/>
      <point x="460" y="157"/>
      <point x="251" y="-9"/>
      <point x="87" y="-87" type="curve"/>
      <point x="73" y="-155" type="line" smooth="yes"/>
      <point x="71" y="-166"/>
      <point x="75" y="-174"/>
      <point x="93" y="-175" type="curve" smooth="yes"/>
    </contour>
    <contour>
      <point x="176" y="375" type="curve"/>
      <point x="98" y="-28" type="line"/>
      <point x="223" y="38"/>
      <point x="358" y="188"/>
      <point x="358" y="345" type="curve" smooth="yes" name="n31"/>
      <point x="358" y="398"/>
      <point x="321" y="433"/>
      <point x="285" y="433" type="curve" smooth="yes" name="n34"/>
      <point x="256" y="433"/>
      <point x="218" y="408"/>
    </contour>
  </outline>
</glyph>
<glyph name="uni01C7" format="2">
  <advance width="985"/>
  <unicode hex="01C7"/>
  <outline>
    <contour>
      <point x="483" y="185" type="line"/>
      <point x="447" y="0" type="line" name="n01"/>
      <point x="-15" y="0" type="line"/>
      <point x="-15" y="42" type="line"/>
      <point x="-1.21767" y="43.1881"/>
      <point x="43" y="47"/>
      <point x="43" y="47" type="curve"/>
      <point x="56" y="48"/>
      <point x="65" y="54"/>
      <point x="67" y="66" type="curve" smooth="yes"/>
      <point x="171" y="604" type="line" smooth="yes"/>
      <point x="173" y="615"/>
      <point x="169" y="623"/>
      <point x="152" y="624" type="curve" name="n13"/>
      <point x="152" y="624"/>
      <point x="109.786" y="627.769"/>
      <point x="96" y="629" type="curve"/>
      <point x="96" y="671" type="line" name="n17"/>
      <point x="356" y="671" type="line"/>
      <point x="356" y="629" type="line"/>
      <point x="341.006" y="627.729"/>
      <point x="297" y="624"/>
      <point x="297" y="624" type="curve"/>
      <point x="282" y="623"/>
      <point x="274" y="614"/>
      <point x="272" y="604" type="curve" smooth="yes"/>
      <point x="166" y="50" type="line" name="hr01"/>
      <point x="363" y="50" type="line" smooth="yes" name="n27"/>
      <point x="376" y="50"/>
      <point x="384.221" y="57.9285"/>
      <point x="388" y="70" type="curve" smooth="yes"/>
      <point x="424" y="185" type="line" name="n31"/>
    </contour>
    <contour>
      <point x="1025" y="629" type="line"/>
      <point x="968" y="624" type="line" smooth="yes"/>
      <point x="955" y="623"/>
      <point x="946" y="617"/>
      <point x="943" y="604" type="curve"/>
      <point x="879" y="256" type="line" smooth="yes"/>
      <point x="849" y="91"/>
      <point x="801" y="-16" name="hr03"/>
      <point x="630" y="-16" type="curve" smooth="yes" name="n40"/>
      <point x="551" y="-16"/>
      <point x="508" y="9"/>
      <point x="498" y="14" type="curve"/>
      <point x="531" y="185" type="line" name="hr04"/>
      <point x="597" y="185" type="line"/>
      <point x="597" y="63" type="line" smooth="yes"/>
      <point x="597" y="46"/>
      <point x="616" y="36" name="hr05"/>
      <point x="637" y="36" type="curve" smooth="yes" name="n49"/>
      <point x="722" y="36"/>
      <point x="752" y="113"/>
      <point x="776" y="247" type="curve" smooth="yes"/>
      <point x="842" y="604" type="line" smooth="yes"/>
      <point x="844" y="615"/>
      <point x="840" y="623"/>
      <point x="823" y="624" type="curve"/>
      <point x="823" y="624"/>
      <point x="778.791" y="627.811"/>
      <point x="765" y="629" type="curve"/>
      <point x="765" y="671" type="line"/>
      <point x="1025" y="671" type="line"/>
    </contour>
  </outline>
</glyph>
<glyph name="uni01CA" format="2">
  <advance width="1178"/>
  <unicode hex="01CA"/>
  <outline>
    <contour>
      <point x="755" y="629" type="line"/>
      <point x="698" y="624" type="line" smooth="yes"/>
      <point x="685.011" y="622.861"/>
      <point x="676" y="617"/>
      <point x="673" y="604" type="curve"/>
      <point x="555" y="0" type="line" name="n05"/>
      <point x="483" y="0" type="line"/>
      <point x="231" y="531" type="line"/>
      <point x="142" y="66" type="line" smooth="yes"/>
      <point x="140" y="56"/>
      <point x="144" y="48"/>
      <point x="162" y="47" type="curve"/>
      <point x="162" y="47"/>
      <point x="203.978" y="43.2519"/>
      <point x="218" y="42" type="curve"/>
      <point x="218" y="0" type="line"/>
      <point x="-14" y="0" type="line"/>
      <point x="-14" y="42" type="line"/>
      <point x="0.0250099" y="43.2303"/>
      <point x="43" y="47"/>
      <point x="43" y="47" type="curve"/>
      <point x="56" y="48"/>
      <point x="65" y="54"/>
      <point x="68" y="66" type="curve"/>
      <point x="171" y="604" type="line" smooth="yes"/>
      <point x="173" y="615"/>
      <point x="169" y="623"/>
      <point x="152" y="624" type="curve" name="n27"/>
      <point x="152" y="624"/>
      <point x="109.779" y="627.77"/>
      <point x="96" y="629" type="curve"/>
      <point x="96" y="671" type="line" name="n31"/>
      <point x="289" y="671" type="line"/>
      <point x="289" y="645" type="line"/>
      <point x="514" y="168" type="line"/>
      <point x="599" y="604" type="line" smooth="yes"/>
      <point x="601" y="615"/>
      <point x="597" y="623"/>
      <point x="580" y="624" type="curve"/>
      <point x="580" y="624"/>
      <point x="536.529" y="627.813"/>
      <point x="523" y="629" type="curve"/>
      <point x="523" y="671" type="line"/>
      <point x="755" y="671" type="line"/>
    </contour>
    <contour>
      <point x="1218" y="629" type="line"/>
      <point x="1161" y="624" type="line" smooth="yes"/>
      <point x="1148" y="623"/>
      <point x="1139" y="617"/>
      <point x="1136" y="604" type="curve"/>
      <point x="1072" y="256" type="line" smooth="yes"/>
      <point x="1042" y="91"/>
      <point x="994" y="-16" name="hr01"/>
      <point x="823" y="-16" type="curve" smooth="yes" name="n52"/>
      <point x="744" y="-16"/>
      <point x="701" y="9"/>
      <point x="691" y="14" type="curve"/>
      <point x="724" y="185" type="line" name="hr02"/>
      <point x="790" y="185" type="line" name="n57"/>
      <point x="790" y="63" type="line" smooth="yes"/>
      <point x="790" y="46"/>
      <point x="809" y="36" name="hr03"/>
      <point x="830" y="36" type="curve" smooth="yes" name="n61"/>
      <point x="915" y="36"/>
      <point x="945" y="113"/>
      <point x="969" y="247" type="curve" smooth="yes"/>
      <point x="1035" y="604" type="line" smooth="yes"/>
      <point x="1037" y="615"/>
      <point x="1033" y="623"/>
      <point x="1016" y="624" type="curve"/>
      <point x="1016" y="624"/>
      <point x="971.791" y="627.811"/>
      <point x="958" y="629" type="curve"/>
      <point x="958" y="671" type="line"/>
      <point x="1218" y="671" type="line"/>
    </contour>
  </outline>
</glyph>
<glyph name="uni01DE" format="2">
  <advance width="672"/>
  <unicode hex="01DE"/>
  <outline>
    <contour>
      <point x="626" y="0" type="line" name="n00"/>
      <point x="391" y="0" type="line"/>
      <point x="391" y="42" type="line"/>
      <point x="401.485" y="43.1397"/>
      <point x="437" y="47"/>
      <point x="437" y="47" type="curve"/>
      <point x="452" y="49"/>
      <point x="457.735" y="54.9551"/>
      <point x="456" y="66" type="curve" smooth="yes"/>
      <point x="426" y="257" type="line" name="n09"/>
      <point x="199" y="257" type="line"/>
      <point x="97" y="66" type="line" smooth="yes"/>
      <point x="90" y="53"/>
      <point x="97" y="49"/>
      <point x="116" y="47" type="curve"/>
      <point x="116" y="47"/>
      <point x="150.959" y="43.2002"/>
      <point x="162" y="42" type="curve"/>
      <point x="162" y="0" type="line"/>
      <point x="-53" y="0" type="line"/>
      <point x="-53" y="42" type="line"/>
      <point x="3" y="48" type="line"/>
      <point x="372" y="687" type="line" name="n22"/>
      <point x="452" y="687" type="line"/>
      <point x="560" y="66" type="line" smooth="yes"/>
      <point x="562" y="53"/>
      <point x="566" y="48"/>
      <point x="580" y="47" type="curve"/>
      <point x="580" y="47"/>
      <point x="614.996" y="43.1961"/>
      <point x="626" y="42" type="curve"/>
    </contour>
    <contour>
      <point x="417" y="304" type="line" name="n31"/>
      <point x="374" y="564" type="line"/>
      <point x="226" y="304" type="line"/>
    </contour>
    <contour>
      <point x="588" y="836" type="curve" smooth="yes" name="n34"/>
      <point x="588" y="806"/>
      <point x="564" y="780"/>
      <point x="534" y="780" type="curve" smooth="yes" name="n37"/>
      <point x="504" y="780"/>
      <point x="479" y="806"/>
      <point x="479" y="836" type="curve" smooth="yes" name="n40"/>
      <point x="479" y="864"/>
      <point x="506" y="891"/>
      <point x="534" y="891" type="curve" smooth="yes" name="n43"/>
      <point x="564" y="891"/>
      <point x="588" y="866"/>
    </contour>
    <contour>
      <point x="381" y="836" type="curve" smooth="yes" name="n46"/>
      <point x="381" y="806"/>
      <point x="356" y="780"/>
      <point x="326" y="780" type="curve" smooth="yes"/>
      <point x="297" y="780"/>
      <point x="272" y="806"/>
      <point x="272" y="835" type="curve" smooth="yes" name="n52"/>
      <point x="272" y="864"/>
      <point x="297" y="891"/>
      <point x="326" y="891" type="curve" smooth="yes"/>
      <point x="356" y="891"/>
      <point x="381" y="866"/>
    </contour>
    <contour>
      <point x="605" y="1042" type="line" name="n58"/>
      <point x="592" y="977" type="line" name="n59"/>
      <point x="290" y="977" type="line"/>
      <point x="304" y="1042" type="line"/>
    </contour>
  </outline>
</glyph>
<glyph name="uni01E4" format="2">
  <advance width="687"/>
  <unicode hex="01E4"/>
  <outline>
    <contour>
      <point x="670" y="154" type="line" name="n00"/>
      <point x="573" y="154" type="line"/>
      <point x="548" y="23" type="line"/>
      <point x="528" y="18"/>
      <point x="415" y="-16"/>
      <point x="332" y="-16" type="curve" smooth="yes" name="n05"/>
      <point x="104" y="-16"/>
      <point x="48" y="156"/>
      <point x="48" y="268" type="curve" smooth="yes" name="n08"/>
      <point x="48" y="524"/>
      <point x="264" y="687"/>
      <point x="479" y="687" type="curve" smooth="yes" name="n11"/>
      <point x="544" y="687"/>
      <point x="588" y="677"/>
      <point x="665" y="653" type="curve"/>
      <point x="634" y="492" type="line"/>
      <point x="566" y="492" type="line"/>
      <point x="569" y="584" type="line"/>
      <point x="570" y="599"/>
      <point x="562" y="609"/>
      <point x="550" y="612" type="curve"/>
      <point x="545" y="614"/>
      <point x="515" y="633"/>
      <point x="467" y="633" type="curve" smooth="yes" name="n23"/>
      <point x="317" y="633"/>
      <point x="158" y="483"/>
      <point x="158" y="252" type="curve" smooth="yes" name="n26"/>
      <point x="158" y="91"/>
      <point x="280" y="37"/>
      <point x="352" y="37" type="curve" smooth="yes" name="n29"/>
      <point x="392" y="37"/>
      <point x="437" y="50"/>
      <point x="453" y="54" type="curve"/>
      <point x="472" y="154" type="line"/>
      <point x="346" y="154" type="line"/>
      <point x="346" y="204" type="line"/>
      <point x="481" y="204" type="line"/>
      <point x="492" y="258" type="line" smooth="yes"/>
      <point x="494" y="269"/>
      <point x="490" y="276"/>
      <point x="472" y="277" type="curve"/>
      <point x="472" y="277"/>
      <point x="430.261" y="280.794"/>
      <point x="417" y="282" type="curve"/>
      <point x="417" y="324" type="line" name="hr01"/>
      <point x="675" y="324" type="line" name="n45"/>
      <point x="675" y="282" type="line"/>
      <point x="618" y="277" type="line" smooth="yes"/>
      <point x="605" y="276"/>
      <point x="596" y="271"/>
      <point x="593" y="258" type="curve"/>
      <point x="583" y="204" type="line" name="hr02"/>
      <point x="670" y="204" type="line" name="n52"/>
    </contour>
  </outline>
</glyph>
<glyph name="kcaron" format="2">
  <advance width="508"/>
  <unicode hex="01E9"/>
  <outline>
    <contour>
      <point x="497" y="23" type="line"/>
      <point x="464" y="6"/>
      <point x="405" y="-12"/>
      <point x="373" y="-12" type="curve" smooth="yes" name="n03"/>
      <point x="341" y="-12"/>
      <point x="309" y="11"/>
      <point x="293" y="35" type="curve" smooth="yes"/>
      <point x="266" y="76"/>
      <point x="213" y="200"/>
      <point x="192" y="244" type="curve"/>
      <point x="146" y="203" type="line"/>
      <point x="105" y="0" type="line" name="n11"/>
      <point x="13" y="0" type="line"/>
      <point x="146" y="668" type="line"/>
      <point x="58" y="677" type="line"/>
      <point x="58" y="707" type="line"/>
      <point x="213" y="737" type="line"/>
      <point x="253" y="737" type="line"/>
      <point x="160" y="272" type="line"/>
      <point x="322" y="439" type="line" smooth="yes"/>
      <point x="360" y="478"/>
      <point x="382" y="494" name="n21"/>
      <point x="417" y="494" type="curve" smooth="yes"/>
      <point x="462" y="494"/>
      <point x="483" y="465"/>
      <point x="482" y="440" type="curve"/>
      <point x="482" y="417"/>
      <point x="462" y="390"/>
      <point x="415" y="374" type="curve"/>
      <point x="381" y="410" type="line"/>
      <point x="344" y="382"/>
      <point x="293" y="337"/>
      <point x="262" y="309" type="curve"/>
      <point x="280" y="275"/>
      <point x="302" y="203"/>
      <point x="332" y="149" type="curve" smooth="yes"/>
      <point x="362" y="93"/>
      <point x="400" y="42" name="hr02"/>
      <point x="435" y="42" type="curve" smooth="yes" name="n38"/>
      <point x="449" y="42"/>
      <point x="480" y="49"/>
      <point x="497" y="57" type="curve"/>
    </contour>
    <contour>
      <point x="557" y="935" type="line" name="n42"/>
      <point x="391" y="766" type="line"/>
      <point x="312" y="766" type="line"/>
      <point x="214" y="935" type="line"/>
      <point x="284" y="935" type="line"/>
      <point x="367" y="843" type="line"/>
      <point x="486" y="935" type="line"/>
    </contour>
  </outline>
</glyph>
<glyph name="uni01F1" format="2">
  <advance width="1233"/>
  <unicode hex="01F1"/>
  <outline>
    <contour>
      <point x="653" y="415" type="curve" smooth="yes" name="n00"/>
      <point x="653" y="169"/>
      <point x="476" y="0"/>
      <point x="220" y="0" type="curve" smooth="yes"/>
      <point x="-15" y="0" type="line"/>
      <point x="-15" y="42" type="line"/>
      <point x="0.0252198" y="43.2117"/>
      <point x="47" y="47"/>
      <point x="47" y="47" type="curve"/>
      <point x="60" y="48"/>
      <point x="64" y="54"/>
      <point x="67" y="66" type="curve"/>
      <point x="171" y="604" type="line" smooth="yes"/>
      <point x="173" y="615"/>
      <point x="169" y="623"/>
      <point x="151" y="624" type="curve"/>
      <point x="151" y="624"/>
      <point x="108.543" y="627.791"/>
      <point x="95" y="629" type="curve"/>
      <point x="95" y="671" type="line"/>
      <point x="334" y="671" type="line" smooth="yes" name="n20"/>
      <point x="516" y="671"/>
      <point x="653" y="605"/>
    </contour>
    <contour>
      <point x="545" y="424" type="curve" smooth="yes" name="n23"/>
      <point x="545" y="591"/>
      <point x="435" y="617"/>
      <point x="311" y="621" type="curve" name="n26"/>
      <point x="275" y="621" type="line" name="hr01"/>
      <point x="165" y="52" type="line"/>
      <point x="238" y="52" type="line"/>
      <point x="440" y="54"/>
      <point x="545" y="234"/>
    </contour>
    <contour>
      <point x="1266" y="671" type="line"/>
      <point x="1257" y="626" type="line"/>
      <point x="786" y="53" type="line"/>
      <point x="1058" y="53" type="line" smooth="yes" name="n35"/>
      <point x="1072" y="53"/>
      <point x="1079.23" y="58.9356"/>
      <point x="1083" y="73" type="curve" smooth="yes"/>
      <point x="1113" y="185" type="line" name="n39"/>
      <point x="1181" y="185" type="line"/>
      <point x="1146" y="0" type="line" name="n41"/>
      <point x="651" y="0" type="line"/>
      <point x="660" y="44" type="line"/>
      <point x="1129" y="619" type="line"/>
      <point x="895" y="619" type="line" smooth="yes" name="n45"/>
      <point x="881" y="619"/>
      <point x="875" y="613"/>
      <point x="871" y="600" type="curve" smooth="yes"/>
      <point x="844" y="512" type="line"/>
      <point x="775" y="512" type="line" name="n50"/>
      <point x="807" y="671" type="line" name="n51"/>
    </contour>
  </outline>
</glyph>
<glyph name="uni01F3" format="2">
  <advance width="970"/>
  <unicode hex="01F3"/>
  <outline>
    <contour>
      <point x="529" y="737" type="line" name="n00"/>
      <point x="415" y="86" type="line" smooth="yes"/>
      <point x="408.505" y="48.9081"/>
      <point x="442" y="40"/>
      <point x="451" y="40" type="curve" smooth="yes"/>
      <point x="461" y="40"/>
      <point x="514" y="57"/>
      <point x="523" y="59" type="curve"/>
      <point x="523" y="22" type="line"/>
      <point x="507" y="16"/>
      <point x="433" y="-12"/>
      <point x="392" y="-12" type="curve" smooth="yes"/>
      <point x="331" y="-12"/>
      <point x="317" y="19"/>
      <point x="317" y="63" type="curve"/>
      <point x="282" y="26"/>
      <point x="231" y="-12"/>
      <point x="175" y="-12" type="curve" smooth="yes" name="n17"/>
      <point x="63" y="-12"/>
      <point x="32" y="83"/>
      <point x="32" y="167" type="curve" smooth="yes" name="n20"/>
      <point x="32" y="326"/>
      <point x="138" y="494"/>
      <point x="315" y="494" type="curve" smooth="yes" name="n23"/>
      <point x="345" y="494"/>
      <point x="373" y="481"/>
      <point x="390" y="475" type="curve"/>
      <point x="424" y="668" type="line"/>
      <point x="333" y="677" type="line"/>
      <point x="333" y="707" type="line"/>
      <point x="488" y="737" type="line"/>
    </contour>
    <contour>
      <point x="376" y="394" type="line" smooth="yes"/>
      <point x="377" y="400"/>
      <point x="339" y="449" name="hr01"/>
      <point x="313" y="449" type="curve" smooth="yes" name="n34"/>
      <point x="216" y="449"/>
      <point x="129" y="329"/>
      <point x="129" y="173" type="curve" smooth="yes" name="n37"/>
      <point x="129" y="87"/>
      <point x="168" y="49"/>
      <point x="207" y="49" type="curve" smooth="yes" name="n40"/>
      <point x="243" y="49"/>
      <point x="294" y="89"/>
      <point x="330" y="131" type="curve"/>
    </contour>
    <contour>
      <point x="976" y="468" type="line"/>
      <point x="637" y="71" type="line"/>
      <point x="721" y="93" type="line"/>
      <point x="748" y="83"/>
      <point x="795" y="59"/>
      <point x="822" y="59" type="curve" smooth="yes"/>
      <point x="850" y="59"/>
      <point x="864" y="78"/>
      <point x="875" y="92" type="curve"/>
      <point x="820" y="153" type="line"/>
      <point x="833" y="177"/>
      <point x="858" y="191"/>
      <point x="876" y="191" type="curve" smooth="yes"/>
      <point x="912" y="191"/>
      <point x="933" y="158"/>
      <point x="933" y="129" type="curve" smooth="yes"/>
      <point x="933" y="48"/>
      <point x="853" y="-12"/>
      <point x="788" y="-12" type="curve" smooth="yes"/>
      <point x="727" y="-12"/>
      <point x="679" y="31"/>
      <point x="630" y="31" type="curve" smooth="yes"/>
      <point x="625" y="31"/>
      <point x="613" y="30"/>
      <point x="604" y="21" type="curve"/>
      <point x="579" y="-26" type="line"/>
      <point x="510" y="11" type="line"/>
      <point x="849" y="408" type="line"/>
      <point x="761" y="389" type="line"/>
      <point x="734" y="404"/>
      <point x="703" y="418" name="hr02"/>
      <point x="676" y="418" type="curve" smooth="yes" name="n75"/>
      <point x="659" y="418"/>
      <point x="633" y="407"/>
      <point x="622" y="389" type="curve"/>
      <point x="675" y="325" type="line"/>
      <point x="670" y="317"/>
      <point x="648" y="292" name="hr03"/>
      <point x="620" y="292" type="curve" smooth="yes" name="n82"/>
      <point x="582" y="292"/>
      <point x="565" y="326"/>
      <point x="565" y="351" type="curve" smooth="yes"/>
      <point x="565" y="412"/>
      <point x="618" y="494"/>
      <point x="706" y="494" type="curve" smooth="yes" name="n88"/>
      <point x="766" y="494"/>
      <point x="816" y="444"/>
      <point x="856" y="444" type="curve" smooth="yes"/>
      <point x="860" y="444"/>
      <point x="867" y="445"/>
      <point x="879" y="451" type="curve"/>
      <point x="901" y="507" type="line"/>
    </contour>
  </outline>
</glyph>
<glyph name="gacute" format="2">
  <advance width="439"/>
  <unicode hex="01F5"/>
  <outline>
    <contour>
      <point x="485" y="421" type="line" name="n00"/>
      <point x="393" y="421" type="line"/>
      <point x="399" y="406"/>
      <point x="406" y="381"/>
      <point x="406" y="354" type="curve" smooth="yes" name="n04"/>
      <point x="406" y="227"/>
      <point x="305" y="163"/>
      <point x="189" y="163" type="curve" name="n07"/>
      <point x="180" y="143"/>
      <point x="175" y="114"/>
      <point x="178" y="103" type="curve"/>
      <point x="312" y="42" type="line" smooth="yes"/>
      <point x="373" y="14"/>
      <point x="414" y="-10" name="hr01"/>
      <point x="414" y="-68" type="curve" smooth="yes" name="n14"/>
      <point x="414" y="-154"/>
      <point x="288" y="-229"/>
      <point x="161" y="-229" type="curve" smooth="yes" name="n17"/>
      <point x="30" y="-229"/>
      <point x="-31" y="-159"/>
      <point x="-31" y="-83" type="curve" smooth="yes" name="n20"/>
      <point x="-31" y="-15"/>
      <point x="29" y="31"/>
      <point x="102" y="55" type="curve"/>
      <point x="96" y="86"/>
      <point x="114" y="145"/>
      <point x="141" y="172" type="curve"/>
      <point x="88" y="195"/>
      <point x="48" y="232" name="hr02"/>
      <point x="48" y="296" type="curve" smooth="yes" name="n29"/>
      <point x="48" y="393"/>
      <point x="123" y="494"/>
      <point x="250" y="494" type="curve" smooth="yes" name="n32"/>
      <point x="298" y="494"/>
      <point x="337" y="475"/>
      <point x="349" y="468" type="curve" name="hr03"/>
      <point x="485" y="468" type="line" name="n36"/>
    </contour>
    <contour>
      <point x="310" y="359" type="curve" smooth="yes" name="n37"/>
      <point x="310" y="408"/>
      <point x="292" y="452" name="hr04"/>
      <point x="252" y="452" type="curve" smooth="yes" name="n40"/>
      <point x="204" y="452"/>
      <point x="144" y="377"/>
      <point x="144" y="283" type="curve" smooth="yes" name="n43"/>
      <point x="144" y="235"/>
      <point x="166" y="200"/>
      <point x="201" y="200" type="curve" smooth="yes" name="n46"/>
      <point x="268" y="200"/>
      <point x="310" y="296"/>
    </contour>
    <contour>
      <point x="321" y="-88" type="curve" smooth="yes" name="n49"/>
      <point x="321" y="-64" name="hr05"/>
      <point x="309" y="-44"/>
      <point x="270" y="-26" type="curve" smooth="yes"/>
      <point x="145" y="31" type="line"/>
      <point x="81" y="15"/>
      <point x="63" y="-26"/>
      <point x="63" y="-66" type="curve" smooth="yes" name="n56"/>
      <point x="63" y="-112"/>
      <point x="102" y="-183"/>
      <point x="187" y="-183" type="curve" smooth="yes" name="n59"/>
      <point x="283" y="-183"/>
      <point x="321" y="-121"/>
    </contour>
    <contour>
      <point x="446" y="689" type="curve" smooth="yes"/>
      <point x="446" y="670"/>
      <point x="437" y="658"/>
      <point x="422" y="648" type="curve" smooth="yes"/>
      <point x="272" y="551" type="line"/>
      <point x="202" y="551" type="line"/>
      <point x="338" y="707" type="line" smooth="yes"/>
      <point x="351" y="722"/>
      <point x="365" y="732" name="n70"/>
      <point x="395" y="732" type="curve" smooth="yes"/>
      <point x="430" y="732"/>
      <point x="446" y="709"/>
    </contour>
  </outline>
</glyph>
<glyph name="uni021C" format="2">
  <advance width="517"/>
  <unicode hex="021C"/>
  <outline>
    <contour>
      <point x="513" y="520" type="curve" smooth="yes" name="n00"/>
      <point x="513" y="441"/>
      <point x="454" y="377"/>
      <point x="355" y="322" type="curve"/>
      <point x="417" y="302"/>
      <point x="462" y="252" name="hr01"/>
      <point x="462" y="166" type="curve" smooth="yes" name="n06"/>
      <point x="462" y="16"/>
      <point x="198" y="-114"/>
      <point x="-19" y="-161" type="curve"/>
      <point x="-7" y="-102" type="line"/>
      <point x="161" y="-55"/>
      <point x="353" y="43"/>
      <point x="353" y="168" type="curve" smooth="yes" name="n13"/>
      <point x="353" y="234"/>
      <point x="317" y="273"/>
      <point x="270" y="280" type="curve"/>
      <point x="225" y="261"/>
      <point x="173" y="244"/>
      <point x="119" y="227" type="curve"/>
      <point x="130" y="286" type="line"/>
      <point x="256" y="326"/>
      <point x="407" y="407" name="hr02"/>
      <point x="407" y="522" type="curve" smooth="yes" name="n23"/>
      <point x="407" y="608"/>
      <point x="354" y="636"/>
      <point x="299" y="636" type="curve" smooth="yes" name="n26"/>
      <point x="255" y="636"/>
      <point x="208" y="619"/>
      <point x="179" y="588" type="curve"/>
      <point x="142" y="498" type="line"/>
      <point x="83" y="498" type="line"/>
      <point x="111" y="637" type="line"/>
      <point x="203" y="679"/>
      <point x="268" y="687"/>
      <point x="332" y="687" type="curve" smooth="yes" name="n35"/>
      <point x="427" y="687"/>
      <point x="513" y="642"/>
    </contour>
  </outline>
</glyph>
<glyph name="uni0239" format="2">
  <advance width="786"/>
  <unicode hex="0239"/>
  <outline>
    <contour>
      <point x="491.688" y="494" type="line"/>
      <point x="479.665" y="432" type="line"/>
      <point x="514.155" y="456"/>
      <point x="567.833" y="494"/>
      <point x="628.259" y="494" type="curve" smooth="yes" name="n04"/>
      <point x="724.303" y="494"/>
      <point x="754" y="398"/>
      <point x="754" y="314.426" type="curve" smooth="yes" name="n07"/>
      <point x="754" y="145"/>
      <point x="631.954" y="-12"/>
      <point x="468.644" y="-12" type="curve" smooth="yes" name="n10"/>
      <point x="438.587" y="-12"/>
      <point x="413.54" y="-1"/>
      <point x="397.51" y="6" type="curve"/>
      <point x="391.466" y="-24.3494"/>
      <point x="372.014" y="-122.032"/>
      <point x="365.449" y="-155" type="curve"/>
      <point x="365" y="-170.192"/>
      <point x="370.092" y="-173.781"/>
      <point x="385.487" y="-175" type="curve" smooth="yes"/>
      <point x="398.575" y="-176.037"/>
      <point x="440.393" y="-179.349"/>
      <point x="448.606" y="-180" type="curve"/>
      <point x="448.606" y="-218" type="line"/>
      <point x="193.122" y="-218" type="line"/>
      <point x="193.122" y="-180" type="line"/>
      <point x="198.156" y="-179.526"/>
      <point x="235.191" y="-176.039"/>
      <point x="246.222" y="-175" type="curve" smooth="yes"/>
      <point x="259.247" y="-174"/>
      <point x="268.685" y="-168.09"/>
      <point x="271.27" y="-155" type="curve" smooth="yes"/>
      <point x="277.71" y="-122.393"/>
      <point x="304.586" y="13.6993"/>
      <point x="312.348" y="53" type="curve"/>
      <point x="266.26" y="15"/>
      <point x="217.167" y="-12"/>
      <point x="166.611" y="-12" type="curve" smooth="yes" name="n37"/>
      <point x="90" y="-12"/>
      <point x="32" y="50"/>
      <point x="32" y="163.647" type="curve" smooth="yes" name="n40"/>
      <point x="32" y="323"/>
      <point x="146.032" y="494"/>
      <point x="307.583" y="494" type="curve" smooth="yes" name="n43"/>
      <point x="355.43" y="494"/>
      <point x="389.494" y="479"/>
      <point x="407.529" y="465" type="curve"/>
      <point x="431.574" y="494" type="line"/>
    </contour>
    <contour>
      <point x="377.471" y="388" type="line" smooth="yes"/>
      <point x="379.807" y="399.87"/>
      <point x="345.382" y="448" name="hr01"/>
      <point x="326.374" y="448" type="curve" smooth="yes" name="n51"/>
      <point x="217.167" y="448"/>
      <point x="129" y="329"/>
      <point x="129" y="173" type="curve" smooth="yes" name="n54"/>
      <point x="129" y="97"/>
      <point x="160.059" y="49"/>
      <point x="210.154" y="49" type="curve" smooth="yes" name="n57"/>
      <point x="251.232" y="49"/>
      <point x="288.302" y="82"/>
      <point x="323.369" y="113" type="curve"/>
    </contour>
    <contour>
      <point x="656" y="297.452" type="curve" smooth="yes" name="n61"/>
      <point x="656" y="364"/>
      <point x="631.954" y="433" name="hr02"/>
      <point x="576.752" y="433" type="curve" smooth="yes" name="n64"/>
      <point x="529.76" y="433"/>
      <point x="479" y="385"/>
      <point x="468.644" y="375" type="curve"/>
      <point x="408.53" y="65" type="line"/>
      <point x="420.341" y="57"/>
      <point x="453.616" y="35"/>
      <point x="493.369" y="35" type="curve" smooth="yes" name="n71"/>
      <point x="597.89" y="35"/>
      <point x="656" y="194"/>
    </contour>
  </outline>
</glyph>
<glyph name="uni023E" format="2">
  <advance width="585"/>
  <unicode hex="023E"/>
  <outline>
    <contour>
      <point x="589" y="718" type="line"/>
      <point x="65" y="-80" type="line"/>
      <point x="22" y="-48" type="line"/>
      <point x="538" y="749" type="line"/>
    </contour>
    <contour>
      <point x="649" y="671" type="line"/>
      <point x="618" y="518" type="line"/>
      <point x="555" y="518" type="line"/>
      <point x="559" y="606" type="line" smooth="yes"/>
      <point x="560" y="620"/>
      <point x="554" y="626" name="hr01"/>
      <point x="540" y="626" type="curve" smooth="yes"/>
      <point x="411" y="626" type="line"/>
      <point x="307" y="66" type="line" smooth="yes"/>
      <point x="305" y="56"/>
      <point x="309" y="48"/>
      <point x="327" y="47" type="curve"/>
      <point x="327" y="47"/>
      <point x="370.702" y="43.1665"/>
      <point x="384" y="42" type="curve"/>
      <point x="384" y="0" type="line" name="n19"/>
      <point x="124" y="0" type="line"/>
      <point x="124" y="42" type="line"/>
      <point x="137.713" y="43.1822"/>
      <point x="182" y="47"/>
      <point x="182" y="47" type="curve"/>
      <point x="194" y="48"/>
      <point x="204" y="54"/>
      <point x="206" y="66" type="curve" smooth="yes"/>
      <point x="310" y="626" type="line"/>
      <point x="185" y="626" type="line" smooth="yes" name="n29"/>
      <point x="173" y="626"/>
      <point x="164" y="619"/>
      <point x="160" y="606" type="curve"/>
      <point x="129" y="518" type="line" name="hr02"/>
      <point x="66" y="518" type="line" name="n34"/>
      <point x="95" y="671" type="line" name="n35"/>
    </contour>
  </outline>
</glyph>
<glyph name="uni0244" format="2">
  <advance width="707"/>
  <unicode hex="0244"/>
  <outline>
    <contour>
      <point x="749" y="629" type="line"/>
      <point x="691" y="624" type="line" smooth="yes"/>
      <point x="679.003" y="622.966"/>
      <point x="669" y="617"/>
      <point x="667" y="604" type="curve"/>
      <point x="623" y="379" type="line" name="n05"/>
      <point x="710" y="379" type="line"/>
      <point x="698" y="323" type="line"/>
      <point x="612" y="323" type="line" name="n08"/>
      <point x="590" y="214" type="line" smooth="yes"/>
      <point x="562" y="69"/>
      <point x="470" y="-16"/>
      <point x="311" y="-16" type="curve" smooth="yes" name="n12"/>
      <point x="188" y="-16"/>
      <point x="92" y="32"/>
      <point x="92" y="159" type="curve" smooth="yes" name="n15"/>
      <point x="92" y="179"/>
      <point x="96" y="218"/>
      <point x="105" y="264" type="curve"/>
      <point x="118" y="323" type="line"/>
      <point x="26" y="323" type="line"/>
      <point x="38" y="379" type="line"/>
      <point x="129" y="379" type="line"/>
      <point x="175" y="604" type="line" smooth="yes"/>
      <point x="177" y="615"/>
      <point x="173" y="623"/>
      <point x="155" y="624" type="curve" name="n26"/>
      <point x="155" y="624"/>
      <point x="112.528" y="627.792"/>
      <point x="99" y="629" type="curve"/>
      <point x="99" y="671" type="line" name="n30"/>
      <point x="359" y="671" type="line"/>
      <point x="359" y="629" type="line"/>
      <point x="344.23" y="627.748"/>
      <point x="300" y="624"/>
      <point x="300" y="624" type="curve"/>
      <point x="288" y="623"/>
      <point x="278" y="617"/>
      <point x="276" y="604" type="curve"/>
      <point x="230" y="379" type="line"/>
      <point x="554" y="379" type="line"/>
      <point x="599" y="604" type="line" smooth="yes"/>
      <point x="601" y="615"/>
      <point x="597" y="623"/>
      <point x="579" y="624" type="curve"/>
      <point x="579" y="624"/>
      <point x="536.292" y="627.813"/>
      <point x="523" y="629" type="curve"/>
      <point x="523" y="671" type="line"/>
      <point x="749" y="671" type="line"/>
    </contour>
    <contour>
      <point x="543" y="323" type="line"/>
      <point x="219" y="323" type="line"/>
      <point x="207" y="264" type="line" smooth="yes"/>
      <point x="199" y="225"/>
      <point x="196" y="193"/>
      <point x="196" y="175" type="curve" smooth="yes" name="n55"/>
      <point x="196" y="91"/>
      <point x="251" y="49"/>
      <point x="337" y="49" type="curve" smooth="yes" name="n58"/>
      <point x="467" y="49"/>
      <point x="508" y="142"/>
      <point x="529" y="249" type="curve" smooth="yes"/>
    </contour>
  </outline>
</glyph>
<glyph name="uni024B" format="2">
  <advance width="521"/>
  <unicode hex="024B"/>
  <outline>
    <contour>
      <point x="539" y="-162.532" type="curve" smooth="yes"/>
      <point x="539" y="-209"/>
      <point x="486" y="-229" name="n02"/>
      <point x="442" y="-229" type="curve" smooth="yes"/>
      <point x="355" y="-229"/>
      <point x="285" y="-201"/>
      <point x="285" y="-107.406" type="curve" smooth="yes" name="n06"/>
      <point x="285" y="-86.5452"/>
      <point x="288.478" y="-58.3262"/>
      <point x="294.296" y="-30.7877" type="curve" smooth="yes"/>
      <point x="312" y="53" type="line"/>
      <point x="266" y="15"/>
      <point x="217" y="-12"/>
      <point x="166.51" y="-12" type="curve" smooth="yes" name="n13"/>
      <point x="90" y="-12"/>
      <point x="32" y="50"/>
      <point x="32" y="163.657" type="curve" smooth="yes" name="n16"/>
      <point x="32" y="323"/>
      <point x="146" y="494"/>
      <point x="307.244" y="494" type="curve" smooth="yes" name="n19"/>
      <point x="355" y="494"/>
      <point x="389" y="479"/>
      <point x="407" y="465" type="curve"/>
      <point x="431" y="494" type="line"/>
      <point x="491" y="494" type="line"/>
      <point x="386" y="-37" type="line" smooth="yes"/>
      <point x="381.922" y="-57.621"/>
      <point x="372" y="-112.945"/>
      <point x="372" y="-131.069" type="curve" smooth="yes" name="n28"/>
      <point x="372" y="-151"/>
      <point x="384" y="-165"/>
      <point x="408" y="-174" type="curve"/>
      <point x="503" y="-115" type="line"/>
      <point x="523" y="-119"/>
      <point x="539" y="-137"/>
    </contour>
    <contour>
      <point x="377" y="388" type="line" smooth="yes"/>
      <point x="379.189" y="399.146"/>
      <point x="341" y="448"/>
      <point x="326" y="448" type="curve" smooth="yes" name="n38"/>
      <point x="217" y="448"/>
      <point x="129" y="329"/>
      <point x="129" y="173" type="curve" smooth="yes" name="n41"/>
      <point x="129" y="97"/>
      <point x="160" y="49"/>
      <point x="210" y="49" type="curve" smooth="yes" name="n44"/>
      <point x="251" y="49"/>
      <point x="288" y="82"/>
      <point x="323" y="113" type="curve"/>
    </contour>
  </outline>
</glyph>
<glyph name="uni024C" format="2">
  <advance width="641"/>
  <unicode hex="024C"/>
  <outline>
    <contour>
      <point x="615" y="0" type="line" name="n00"/>
      <point x="588" y="-12"/>
      <point x="565" y="-16" name="hr01"/>
      <point x="542" y="-16" type="curve" smooth="yes" name="n03"/>
      <point x="421" y="-16"/>
      <point x="404" y="71"/>
      <point x="389" y="145" type="curve" smooth="yes"/>
      <point x="373" y="219"/>
      <point x="359" y="296"/>
      <point x="265" y="296" type="curve" smooth="yes" name="n09"/>
      <point x="248" y="296"/>
      <point x="213" y="295"/>
      <point x="213" y="295" type="curve"/>
      <point x="170" y="66" type="line" smooth="yes"/>
      <point x="168" y="56"/>
      <point x="172" y="48"/>
      <point x="189" y="47" type="curve"/>
      <point x="189" y="47"/>
      <point x="232.755" y="43.2281"/>
      <point x="247" y="42" type="curve"/>
      <point x="247" y="0" type="line" name="hr02"/>
      <point x="-13" y="0" type="line"/>
      <point x="-13" y="42" type="line"/>
      <point x="1.00958" y="43.2289"/>
      <point x="44" y="47"/>
      <point x="44" y="47" type="curve"/>
      <point x="57" y="48"/>
      <point x="66" y="54"/>
      <point x="69" y="66" type="curve"/>
      <point x="112" y="295" type="line"/>
      <point x="12" y="295" type="line"/>
      <point x="21" y="349" type="line"/>
      <point x="123" y="349" type="line" name="n32"/>
      <point x="171" y="604" type="line" smooth="yes"/>
      <point x="173.068" y="614.987"/>
      <point x="169" y="623"/>
      <point x="152" y="624" type="curve"/>
      <point x="152" y="624"/>
      <point x="109.543" y="627.791"/>
      <point x="96" y="629" type="curve"/>
      <point x="96" y="671" type="line"/>
      <point x="364" y="671" type="line" smooth="yes" name="n41"/>
      <point x="475" y="671"/>
      <point x="581" y="638"/>
      <point x="581" y="523" type="curve" smooth="yes" name="n44"/>
      <point x="581" y="415"/>
      <point x="489" y="348"/>
      <point x="377" y="317" type="curve"/>
      <point x="459" y="282"/>
      <point x="468" y="230"/>
      <point x="487" y="154" type="curve" smooth="yes"/>
      <point x="506" y="79"/>
      <point x="530" y="41" name="hr03"/>
      <point x="615" y="41" type="curve" name="n53"/>
    </contour>
    <contour>
      <point x="468" y="509" type="curve" smooth="yes" name="n54"/>
      <point x="468" y="606"/>
      <point x="374" y="624"/>
      <point x="297" y="621" type="curve" name="n57"/>
      <point x="292" y="621"/>
      <point x="281" y="620"/>
      <point x="275" y="620" type="curve"/>
      <point x="224" y="347" type="line"/>
      <point x="227.517" y="347"/>
      <point x="246" y="347"/>
      <point x="246" y="347" type="curve" name="n64"/>
      <point x="354" y="347"/>
      <point x="468" y="382"/>
    </contour>
  </outline>
</glyph>
<glyph name="uni024E" format="2">
  <advance width="672"/>
  <unicode hex="024E"/>
  <outline>
    <contour>
      <point x="719" y="629" type="line"/>
      <point x="663" y="625" type="line"/>
      <point x="653" y="624"/>
      <point x="642" y="615"/>
      <point x="637" y="610" type="curve"/>
      <point x="573" y="527" type="line"/>
      <point x="637" y="527" type="line" name="n06"/>
      <point x="637" y="477" type="line" name="n07"/>
      <point x="534" y="477" type="line"/>
      <point x="383" y="281" type="line"/>
      <point x="341" y="66" type="line"/>
      <point x="338" y="56"/>
      <point x="343" y="48"/>
      <point x="360" y="47" type="curve"/>
      <point x="360" y="47"/>
      <point x="402.221" y="43.2303"/>
      <point x="416" y="42" type="curve"/>
      <point x="416" y="0" type="line" name="n17"/>
      <point x="156" y="0" type="line"/>
      <point x="156" y="42" type="line"/>
      <point x="169.767" y="43.1868"/>
      <point x="214" y="47"/>
      <point x="214" y="47" type="curve"/>
      <point x="226" y="48"/>
      <point x="235" y="54"/>
      <point x="238" y="66" type="curve"/>
      <point x="279" y="272" type="line"/>
      <point x="211" y="477" type="line"/>
      <point x="113" y="477" type="line"/>
      <point x="113" y="527" type="line"/>
      <point x="194" y="527" type="line"/>
      <point x="167" y="610" type="line" smooth="yes"/>
      <point x="163" y="623"/>
      <point x="155" y="624"/>
      <point x="148" y="625" type="curve"/>
      <point x="148" y="625"/>
      <point x="104.887" y="628.079"/>
      <point x="92" y="629" type="curve"/>
      <point x="92" y="671" type="line"/>
      <point x="351" y="671" type="line"/>
      <point x="351" y="629" type="line"/>
      <point x="335.514" y="628.032"/>
      <point x="287" y="625"/>
      <point x="287" y="625" type="curve"/>
      <point x="276" y="624"/>
      <point x="269" y="616"/>
      <point x="273" y="605" type="curve"/>
      <point x="297" y="527" type="line"/>
      <point x="490" y="527" type="line"/>
      <point x="548" y="605" type="line"/>
      <point x="554" y="614"/>
      <point x="557" y="624"/>
      <point x="540" y="625" type="curve" smooth="yes"/>
      <point x="478" y="629" type="line"/>
      <point x="478" y="671" type="line"/>
      <point x="719" y="671" type="line"/>
    </contour>
    <contour>
      <point x="313" y="477" type="line"/>
      <point x="355" y="345" type="line"/>
      <point x="453" y="477" type="line"/>
    </contour>
  </outline>
</glyph>
<glyph name="uni024F" format="2">
  <advance width="497"/>
  <unicode hex="024F"/>
  <outline>
    <contour>
      <point x="524" y="444" type="line"/>
      <point x="474" y="413" type="line"/>
      <point x="466" y="406"/>
      <point x="451" y="383"/>
      <point x="435" y="358" type="curve"/>
      <point x="441.317" y="358"/>
      <point x="482.76" y="358"/>
      <point x="494" y="358" type="curve" name="n07"/>
      <point x="494" y="348.826"/>
      <point x="494" y="316.287"/>
      <point x="494" y="308" type="curve" name="n10"/>
      <point x="469.613" y="308"/>
      <point x="414.43" y="308"/>
      <point x="406" y="308" type="curve" name="n13"/>
      <point x="401" y="298"/>
      <point x="395" y="288"/>
      <point x="392" y="280" type="curve"/>
      <point x="364" y="216"/>
      <point x="315" y="92"/>
      <point x="251" y="-16" type="curve" smooth="yes"/>
      <point x="189" y="-122"/>
      <point x="109" y="-229"/>
      <point x="13" y="-229" type="curve" smooth="yes" name="n22"/>
      <point x="-60" y="-229"/>
      <point x="-80" y="-188"/>
      <point x="-80" y="-163" type="curve" smooth="yes"/>
      <point x="-80" y="-133"/>
      <point x="-51" y="-106"/>
      <point x="-11" y="-104" type="curve" name="n28"/>
      <point x="47" y="-162" type="line"/>
      <point x="89" y="-158"/>
      <point x="124" y="-105"/>
      <point x="192" y="18" type="curve"/>
      <point x="189" y="34"/>
      <point x="171" y="133"/>
      <point x="150" y="229" type="curve" smooth="yes"/>
      <point x="144" y="255"/>
      <point x="137" y="283"/>
      <point x="131" y="308" type="curve"/>
      <point x="9" y="308" type="line"/>
      <point x="9" y="358" type="line"/>
      <point x="18.0193" y="358"/>
      <point x="110.222" y="358"/>
      <point x="118" y="358" type="curve"/>
      <point x="107" y="399"/>
      <point x="98" y="427"/>
      <point x="93" y="428" type="curve"/>
      <point x="2" y="435" type="line"/>
      <point x="2" y="460" type="line"/>
      <point x="20" y="466"/>
      <point x="104" y="494" name="hr01"/>
      <point x="122" y="494" type="curve" smooth="yes"/>
      <point x="165" y="494"/>
      <point x="185" y="452"/>
      <point x="205" y="386" type="curve" smooth="yes"/>
      <point x="213" y="358" type="line" name="hr02"/>
      <point x="355" y="358" type="line"/>
      <point x="412" y="494" type="line" name="n57"/>
      <point x="414.555" y="494"/>
      <point x="434.377" y="494"/>
      <point x="441" y="494" type="curve"/>
      <point x="524" y="467" type="line"/>
    </contour>
    <contour>
      <point x="225" y="308" type="line"/>
      <point x="236" y="257"/>
      <point x="248" y="197"/>
      <point x="260" y="130" type="curve"/>
      <point x="334" y="308" type="line"/>
    </contour>
  </outline>
</glyph>
<glyph name="uni0250" format="2">
  <advance width="520"/>
  <unicode hex="0250"/>
  <outline>
    <contour>
      <point x="489" y="314" type="curve" smooth="yes" name="n00"/>
      <point x="489" y="160"/>
      <point x="387" y="-12"/>
      <point x="200" y="-12" type="curve" smooth="yes" name="n03"/>
      <point x="163" y="-12"/>
      <point x="129" y="6"/>
      <point x="111" y="23" type="curve"/>
      <point x="95" y="0" type="line" name="n07"/>
      <point x="28" y="0" type="line"/>
      <point x="33" y="15"/>
      <point x="44" y="47"/>
      <point x="47" y="57" type="curve"/>
      <point x="60" y="110"/>
      <point x="112" y="345"/>
      <point x="112" y="389" type="curve" smooth="yes"/>
      <point x="112" y="424"/>
      <point x="95" y="435"/>
      <point x="68" y="435" type="curve" smooth="yes"/>
      <point x="54" y="435"/>
      <point x="13" y="421"/>
      <point x="2" y="419" type="curve"/>
      <point x="2" y="455" type="line"/>
      <point x="18" y="461"/>
      <point x="93" y="494"/>
      <point x="132" y="494" type="curve" smooth="yes"/>
      <point x="181" y="494"/>
      <point x="198" y="470"/>
      <point x="202" y="426" type="curve"/>
      <point x="232" y="454"/>
      <point x="284" y="494"/>
      <point x="344" y="494" type="curve" smooth="yes" name="n30"/>
      <point x="462" y="494"/>
      <point x="489" y="387"/>
    </contour>
    <contour>
      <point x="390" y="309" type="curve" smooth="yes" name="n33"/>
      <point x="390" y="365"/>
      <point x="375" y="428"/>
      <point x="312" y="428" type="curve" smooth="yes" name="n36"/>
      <point x="266" y="428"/>
      <point x="216" y="380"/>
      <point x="202" y="366" type="curve"/>
      <point x="195.465" y="331.97"/>
      <point x="168.965" y="193.97"/>
      <point x="149" y="90" type="curve"/>
      <point x="148" y="83"/>
      <point x="174" y="36"/>
      <point x="186" y="36" type="curve" smooth="yes" name="n45"/>
      <point x="339" y="36"/>
      <point x="390" y="199"/>
    </contour>
  </outline>
</glyph>
<glyph name="uni0254" format="2">
  <advance width="435"/>
  <unicode hex="0254"/>
  <outline>
    <contour>
      <point x="403" y="309.147" type="curve" smooth="yes" name="n00"/>
      <point x="403" y="137.608"/>
      <point x="277.236" y="-12"/>
      <point x="137.917" y="-12" type="curve" smooth="yes" name="n03"/>
      <point x="74.6535" y="-12"/>
      <point x="32" y="18.8485"/>
      <point x="32" y="60.4092" type="curve" smooth="yes"/>
      <point x="32" y="94.3312"/>
      <point x="60.4152" y="116.927"/>
      <point x="109" y="123" type="curve"/>
      <point x="167" y="46" type="line" name="n10"/>
      <point x="243.96" y="49.5963"/>
      <point x="308" y="163.142"/>
      <point x="308" y="287.02" type="curve" smooth="yes" name="n13"/>
      <point x="308" y="378.071"/>
      <point x="273.404" y="429"/>
      <point x="216.596" y="429" type="curve" smooth="yes" name="n16"/>
      <point x="172.303" y="429"/>
      <point x="119.2" y="398.039"/>
      <point x="53" y="333" type="curve"/>
      <point x="53" y="396" type="line"/>
      <point x="120.282" y="461.641"/>
      <point x="185" y="494"/>
      <point x="250.308" y="494" type="curve" smooth="yes" name="n23"/>
      <point x="345.763" y="494"/>
      <point x="403" y="424.87"/>
    </contour>
  </outline>
</glyph>
<glyph name="uni025C" format="2">
  <advance width="429"/>
  <unicode hex="025C"/>
  <outline>
    <contour>
      <point x="397" y="382.912" type="curve" smooth="yes" name="n00"/>
      <point x="397" y="326.079"/>
      <point x="347.568" y="272.011"/>
      <point x="270" y="244" type="curve"/>
      <point x="341.483" y="233.64"/>
      <point x="374" y="201.94" name="hr01"/>
      <point x="374" y="144.592" type="curve" smooth="yes" name="n06"/>
      <point x="374" y="48.6523"/>
      <point x="282.989" y="-12"/>
      <point x="142" y="-12" type="curve" smooth="yes" name="n09"/>
      <point x="86.0588" y="-12"/>
      <point x="43.1292" y="8.55782"/>
      <point x="0" y="56" type="curve"/>
      <point x="0" y="120" type="line"/>
      <point x="52.6356" y="60.2789"/>
      <point x="98.6265" y="34"/>
      <point x="150.509" y="34" type="curve" smooth="yes" name="n16"/>
      <point x="222.58" y="34"/>
      <point x="275" y="82.0293"/>
      <point x="275" y="148.064" type="curve" smooth="yes" name="n19"/>
      <point x="275" y="195.085"/>
      <point x="248.931" y="217"/>
      <point x="193" y="217" type="curve" smooth="yes"/>
      <point x="168" y="217" type="line" name="n23"/>
      <point x="168" y="256" type="line" name="n24"/>
      <point x="243.155" y="256"/>
      <point x="300" y="306.879" name="hr02"/>
      <point x="300" y="374.145" type="curve" smooth="yes" name="n27"/>
      <point x="300" y="423.695"/>
      <point x="270.795" y="456"/>
      <point x="226" y="456" type="curve" smooth="yes" name="n30"/>
      <point x="202.358" y="456"/>
      <point x="180.714" y="446.095"/>
      <point x="167" y="429" type="curve"/>
      <point x="159" y="357" type="line"/>
      <point x="151.39" y="346.853"/>
      <point x="126.53" y="336"/>
      <point x="108.295" y="336" type="curve" smooth="yes"/>
      <point x="82.8464" y="336"/>
      <point x="59" y="357.136"/>
      <point x="59" y="388.794" type="curve" smooth="yes"/>
      <point x="59" y="446.258"/>
      <point x="137.572" y="494"/>
      <point x="237.213" y="494" type="curve" smooth="yes" name="n43"/>
      <point x="334.299" y="494"/>
      <point x="397" y="448.675"/>
    </contour>
  </outline>
</glyph>
<glyph name="uni0268" format="2">
  <advance width="266"/>
  <unicode hex="0268"/>
  <outline>
    <contour>
      <point x="259" y="641" type="curve" smooth="yes" name="n00"/>
      <point x="259" y="612"/>
      <point x="237" y="585"/>
      <point x="198" y="585" type="curve" smooth="yes" name="n03"/>
      <point x="157" y="585"/>
      <point x="136" y="610"/>
      <point x="136" y="641" type="curve" smooth="yes" name="n06"/>
      <point x="136" y="667"/>
      <point x="159" y="697"/>
      <point x="199" y="697" type="curve" smooth="yes" name="n09"/>
      <point x="237" y="697"/>
      <point x="259" y="669"/>
    </contour>
    <contour>
      <point x="263" y="29" type="line"/>
      <point x="248" y="22"/>
      <point x="172" y="-12"/>
      <point x="117" y="-12" type="curve" smooth="yes" name="n15"/>
      <point x="49" y="-12"/>
      <point x="39.4651" y="39.9114"/>
      <point x="48" y="86" type="curve" smooth="yes"/>
      <point x="73" y="221" type="line"/>
      <point x="6" y="221" type="line" name="n20"/>
      <point x="6" y="271" type="line" name="n21"/>
      <point x="83" y="271" type="line"/>
      <point x="112" y="425" type="line"/>
      <point x="26" y="434" type="line"/>
      <point x="26" y="463" type="line"/>
      <point x="177" y="494" type="line" name="n26"/>
      <point x="218" y="494" type="line"/>
      <point x="176" y="271" type="line"/>
      <point x="249" y="271" type="line"/>
      <point x="249" y="221" type="line"/>
      <point x="166" y="221" type="line"/>
      <point x="142" y="94" type="line" smooth="yes"/>
      <point x="137" y="67"/>
      <point x="154" y="43"/>
      <point x="181" y="43" type="curve" smooth="yes" name="n35"/>
      <point x="204" y="43"/>
      <point x="250" y="63"/>
      <point x="263" y="67" type="curve"/>
    </contour>
  </outline>
</glyph>
<glyph name="uni0274" format="2">
  <advance width="568"/>
  <unicode hex="0274"/>
  <outline>
    <contour>
      <point x="591" y="444" type="line"/>
      <point x="544" y="439" type="line" smooth="yes"/>
      <point x="532" y="438"/>
      <point x="522.772" y="432.051"/>
      <point x="520" y="419" type="curve" smooth="yes"/>
      <point x="431" y="0" type="line" name="n05"/>
      <point x="368" y="0" type="line"/>
      <point x="174" y="366" type="line"/>
      <point x="107" y="63" type="line"/>
      <point x="105" y="52"/>
      <point x="110" y="45"/>
      <point x="127" y="43" type="curve"/>
      <point x="127" y="43"/>
      <point x="164.054" y="39.4371"/>
      <point x="179" y="38" type="curve"/>
      <point x="179" y="0" type="line"/>
      <point x="-30" y="0" type="line"/>
      <point x="-30" y="38" type="line"/>
      <point x="-17.5471" y="39.3248"/>
      <point x="17" y="43"/>
      <point x="17" y="43" type="curve"/>
      <point x="29" y="44"/>
      <point x="38" y="50"/>
      <point x="41" y="62" type="curve"/>
      <point x="117" y="419" type="line"/>
      <point x="119" y="430"/>
      <point x="115" y="437"/>
      <point x="97" y="439" type="curve"/>
      <point x="97" y="439"/>
      <point x="59.0966" y="442.645"/>
      <point x="45" y="444" type="curve"/>
      <point x="45" y="482" type="line" name="n31"/>
      <point x="220" y="482" type="line"/>
      <point x="220" y="461" type="line"/>
      <point x="393" y="135" type="line"/>
      <point x="454" y="419" type="line"/>
      <point x="456" y="430"/>
      <point x="452" y="437"/>
      <point x="435" y="439" type="curve"/>
      <point x="435" y="439"/>
      <point x="396.672" y="442.616"/>
      <point x="382" y="444" type="curve"/>
      <point x="382" y="482" type="line"/>
      <point x="591" y="482" type="line"/>
    </contour>
  </outline>
</glyph>
<glyph name="uni0276" format="2">
  <advance width="812"/>
  <unicode hex="0276"/>
  <outline>
    <contour>
      <point x="816" y="483" type="line" name="n00"/>
      <point x="791" y="368" type="line" name="n01"/>
      <point x="732" y="368" type="line"/>
      <point x="732" y="430" type="line" smooth="yes"/>
      <point x="732" y="437"/>
      <point x="731" y="439" name="hr01"/>
      <point x="721" y="439" type="curve" smooth="yes"/>
      <point x="575" y="439" type="line" name="n07"/>
      <point x="539" y="274" type="line"/>
      <point x="640" y="274" type="line" smooth="yes" name="n09"/>
      <point x="649" y="274"/>
      <point x="652" y="276"/>
      <point x="654" y="284" type="curve"/>
      <point x="670" y="335" type="line"/>
      <point x="724" y="335" type="line"/>
      <point x="687" y="164" type="line"/>
      <point x="633" y="164" type="line" name="n16"/>
      <point x="642" y="219" type="line"/>
      <point x="643" y="224"/>
      <point x="641" y="228" name="hr02"/>
      <point x="631" y="228" type="curve" smooth="yes" name="n20"/>
      <point x="529" y="228" type="line"/>
      <point x="489" y="44" type="line"/>
      <point x="669" y="44" type="line" smooth="yes" name="n23"/>
      <point x="678" y="44"/>
      <point x="682" y="48"/>
      <point x="685" y="55" type="curve"/>
      <point x="710" y="126" type="line" name="hr03"/>
      <point x="768" y="126" type="line" name="n28"/>
      <point x="740" y="0" type="line" name="n29"/>
      <point x="392" y="0" type="line"/>
      <point x="401" y="40" type="line"/>
      <point x="355" y="5"/>
      <point x="306" y="-12" name="hr04"/>
      <point x="252" y="-12" type="curve" smooth="yes" name="n34"/>
      <point x="131" y="-12"/>
      <point x="32" y="63"/>
      <point x="32" y="190" type="curve" smooth="yes" name="n37"/>
      <point x="32" y="338"/>
      <point x="151" y="495"/>
      <point x="330" y="495" type="curve" smooth="yes" name="n40"/>
      <point x="406" y="495"/>
      <point x="454" y="467"/>
      <point x="483" y="425" type="curve"/>
      <point x="495" y="483" type="line" name="n44"/>
    </contour>
    <contour>
      <point x="450" y="299" type="curve" smooth="yes"/>
      <point x="450" y="407"/>
      <point x="386" y="450" name="hr06"/>
      <point x="323" y="450" type="curve" smooth="yes" name="n48"/>
      <point x="216" y="450"/>
      <point x="130" y="309"/>
      <point x="130" y="183" type="curve" smooth="yes" name="n51"/>
      <point x="130" y="83"/>
      <point x="191" y="35"/>
      <point x="257" y="35" type="curve" smooth="yes" name="n54"/>
      <point x="367" y="35"/>
      <point x="450" y="175"/>
    </contour>
  </outline>
</glyph>
<glyph name="uni0278" format="2">
  <advance width="565"/>
  <unicode hex="0278"/>
  <outline>
    <contour>
      <point x="534" y="300" type="curve" smooth="yes" name="n00"/>
      <point x="534" y="151"/>
      <point x="415" y="13"/>
      <point x="276" y="-9" type="curve"/>
      <point x="246" y="-155" type="line"/>
      <point x="243" y="-166"/>
      <point x="248" y="-173"/>
      <point x="265" y="-175" type="curve" smooth="yes"/>
      <point x="317" y="-180" type="line"/>
      <point x="317" y="-218" type="line" name="n09"/>
      <point x="77" y="-218" type="line"/>
      <point x="77" y="-180" type="line"/>
      <point x="128" y="-175" type="line" smooth="yes"/>
      <point x="141" y="-174"/>
      <point x="150" y="-168"/>
      <point x="153" y="-155" type="curve" smooth="yes"/>
      <point x="184" y="-5" type="line"/>
      <point x="98" y="15"/>
      <point x="32" y="81"/>
      <point x="32" y="177" type="curve" smooth="yes" name="n19"/>
      <point x="32" y="326"/>
      <point x="147" y="468"/>
      <point x="287" y="491" type="curve"/>
      <point x="312" y="608" type="line"/>
      <point x="314" y="619"/>
      <point x="309" y="626"/>
      <point x="292" y="628" type="curve"/>
      <point x="292" y="628"/>
      <point x="251.567" y="631.888"/>
      <point x="240" y="633" type="curve"/>
      <point x="240" y="671" type="line" name="n30"/>
      <point x="480" y="671" type="line"/>
      <point x="480" y="633" type="line"/>
      <point x="468.655" y="631.888"/>
      <point x="429" y="628"/>
      <point x="429" y="628" type="curve"/>
      <point x="416" y="627"/>
      <point x="407" y="621"/>
      <point x="404" y="608" type="curve" smooth="yes"/>
      <point x="379" y="488" type="line"/>
      <point x="459" y="470"/>
      <point x="534" y="410"/>
    </contour>
    <contour>
      <point x="433" y="304" type="curve" smooth="yes" name="n42"/>
      <point x="433" y="367"/>
      <point x="403" y="411"/>
      <point x="368" y="434" type="curve"/>
      <point x="286" y="40" type="line"/>
      <point x="367" y="71"/>
      <point x="433" y="201"/>
    </contour>
    <contour>
      <point x="277" y="442" type="line"/>
      <point x="202" y="411"/>
      <point x="133" y="294"/>
      <point x="133" y="182" type="curve" smooth="yes" name="n52"/>
      <point x="133" y="117"/>
      <point x="162" y="74"/>
      <point x="196" y="51" type="curve"/>
    </contour>
  </outline>
</glyph>
<glyph name="uni027B" format="2">
  <advance width="358"/>
  <unicode hex="027B"/>
  <outline>
    <contour>
      <point x="390" y="-173" type="curve" smooth="yes" name="n00"/>
      <point x="390" y="-212"/>
      <point x="349" y="-229" name="n02"/>
      <point x="309" y="-229" type="curve" smooth="yes"/>
      <point x="194" y="-229"/>
      <point x="140" y="-161"/>
      <point x="140" y="-73" type="curve" smooth="yes" name="n06"/>
      <point x="140" y="-53"/>
      <point x="142" y="-32"/>
      <point x="146" y="-10" type="curve"/>
      <point x="146" y="-10"/>
      <point x="163.612" y="73.0257"/>
      <point x="167" y="89" type="curve"/>
      <point x="126" y="26"/>
      <point x="73" y="-12"/>
      <point x="13" y="-12" type="curve" smooth="yes" name="n15"/>
      <point x="-35" y="-12"/>
      <point x="-51" y="28"/>
      <point x="-51" y="55" type="curve" smooth="yes"/>
      <point x="-51" y="102"/>
      <point x="-17" y="108"/>
      <point x="38" y="108" type="curve" name="n21"/>
      <point x="62" y="60" type="line"/>
      <point x="111" y="81"/>
      <point x="182.03" y="171.994"/>
      <point x="194" y="230" type="curve" smooth="yes"/>
      <point x="246" y="482" type="line" name="n26"/>
      <point x="339" y="482" type="line"/>
      <point x="237" y="-21" type="line" smooth="yes"/>
      <point x="231" y="-52"/>
      <point x="227" y="-82" name="hr01"/>
      <point x="227" y="-108" type="curve" smooth="yes" name="n31"/>
      <point x="227" y="-144"/>
      <point x="234" y="-171"/>
      <point x="253" y="-183" type="curve"/>
      <point x="354" y="-116" type="line"/>
      <point x="372" y="-123"/>
      <point x="390" y="-139" name="hr02"/>
    </contour>
  </outline>
</glyph>
<glyph name="uni027E" format="2">
  <advance width="330"/>
  <unicode hex="027E"/>
  <outline>
    <contour>
      <point x="366" y="434" type="curve" smooth="yes"/>
      <point x="366" y="387"/>
      <point x="311" y="380"/>
      <point x="311" y="380" type="curve"/>
      <point x="243" y="438" type="line"/>
      <point x="193" y="422"/>
      <point x="180.016" y="388.997"/>
      <point x="162" y="298" type="curve" smooth="yes"/>
      <point x="103" y="0" type="line" name="n08"/>
      <point x="10" y="0" type="line"/>
      <point x="69" y="300" type="line" smooth="yes"/>
      <point x="92" y="415"/>
      <point x="176" y="494" name="n12"/>
      <point x="296" y="494" type="curve" smooth="yes"/>
      <point x="359" y="494"/>
      <point x="366" y="461"/>
    </contour>
  </outline>
</glyph>
<glyph name="uni0284" format="2">
  <advance width="311"/>
  <unicode hex="0284"/>
  <outline>
    <contour>
      <point x="440" y="673" type="curve" smooth="yes"/>
      <point x="440" y="642"/>
      <point x="414" y="621"/>
      <point x="385" y="618" type="curve"/>
      <point x="306" y="683" type="line"/>
      <point x="268" y="668"/>
      <point x="254" y="610"/>
      <point x="234" y="494" type="curve"/>
      <point x="203" y="303" type="line"/>
      <point x="307" y="303" type="line" name="n09"/>
      <point x="307" y="248" type="line" name="n10"/>
      <point x="194" y="248" type="line"/>
      <point x="166" y="80" type="line" smooth="yes"/>
      <point x="149" y="-20"/>
      <point x="67" y="-229" name="n14"/>
      <point x="-67" y="-229" type="curve" smooth="yes"/>
      <point x="-109" y="-229"/>
      <point x="-129" y="-206"/>
      <point x="-129" y="-176" type="curve" smooth="yes"/>
      <point x="-129" y="-151"/>
      <point x="-111" y="-137"/>
      <point x="-101" y="-131" type="curve"/>
      <point x="-1" y="-158" type="line"/>
      <point x="18" y="-137"/>
      <point x="42" y="-67"/>
      <point x="52" y="-12" type="curve" smooth="yes"/>
      <point x="61.0856" y="40.4944"/>
      <point x="91" y="213.333"/>
      <point x="97" y="248" type="curve"/>
      <point x="-5" y="248" type="line"/>
      <point x="-5" y="303" type="line"/>
      <point x="106" y="303" type="line"/>
      <point x="117.518" y="368.87"/>
      <point x="138" y="486"/>
      <point x="138" y="486" type="curve"/>
      <point x="165" y="642"/>
      <point x="226" y="737" name="n36"/>
      <point x="353" y="737" type="curve" smooth="yes"/>
      <point x="389" y="737"/>
      <point x="440" y="716"/>
    </contour>
  </outline>
</glyph>
<glyph name="uni0287" format="2">
  <advance width="303"/>
  <unicode hex="0287"/>
  <outline>
    <contour>
      <point x="259" y="408" type="curve" smooth="yes"/>
      <point x="259" y="395"/>
      <point x="258" y="381"/>
      <point x="255" y="367" type="curve" smooth="yes"/>
      <point x="190" y="46" type="line"/>
      <point x="253" y="53" type="line"/>
      <point x="253" y="20" type="line"/>
      <point x="179" y="-14" type="line"/>
      <point x="129" y="-114" type="line"/>
      <point x="68" y="-114" type="line" name="n09"/>
      <point x="89" y="0" type="line" name="hr01"/>
      <point x="60.2353" y="0"/>
      <point x="-20.728" y="0"/>
      <point x="-49" y="0" type="curve" name="n13"/>
      <point x="-49" y="5.46091"/>
      <point x="-49" y="40.0392"/>
      <point x="-49" y="46" type="curve" name="n16"/>
      <point x="98" y="46" type="line" name="n17"/>
      <point x="102.133" y="66.6665"/>
      <point x="153.225" y="322.123"/>
      <point x="164" y="376" type="curve" smooth="yes"/>
      <point x="171.192" y="411.962"/>
      <point x="140" y="433"/>
      <point x="106" y="433" type="curve" smooth="yes" name="n23"/>
      <point x="69" y="433"/>
      <point x="23" y="416"/>
      <point x="2" y="409" type="curve"/>
      <point x="2" y="449" type="line"/>
      <point x="19" y="456"/>
      <point x="108" y="494"/>
      <point x="166" y="494" type="curve" smooth="yes" name="n30"/>
      <point x="238" y="494"/>
      <point x="259" y="457"/>
    </contour>
  </outline>
</glyph>
<glyph name="uni0288" format="2">
  <advance width="329"/>
  <unicode hex="0288"/>
  <outline>
    <contour>
      <point x="349" y="419" type="line" name="n00"/>
      <point x="202" y="419" type="line" name="n01"/>
      <point x="95" y="-112" type="line" smooth="yes"/>
      <point x="87.9493" y="-146.99"/>
      <point x="119" y="-169"/>
      <point x="153" y="-169" type="curve" smooth="yes" name="n05"/>
      <point x="190" y="-169"/>
      <point x="236" y="-152"/>
      <point x="256" y="-145" type="curve"/>
      <point x="256" y="-185" type="line"/>
      <point x="240" y="-192"/>
      <point x="151" y="-229"/>
      <point x="93" y="-229" type="curve" smooth="yes" name="n12"/>
      <point x="21" y="-229"/>
      <point x="0" y="-193"/>
      <point x="0" y="-144" type="curve" smooth="yes"/>
      <point x="0" y="-131"/>
      <point x="1" y="-117"/>
      <point x="4" y="-103" type="curve" smooth="yes"/>
      <point x="109" y="419" type="line"/>
      <point x="37" y="413" type="line"/>
      <point x="37" y="446" type="line"/>
      <point x="121" y="479" type="line"/>
      <point x="170" y="579" type="line" name="hr01"/>
      <point x="231" y="579" type="line" name="n24"/>
      <point x="211" y="465" type="line" name="hr02"/>
      <point x="349" y="465" type="line" name="n26"/>
    </contour>
  </outline>
</glyph>
<glyph name="uni0289" format="2">
  <advance width="526"/>
  <unicode hex="0289"/>
  <outline>
    <contour>
      <point x="539" y="272" type="line" name="n00"/>
      <point x="528" y="218" type="line" name="n01"/>
      <point x="442" y="218" type="line"/>
      <point x="435.084" y="184.527"/>
      <point x="420.837" y="115.569"/>
      <point x="417" y="97" type="curve" smooth="yes"/>
      <point x="408" y="56"/>
      <point x="439" y="41"/>
      <point x="461" y="41" type="curve" smooth="yes"/>
      <point x="474" y="41"/>
      <point x="496" y="43"/>
      <point x="524" y="59" type="curve"/>
      <point x="524" y="55.714"/>
      <point x="524" y="30.0642"/>
      <point x="524" y="24" type="curve"/>
      <point x="499" y="10"/>
      <point x="431" y="-12"/>
      <point x="388" y="-12" type="curve" smooth="yes"/>
      <point x="313" y="-12"/>
      <point x="323" y="47"/>
      <point x="323" y="63" type="curve"/>
      <point x="271" y="13"/>
      <point x="214" y="-12"/>
      <point x="147" y="-12" type="curve" smooth="yes" name="n23"/>
      <point x="54" y="-12"/>
      <point x="34" y="61"/>
      <point x="45" y="113" type="curve" smooth="yes"/>
      <point x="67" y="218" type="line"/>
      <point x="-14" y="218" type="line"/>
      <point x="-3" y="272" type="line"/>
      <point x="79" y="272" type="line"/>
      <point x="110" y="425" type="line"/>
      <point x="26" y="434" type="line"/>
      <point x="26" y="463" type="line"/>
      <point x="177" y="494" type="line" name="n34"/>
      <point x="218" y="494" type="line"/>
      <point x="171" y="272" type="line"/>
      <point x="360" y="272" type="line"/>
      <point x="404" y="482" type="line"/>
      <point x="497" y="482" type="line"/>
      <point x="453" y="272" type="line"/>
    </contour>
    <contour>
      <point x="349" y="218" type="line"/>
      <point x="160" y="218" type="line"/>
      <point x="138" y="113" type="line" smooth="yes"/>
      <point x="131" y="79"/>
      <point x="164" y="50"/>
      <point x="190" y="50" type="curve" smooth="yes" name="n46"/>
      <point x="238" y="50"/>
      <point x="290" y="79"/>
      <point x="328" y="114" type="curve"/>
    </contour>
  </outline>
</glyph>
<glyph name="uni0293" format="2">
  <advance width="474"/>
  <unicode hex="0293"/>
  <outline>
    <contour>
      <point x="508" y="452" type="line"/>
      <point x="226" y="191" type="line" name="n01"/>
      <point x="330" y="186"/>
      <point x="411" y="125"/>
      <point x="411" y="11" type="curve" smooth="yes" name="n04"/>
      <point x="411" y="-77"/>
      <point x="364" y="-130"/>
      <point x="291" y="-173" type="curve"/>
      <point x="297" y="-187"/>
      <point x="302" y="-200"/>
      <point x="308" y="-212" type="curve"/>
      <point x="262" y="-237" type="line"/>
      <point x="258" y="-224"/>
      <point x="253" y="-210"/>
      <point x="246" y="-195" type="curve"/>
      <point x="200" y="-223"/>
      <point x="165" y="-229"/>
      <point x="126" y="-229" type="curve" smooth="yes" name="n17"/>
      <point x="-6" y="-229"/>
      <point x="-45" y="-175"/>
      <point x="-45" y="-104" type="curve" smooth="yes" name="n20"/>
      <point x="-45" y="-42"/>
      <point x="35" y="-14"/>
      <point x="93" y="-14" type="curve" smooth="yes" name="n23"/>
      <point x="174" y="-14"/>
      <point x="224" y="-60"/>
      <point x="259" y="-115" type="curve"/>
      <point x="294" y="-82"/>
      <point x="314" y="-37"/>
      <point x="314" y="11" type="curve" smooth="yes" name="n29"/>
      <point x="314" y="82"/>
      <point x="247" y="145"/>
      <point x="180" y="149" type="curve" name="n32"/>
      <point x="143" y="100" type="line"/>
      <point x="88" y="146" type="line"/>
      <point x="372" y="400" type="line"/>
      <point x="372" y="400"/>
      <point x="292" y="396"/>
      <point x="258" y="396" type="curve" smooth="yes" name="n38"/>
      <point x="221" y="396"/>
      <point x="186" y="418" name="hr01"/>
      <point x="147" y="418" type="curve" smooth="yes" name="n41"/>
      <point x="127" y="418"/>
      <point x="105" y="405"/>
      <point x="95" y="389" type="curve"/>
      <point x="146" y="325" type="line"/>
      <point x="136" y="308"/>
      <point x="114" y="292" name="hr02"/>
      <point x="93" y="292" type="curve" smooth="yes" name="n48"/>
      <point x="60" y="292"/>
      <point x="39" y="320"/>
      <point x="39" y="351" type="curve" smooth="yes"/>
      <point x="39" y="425"/>
      <point x="101" y="494"/>
      <point x="176" y="494" type="curve" smooth="yes" name="n54"/>
      <point x="244" y="494"/>
      <point x="304" y="449"/>
      <point x="370" y="449" type="curve" smooth="yes"/>
      <point x="384" y="449"/>
      <point x="398" y="453"/>
      <point x="412" y="455" type="curve"/>
      <point x="444" y="500" type="line"/>
    </contour>
    <contour>
      <point x="218" y="-155" type="curve"/>
      <point x="188" y="-109"/>
      <point x="145" y="-70"/>
      <point x="93" y="-70" type="curve" smooth="yes" name="n65"/>
      <point x="65" y="-70"/>
      <point x="31" y="-90"/>
      <point x="31" y="-118" type="curve" smooth="yes" name="n68"/>
      <point x="31" y="-167"/>
      <point x="98" y="-188"/>
      <point x="138" y="-188" type="curve" smooth="yes" name="n71"/>
      <point x="166" y="-188"/>
      <point x="192" y="-175"/>
    </contour>
  </outline>
</glyph>
<glyph name="uni0294" format="2">
  <advance width="438"/>
  <unicode hex="0294"/>
  <outline>
    <contour>
      <point x="466" y="539" type="curve" smooth="yes" name="n00"/>
      <point x="466" y="423"/>
      <point x="366" y="345"/>
      <point x="269" y="305" type="curve"/>
      <point x="264.16" y="280.698"/>
      <point x="221" y="64"/>
      <point x="221" y="64" type="curve"/>
      <point x="219" y="55"/>
      <point x="230" y="45"/>
      <point x="239" y="44" type="curve" smooth="yes"/>
      <point x="292" y="39" type="line"/>
      <point x="292" y="0" type="line" name="n11"/>
      <point x="47" y="0" type="line"/>
      <point x="47" y="39" type="line"/>
      <point x="102" y="44" type="line" smooth="yes"/>
      <point x="111" y="45"/>
      <point x="127" y="55"/>
      <point x="128" y="64" type="curve"/>
      <point x="178" y="314" type="line"/>
      <point x="267" y="342"/>
      <point x="364" y="429"/>
      <point x="364" y="530" type="curve" smooth="yes" name="n21"/>
      <point x="364" y="600"/>
      <point x="330.005" y="642.702"/>
      <point x="283" y="642" type="curve" smooth="yes" name="n24"/>
      <point x="263.002" y="641.701"/>
      <point x="242" y="637"/>
      <point x="221" y="624" type="curve"/>
      <point x="187" y="537" type="line"/>
      <point x="187" y="537"/>
      <point x="159" y="522"/>
      <point x="130" y="522" type="curve" smooth="yes"/>
      <point x="98" y="522"/>
      <point x="86" y="541"/>
      <point x="86" y="563" type="curve" smooth="yes"/>
      <point x="86" y="648"/>
      <point x="224" y="687"/>
      <point x="290" y="687" type="curve" smooth="yes" name="n37"/>
      <point x="396" y="687"/>
      <point x="466" y="628"/>
    </contour>
  </outline>
</glyph>
<glyph name="uni0296" format="2">
  <advance width="438"/>
  <unicode hex="0296"/>
  <outline>
    <contour>
      <point x="406" y="194" type="curve" smooth="yes" name="n00"/>
      <point x="406" y="43"/>
      <point x="267" y="-12"/>
      <point x="137" y="-12" type="curve" smooth="yes" name="n03"/>
      <point x="40" y="-12"/>
      <point x="9" y="31"/>
      <point x="9" y="70" type="curve" smooth="yes"/>
      <point x="9" y="110"/>
      <point x="39" y="141" name="hr01"/>
      <point x="81" y="141" type="curve" smooth="yes"/>
      <point x="84.9221" y="141"/>
      <point x="100.358" y="141"/>
      <point x="104" y="141" type="curve" name="n12"/>
      <point x="124" y="42" type="line" name="n13"/>
      <point x="229" y="42"/>
      <point x="300" y="86"/>
      <point x="300" y="200" type="curve" smooth="yes" name="n16"/>
      <point x="300" y="289"/>
      <point x="231" y="331"/>
      <point x="173" y="352" type="curve"/>
      <point x="223" y="600" type="line" smooth="yes"/>
      <point x="225" y="609"/>
      <point x="213" y="619"/>
      <point x="204" y="620" type="curve" smooth="yes"/>
      <point x="152" y="625" type="line"/>
      <point x="152" y="671" type="line" name="n25"/>
      <point x="393" y="671" type="line"/>
      <point x="393" y="625" type="line"/>
      <point x="341" y="620" type="line" smooth="yes"/>
      <point x="332" y="619"/>
      <point x="318" y="609"/>
      <point x="316" y="600" type="curve" smooth="yes"/>
      <point x="273" y="388" type="line"/>
      <point x="341" y="355"/>
      <point x="406" y="327"/>
    </contour>
  </outline>
</glyph>
<glyph name="uni0297" format="2">
  <advance width="435"/>
  <unicode hex="0297"/>
  <outline>
    <contour>
      <point x="437" y="424" type="curve" smooth="yes"/>
      <point x="437" y="398"/>
      <point x="423" y="367"/>
      <point x="359" y="359" type="curve"/>
      <point x="302" y="436" type="line"/>
      <point x="278" y="435"/>
      <point x="243" y="420"/>
      <point x="214" y="381" type="curve" smooth="yes"/>
      <point x="195" y="355"/>
      <point x="179" y="318"/>
      <point x="169" y="274" type="curve"/>
      <point x="125" y="57" type="line" smooth="yes"/>
      <point x="119" y="30"/>
      <point x="116" y="0"/>
      <point x="116" y="-32" type="curve" smooth="yes" name="n14"/>
      <point x="116" y="-97"/>
      <point x="138" y="-165"/>
      <point x="205" y="-165" type="curve" smooth="yes" name="n17"/>
      <point x="257" y="-165"/>
      <point x="314" y="-125"/>
      <point x="370" y="-68" type="curve"/>
      <point x="370" y="-132" type="line"/>
      <point x="329" y="-172"/>
      <point x="263" y="-229"/>
      <point x="174" y="-229" type="curve" smooth="yes" name="n24"/>
      <point x="79" y="-229"/>
      <point x="20" y="-162"/>
      <point x="20" y="-43" type="curve" smooth="yes" name="n27"/>
      <point x="20" y="-21"/>
      <point x="22" y="2"/>
      <point x="26" y="23" type="curve" smooth="yes"/>
      <point x="71" y="241" type="line" smooth="yes"/>
      <point x="101" y="386"/>
      <point x="216" y="494" name="n33"/>
      <point x="334" y="494" type="curve" smooth="yes"/>
      <point x="406" y="494"/>
      <point x="437" y="454"/>
    </contour>
  </outline>
</glyph>
<glyph name="uni0298" format="2">
  <advance width="775"/>
  <unicode hex="0298"/>
  <outline>
    <contour>
      <point x="758" y="404" type="curve" smooth="yes" name="n00"/>
      <point x="758" y="185"/>
      <point x="550" y="-16"/>
      <point x="332" y="-16" type="curve" smooth="yes" name="n03"/>
      <point x="168" y="-16"/>
      <point x="46" y="101"/>
      <point x="46" y="267" type="curve" smooth="yes" name="n06"/>
      <point x="46" y="486"/>
      <point x="254" y="687"/>
      <point x="472" y="687" type="curve" smooth="yes" name="n09"/>
      <point x="637" y="687"/>
      <point x="758" y="570"/>
    </contour>
    <contour>
      <point x="688" y="391" type="curve" smooth="yes" name="n12"/>
      <point x="688" y="523"/>
      <point x="591" y="618"/>
      <point x="459" y="618" type="curve" smooth="yes" name="n15"/>
      <point x="284" y="618"/>
      <point x="116" y="457"/>
      <point x="116" y="280" type="curve" smooth="yes" name="n18"/>
      <point x="116" y="148"/>
      <point x="215" y="53"/>
      <point x="346" y="53" type="curve" smooth="yes" name="n21"/>
      <point x="521" y="53"/>
      <point x="688" y="214"/>
    </contour>
    <contour>
      <point x="475" y="357" type="curve" smooth="yes" name="n24"/>
      <point x="475" y="310"/>
      <point x="437" y="266"/>
      <point x="389" y="266" type="curve" smooth="yes" name="n27"/>
      <point x="355" y="266"/>
      <point x="333" y="292"/>
      <point x="333" y="325" type="curve" smooth="yes" name="n30"/>
      <point x="333" y="370"/>
      <point x="372" y="408"/>
      <point x="417" y="408" type="curve" smooth="yes" name="n33"/>
      <point x="447" y="408"/>
      <point x="475" y="389"/>
    </contour>
  </outline>
</glyph>
<glyph name="uni0299" format="2">
  <advance width="484"/>
  <unicode hex="0299"/>
  <outline>
    <contour>
      <point x="456" y="388" type="curve" smooth="yes" name="n00"/>
      <point x="456" y="318"/>
      <point x="404" y="281"/>
      <point x="340" y="258" type="curve"/>
      <point x="399" y="248"/>
      <point x="440" y="222" name="hr01"/>
      <point x="440" y="163" type="curve" smooth="yes" name="n06"/>
      <point x="440" y="43"/>
      <point x="336" y="0"/>
      <point x="204" y="0" type="curve" smooth="yes" name="n09"/>
      <point x="-15" y="0" type="line"/>
      <point x="-15" y="38" type="line"/>
      <point x="-3.54432" y="38.9546"/>
      <point x="33" y="42"/>
      <point x="33" y="42" type="curve"/>
      <point x="41" y="42"/>
      <point x="49" y="50"/>
      <point x="50" y="57" type="curve"/>
      <point x="128" y="422" type="line"/>
      <point x="131" y="432"/>
      <point x="127" y="439"/>
      <point x="115" y="440" type="curve"/>
      <point x="115" y="440"/>
      <point x="81.4615" y="443.049"/>
      <point x="71" y="444" type="curve"/>
      <point x="71" y="482" type="line"/>
      <point x="296" y="482" type="line" smooth="yes" name="n26"/>
      <point x="410" y="482"/>
      <point x="456" y="446" name="hr02"/>
    </contour>
    <contour>
      <point x="356" y="382" type="curve" smooth="yes" name="n29"/>
      <point x="356" y="422"/>
      <point x="324" y="442"/>
      <point x="257" y="442" type="curve" smooth="yes" name="n32"/>
      <point x="244" y="442"/>
      <point x="232" y="442"/>
      <point x="223" y="441" type="curve"/>
      <point x="187" y="271" type="line"/>
      <point x="198" y="270"/>
      <point x="210" y="270"/>
      <point x="216" y="270" type="curve" smooth="yes" name="n39"/>
      <point x="312" y="270"/>
      <point x="356" y="321"/>
    </contour>
    <contour>
      <point x="342" y="156" type="curve" smooth="yes" name="n42"/>
      <point x="342" y="209"/>
      <point x="303" y="229" name="hr03"/>
      <point x="230" y="229" type="curve" smooth="yes" name="n45"/>
      <point x="212" y="229"/>
      <point x="195" y="228"/>
      <point x="179" y="227" type="curve"/>
      <point x="139" y="42" type="line"/>
      <point x="151" y="42"/>
      <point x="167" y="41"/>
      <point x="178" y="41" type="curve" smooth="yes" name="n52"/>
      <point x="289" y="41"/>
      <point x="342" y="85"/>
    </contour>
  </outline>
</glyph>
<glyph name="uni02A2" format="2">
  <advance width="438"/>
  <unicode hex="02A2"/>
  <outline>
    <contour>
      <point x="474" y="605" type="curve" smooth="yes"/>
      <point x="474" y="565"/>
      <point x="443" y="535"/>
      <point x="402" y="535" type="curve" smooth="yes"/>
      <point x="398.202" y="535"/>
      <point x="382.132" y="535"/>
      <point x="378" y="535" type="curve" name="n06"/>
      <point x="358" y="633" type="line" name="n07"/>
      <point x="254" y="633"/>
      <point x="182" y="590"/>
      <point x="182" y="476" type="curve" smooth="yes" name="n10"/>
      <point x="182" y="387"/>
      <point x="252" y="344"/>
      <point x="310" y="323" type="curve"/>
      <point x="292" y="240" type="line"/>
      <point x="421" y="240" type="line" name="n15"/>
      <point x="421" y="189" type="line" name="n16"/>
      <point x="282" y="189" type="line"/>
      <point x="258" y="71" type="line" smooth="yes"/>
      <point x="256" y="62"/>
      <point x="268" y="52"/>
      <point x="277" y="51" type="curve" smooth="yes"/>
      <point x="329" y="46" type="line"/>
      <point x="329" y="0" type="line" name="hr03"/>
      <point x="89" y="0" type="line" name="n24"/>
      <point x="89" y="46" type="line"/>
      <point x="140" y="51" type="line" smooth="yes"/>
      <point x="150" y="52"/>
      <point x="164" y="62"/>
      <point x="166" y="71" type="curve" smooth="yes"/>
      <point x="189" y="189" type="line" name="hr04"/>
      <point x="69" y="189" type="line"/>
      <point x="69" y="240" type="line" name="n32"/>
      <point x="200" y="240" type="line"/>
      <point x="209" y="287" type="line"/>
      <point x="142" y="321"/>
      <point x="76" y="348"/>
      <point x="76" y="481" type="curve" smooth="yes" name="n37"/>
      <point x="76" y="632"/>
      <point x="216" y="687"/>
      <point x="345" y="687" type="curve" smooth="yes" name="n40"/>
      <point x="442" y="687"/>
      <point x="474" y="644"/>
    </contour>
  </outline>
</glyph>
<glyph name="uni02A5" format="2">
  <advance width="795"/>
  <unicode hex="02A5"/>
  <outline>
    <contour>
      <point x="807" y="468" type="line"/>
      <point x="460" y="79" type="line"/>
      <point x="537" y="93" type="line"/>
      <point x="574" y="148"/>
      <point x="621" y="191"/>
      <point x="691" y="191" type="curve" smooth="yes" name="n05"/>
      <point x="725" y="191"/>
      <point x="760" y="152"/>
      <point x="760" y="120" type="curve" smooth="yes" name="n08"/>
      <point x="760" y="36"/>
      <point x="695" y="-13"/>
      <point x="610" y="-13" type="curve" smooth="yes"/>
      <point x="586" y="-13"/>
      <point x="565" y="-1"/>
      <point x="544" y="10" type="curve"/>
      <point x="522" y="-44"/>
      <point x="509" y="-91"/>
      <point x="501" y="-129" type="curve" name="n17"/>
      <point x="458" y="-129" type="line"/>
      <point x="468" y="-72"/>
      <point x="482" y="-27"/>
      <point x="505" y="27" type="curve"/>
      <point x="477" y="43"/>
      <point x="444" y="43"/>
      <point x="407" y="23" type="curve"/>
      <point x="407" y="23"/>
      <point x="386" y="11"/>
      <point x="361" y="-12" type="curve" name="n27"/>
      <point x="302" y="-12" type="line"/>
      <point x="314" y="60" type="line"/>
      <point x="279" y="23"/>
      <point x="231" y="-12"/>
      <point x="175" y="-12" type="curve" smooth="yes" name="n32"/>
      <point x="63" y="-12"/>
      <point x="32" y="83"/>
      <point x="32" y="167" type="curve" smooth="yes" name="n35"/>
      <point x="32" y="326"/>
      <point x="138" y="494"/>
      <point x="315" y="494" type="curve" smooth="yes" name="n38"/>
      <point x="345" y="494"/>
      <point x="374" y="481"/>
      <point x="391" y="475" type="curve"/>
      <point x="424" y="668" type="line"/>
      <point x="333" y="677" type="line"/>
      <point x="333" y="707" type="line"/>
      <point x="488" y="737" type="line" name="n45"/>
      <point x="529" y="737" type="line"/>
      <point x="485" y="489" type="line"/>
      <point x="497" y="492"/>
      <point x="509" y="494"/>
      <point x="521" y="494" type="curve" smooth="yes" name="n50"/>
      <point x="581" y="494"/>
      <point x="642" y="459"/>
      <point x="679" y="459" type="curve" smooth="yes"/>
      <point x="683" y="459"/>
      <point x="706" y="466"/>
      <point x="717" y="472" type="curve"/>
      <point x="746" y="507" type="line"/>
    </contour>
    <contour>
      <point x="670" y="404" type="line"/>
      <point x="587" y="389" type="line"/>
      <point x="559" y="404"/>
      <point x="537" y="423"/>
      <point x="510" y="423" type="curve" smooth="yes" name="n62"/>
      <point x="504" y="423"/>
      <point x="479" y="417"/>
      <point x="472" y="415" type="curve"/>
      <point x="422" y="130" type="line"/>
    </contour>
    <contour>
      <point x="701" y="117" type="curve" smooth="yes" name="n67"/>
      <point x="701" y="132"/>
      <point x="689" y="146"/>
      <point x="673" y="146" type="curve" smooth="yes" name="n70"/>
      <point x="630" y="146"/>
      <point x="604" y="118"/>
      <point x="578" y="79" type="curve"/>
      <point x="599" y="59"/>
      <point x="620" y="45"/>
      <point x="640" y="45" type="curve" smooth="yes" name="n76"/>
      <point x="691" y="45"/>
      <point x="701" y="74"/>
    </contour>
    <contour>
      <point x="376" y="394" type="line" smooth="yes"/>
      <point x="377" y="400"/>
      <point x="339" y="449"/>
      <point x="313" y="449" type="curve" smooth="yes" name="n82"/>
      <point x="216" y="449"/>
      <point x="129" y="329"/>
      <point x="129" y="173" type="curve" smooth="yes" name="n85"/>
      <point x="129" y="87"/>
      <point x="168" y="49"/>
      <point x="207" y="49" type="curve" smooth="yes" name="n88"/>
      <point x="243" y="49"/>
      <point x="294" y="89"/>
      <point x="330" y="131" type="curve"/>
    </contour>
  </outline>
</glyph>
<glyph name="uni02AF" format="2">
  <advance width="549"/>
  <unicode hex="02AF"/>
  <outline>
    <contour>
      <point x="588" y="-167" type="curve" smooth="yes"/>
      <point x="588" y="-202"/>
      <point x="544" y="-229" name="n02"/>
      <point x="483" y="-229" type="curve" smooth="yes"/>
      <point x="362" y="-229"/>
      <point x="300" y="-126"/>
      <point x="326" y="-9" type="curve" smooth="yes"/>
      <point x="343" y="68" type="line"/>
      <point x="302" y="23"/>
      <point x="230" y="-12"/>
      <point x="163" y="-12" type="curve" smooth="yes" name="n10"/>
      <point x="90" y="-12"/>
      <point x="56" y="33"/>
      <point x="75" y="123" type="curve" smooth="yes"/>
      <point x="111" y="294" type="line" smooth="yes"/>
      <point x="130" y="388"/>
      <point x="131" y="430"/>
      <point x="105" y="445" type="curve"/>
      <point x="10" y="379" type="line"/>
      <point x="4" y="381"/>
      <point x="-24" y="393"/>
      <point x="-24" y="434" type="curve" smooth="yes"/>
      <point x="-24" y="466"/>
      <point x="16" y="494" name="n23"/>
      <point x="73" y="494" type="curve" smooth="yes"/>
      <point x="193" y="494"/>
      <point x="230" y="421"/>
      <point x="208" y="316" type="curve" smooth="yes"/>
      <point x="170" y="134" type="line" smooth="yes"/>
      <point x="159" y="81"/>
      <point x="196" y="54"/>
      <point x="218" y="54" type="curve" smooth="yes" name="n31"/>
      <point x="250" y="54"/>
      <point x="312" y="86"/>
      <point x="356" y="132" type="curve"/>
      <point x="429" y="482" type="line"/>
      <point x="521" y="482" type="line"/>
      <point x="420" y="-9" type="line" smooth="yes"/>
      <point x="397" y="-119"/>
      <point x="409" y="-163"/>
      <point x="453" y="-181" type="curve"/>
      <point x="556" y="-112" type="line"/>
      <point x="556" y="-112"/>
      <point x="588" y="-124"/>
    </contour>
  </outline>
</glyph>
<glyph name="uni02B8" format="2">
  <advance width="322"/>
  <unicode hex="02B8"/>
  <outline>
    <contour>
      <point x="396" y="649" type="line"/>
      <point x="364" y="631" type="line"/>
      <point x="354" y="622"/>
      <point x="323" y="576"/>
      <point x="311" y="551" type="curve" smooth="yes"/>
      <point x="292" y="512"/>
      <point x="261" y="439"/>
      <point x="219" y="374" type="curve" smooth="yes"/>
      <point x="179" y="311"/>
      <point x="127" y="246" name="n09"/>
      <point x="65" y="246" type="curve" smooth="yes"/>
      <point x="17" y="246"/>
      <point x="4" y="271"/>
      <point x="4" y="286" type="curve" smooth="yes"/>
      <point x="4" y="304"/>
      <point x="23" y="320"/>
      <point x="49" y="321" type="curve"/>
      <point x="86" y="286" type="line"/>
      <point x="113" y="288"/>
      <point x="137" y="320"/>
      <point x="181" y="394" type="curve"/>
      <point x="180" y="404"/>
      <point x="167" y="463"/>
      <point x="154" y="521" type="curve" smooth="yes"/>
      <point x="140" y="578"/>
      <point x="122" y="639"/>
      <point x="116" y="640" type="curve"/>
      <point x="58" y="645" type="line"/>
      <point x="58" y="659" type="line"/>
      <point x="70" y="662"/>
      <point x="123" y="680" name="n30"/>
      <point x="135" y="680" type="curve" smooth="yes"/>
      <point x="163" y="680"/>
      <point x="176" y="655"/>
      <point x="189" y="615" type="curve" smooth="yes"/>
      <point x="200" y="579"/>
      <point x="212" y="525"/>
      <point x="225" y="461" type="curve"/>
      <point x="324" y="680" type="line"/>
      <point x="343" y="680" type="line"/>
      <point x="396" y="664" type="line"/>
    </contour>
  </outline>
</glyph>
<glyph name="uni02BF" format="2">
  <advance width="273"/>
  <unicode hex="02BF"/>
  <outline>
    <contour>
      <point x="304" y="696" type="curve" name="n00"/>
      <point x="293" y="645" type="line" name="n01"/>
      <point x="202" y="645"/>
      <point x="141" y="577"/>
      <point x="141" y="487" type="curve" smooth="yes" name="n04"/>
      <point x="141" y="423"/>
      <point x="185" y="396"/>
      <point x="245" y="396" type="curve" name="n07"/>
      <point x="234" y="346" type="line" name="n08"/>
      <point x="149" y="346"/>
      <point x="89" y="389"/>
      <point x="89" y="478" type="curve" smooth="yes" name="n11"/>
      <point x="89" y="599"/>
      <point x="182" y="696"/>
    </contour>
  </outline>
</glyph>
<glyph name="caron" format="2">
  <advance width="342"/>
  <unicode hex="02C7"/>
  <outline>
    <contour>
      <point x="435" y="720" type="line" name="n00"/>
      <point x="269" y="551" type="line" name="n01"/>
      <point x="190" y="551" type="line"/>
      <point x="92" y="720" type="line"/>
      <point x="162" y="720" type="line"/>
      <point x="245" y="628" type="line"/>
      <point x="364" y="720" type="line"/>
    </contour>
  </outline>
</glyph>
<glyph name="uni02CB" format="2">
  <advance width="253"/>
  <unicode hex="02CB"/>
  <outline>
    <contour>
      <point x="319" y="551" type="line" name="n00"/>
      <point x="257" y="551" type="line"/>
      <point x="112" y="646" type="line" smooth="yes"/>
      <point x="98" y="655"/>
      <point x="89" y="668"/>
      <point x="89" y="688" type="curve" smooth="yes"/>
      <point x="89" y="708"/>
      <point x="99" y="732" name="n07"/>
      <point x="134" y="732" type="curve" smooth="yes"/>
      <point x="162" y="732"/>
      <point x="172.985" y="720.987"/>
      <point x="185" y="707" type="curve" smooth="yes"/>
    </contour>
  </outline>
</glyph>
<glyph name="uni02D2" format="2">
  <advance width="274"/>
  <unicode hex="02D2"/>
  <outline>
    <contour>
      <point x="212" y="216" type="curve" smooth="yes" name="n00"/>
      <point x="212" y="94"/>
      <point x="120" y="0"/>
      <point x="-2" y="0" type="curve" name="n03"/>
      <point x="7" y="50" type="line" name="n04"/>
      <point x="98" y="50"/>
      <point x="161" y="116"/>
      <point x="161" y="206" type="curve" smooth="yes" name="n07"/>
      <point x="161" y="269"/>
      <point x="116" y="299"/>
      <point x="57" y="299" type="curve" name="n10"/>
      <point x="67" y="350" type="line" name="n11"/>
      <point x="152" y="350"/>
      <point x="212" y="304"/>
    </contour>
  </outline>
</glyph>
<glyph name="uni02D6" format="2">
  <advance width="231"/>
  <unicode hex="02D6"/>
  <outline>
    <contour>
      <point x="233" y="267" type="line" name="n00"/>
      <point x="225" y="220" type="line" name="n01"/>
      <point x="131" y="220" type="line" name="n02"/>
      <point x="113" y="127" type="line" name="n03"/>
      <point x="67" y="127" type="line"/>
      <point x="86" y="220" type="line" name="hr02"/>
      <point x="-8" y="220" type="line"/>
      <point x="1" y="267" type="line"/>
      <point x="94" y="267" type="line" name="n08"/>
      <point x="112" y="359" type="line" name="n09"/>
      <point x="158" y="359" type="line"/>
      <point x="141" y="267" type="line" name="hr04"/>
    </contour>
  </outline>
</glyph>
<glyph name="tilde" format="2">
  <advance width="360"/>
  <unicode hex="02DC"/>
  <outline>
    <contour>
      <point x="448" y="691" type="line"/>
      <point x="420" y="633"/>
      <point x="375" y="585" name="hr01"/>
      <point x="305.487" y="585" type="curve" smooth="yes" name="n03"/>
      <point x="276" y="585"/>
      <point x="257.093" y="593.637"/>
      <point x="229.723" y="613.201" type="curve" smooth="yes"/>
      <point x="220.213" y="620"/>
      <point x="204" y="631" name="hr02"/>
      <point x="173" y="631" type="curve" smooth="yes" name="n09"/>
      <point x="156" y="631"/>
      <point x="128" y="612"/>
      <point x="117" y="585" type="curve" name="hr03"/>
      <point x="64" y="585" type="line"/>
      <point x="92" y="643"/>
      <point x="136" y="691" name="hr04"/>
      <point x="204.496" y="691" type="curve" smooth="yes" name="n16"/>
      <point x="235" y="691"/>
      <point x="254.328" y="681.48"/>
      <point x="278.649" y="664.444" type="curve" smooth="yes"/>
      <point x="291.463" y="655.468"/>
      <point x="308" y="645" name="hr05"/>
      <point x="339" y="645" type="curve" smooth="yes" name="n22"/>
      <point x="357" y="645"/>
      <point x="384" y="664"/>
      <point x="395" y="691" type="curve" name="hr06"/>
    </contour>
  </outline>
</glyph>
<glyph name="uni02DE" format="2">
  <advance width="176"/>
  <unicode hex="02DE"/>
  <outline>
    <contour>
      <point x="191" y="367" type="line"/>
      <point x="177" y="317"/>
      <point x="141" y="263"/>
      <point x="79.3502" y="263" type="curve" smooth="yes" name="n03"/>
      <point x="40" y="263"/>
      <point x="19" y="285"/>
      <point x="19" y="317.014" type="curve" smooth="yes" name="n06"/>
      <point x="19" y="324"/>
      <point x="20" y="330"/>
      <point x="21" y="336" type="curve" smooth="yes"/>
      <point x="35" y="409" type="line"/>
      <point x="-71" y="346" type="line"/>
      <point x="-80" y="376" type="line"/>
      <point x="56" y="458" type="line"/>
      <point x="77" y="446" type="line"/>
      <point x="60" y="358" type="line" smooth="yes"/>
      <point x="58.4359" y="349.903"/>
      <point x="57" y="341"/>
      <point x="57" y="331.802" type="curve" smooth="yes" name="n18"/>
      <point x="57" y="313"/>
      <point x="63" y="296"/>
      <point x="91" y="296" type="curve" smooth="yes" name="n21"/>
      <point x="131" y="296"/>
      <point x="149" y="327"/>
      <point x="170" y="379" type="curve"/>
    </contour>
  </outline>
</glyph>
<glyph name="uni02E7" format="2">
  <advance width="394"/>
  <unicode hex="02E7"/>
  <outline>
    <contour>
      <point x="102" y="334" type="line" smooth="yes" name="n00"/>
      <point x="87" y="334"/>
      <point x="74" y="347"/>
      <point x="74" y="362" type="curve" smooth="yes"/>
      <point x="74" y="377"/>
      <point x="87" y="390"/>
      <point x="102" y="390" type="curve" smooth="yes" name="n06"/>
      <point x="320" y="390" type="line" smooth="yes"/>
      <point x="335" y="390"/>
      <point x="348" y="377"/>
      <point x="348" y="362" type="curve" smooth="yes"/>
      <point x="348" y="347"/>
      <point x="335" y="334"/>
      <point x="320" y="334" type="curve" smooth="yes"/>
    </contour>
    <contour>
      <point x="285" y="22" type="line" smooth="yes"/>
      <point x="282" y="7"/>
      <point x="267" y="-3"/>
      <point x="252" y="0" type="curve" smooth="yes"/>
      <point x="237" y="3"/>
      <point x="227" y="18"/>
      <point x="230" y="33" type="curve" smooth="yes"/>
      <point x="357" y="700" type="line" smooth="yes"/>
      <point x="360" y="715"/>
      <point x="375" y="725"/>
      <point x="390" y="722" type="curve" smooth="yes"/>
      <point x="405" y="719"/>
      <point x="415" y="704"/>
      <point x="412" y="689" type="curve" smooth="yes"/>
    </contour>
  </outline>
</glyph>
<glyph name="uni02EB" format="2">
  <advance width="319"/>
  <unicode hex="02EB"/>
  <outline>
    <contour>
      <point x="277" y="258" type="line" name="n00"/>
      <point x="269" y="218" type="line" name="n01"/>
      <point x="89" y="218" type="line"/>
      <point x="66" y="99" type="line" name="n03"/>
      <point x="26" y="99" type="line"/>
      <point x="80" y="378" type="line" name="n05"/>
      <point x="120" y="378" type="line"/>
      <point x="97" y="258" type="line"/>
    </contour>
  </outline>
</glyph>
<glyph name="uni02ED" format="2">
  <advance width="405"/>
  <unicode hex="02ED"/>
  <outline>
    <contour>
      <point x="399" y="469" type="line" name="n00"/>
      <point x="386" y="403" type="line" name="n01"/>
      <point x="49" y="403" type="line"/>
      <point x="63" y="469" type="line"/>
    </contour>
    <contour>
      <point x="425" y="588" type="line" name="n04"/>
      <point x="412" y="522" type="line" name="n05"/>
      <point x="75" y="522" type="line"/>
      <point x="89" y="588" type="line"/>
    </contour>
  </outline>
</glyph>
<glyph name="uni02EE" format="2">
  <advance width="457"/>
  <unicode hex="02EE"/>
  <outline>
    <contour>
      <point x="489" y="631" type="curve" smooth="yes" name="n00"/>
      <point x="489" y="548"/>
      <point x="396" y="463"/>
      <point x="353" y="430" type="curve" name="n03"/>
      <point x="295" y="430" type="line"/>
      <point x="340" y="473"/>
      <point x="407" y="536"/>
      <point x="409" y="604" type="curve" name="n07"/>
      <point x="348" y="604" type="line"/>
      <point x="344" y="608"/>
      <point x="338" y="616" name="hr01"/>
      <point x="338" y="634" type="curve" smooth="yes" name="n11"/>
      <point x="338" y="667"/>
      <point x="369" y="706"/>
      <point x="414" y="706" type="curve" smooth="yes" name="n14"/>
      <point x="457" y="706"/>
      <point x="489" y="683"/>
    </contour>
    <contour>
      <point x="287" y="633" type="curve" smooth="yes" name="n17"/>
      <point x="287" y="548"/>
      <point x="196" y="463"/>
      <point x="153" y="430" type="curve"/>
      <point x="93" y="430" type="line"/>
      <point x="138" y="473"/>
      <point x="207" y="536"/>
      <point x="207" y="604" type="curve" name="n24"/>
      <point x="145" y="604" type="line"/>
      <point x="142" y="609"/>
      <point x="136" y="619"/>
      <point x="136" y="632" type="curve" smooth="yes" name="n28"/>
      <point x="136" y="665"/>
      <point x="169" y="706"/>
      <point x="214" y="706" type="curve" smooth="yes"/>
      <point x="246" y="706"/>
      <point x="287" y="691"/>
    </contour>
  </outline>
</glyph>
<glyph name="tildecomb" format="2">
  <unicode hex="0303"/>
  <anchor x="-170" y="560" name="_top"/>
  <anchor x="-90" y="720" name="top"/>
  <outline>
    <contour>
      <point x="25" y="691" type="line"/>
      <point x="-3" y="633"/>
      <point x="-48" y="585" name="hr01"/>
      <point x="-117.513" y="585" type="curve" smooth="yes" name="n03"/>
      <point x="-147" y="585"/>
      <point x="-165.907" y="593.637"/>
      <point x="-193.277" y="613.201" type="curve" smooth="yes"/>
      <point x="-202.787" y="620"/>
      <point x="-219" y="631" name="hr02"/>
      <point x="-250" y="631" type="curve" smooth="yes" name="n09"/>
      <point x="-267" y="631"/>
      <point x="-295" y="612"/>
      <point x="-306" y="585" type="curve" name="hr03"/>
      <point x="-359" y="585" type="line"/>
      <point x="-331" y="643"/>
      <point x="-287" y="691" name="hr04"/>
      <point x="-217.349" y="691" type="curve" smooth="yes" name="n16"/>
      <point x="-188" y="691"/>
      <point x="-168.914" y="682.477"/>
      <point x="-145.583" y="665.463" type="curve" smooth="yes"/>
      <point x="-131.959" y="655.528"/>
      <point x="-115" y="645" name="hr05"/>
      <point x="-93.9089" y="645" type="curve" smooth="yes" name="n22"/>
      <point x="-66" y="645"/>
      <point x="-39" y="664"/>
      <point x="-28" y="691" type="curve" name="hr06"/>
    </contour>
  </outline>
</glyph>
<glyph name="uni030A" format="2">
  <unicode hex="030A"/>
  <anchor x="-180" y="560" name="_top"/>
  <outline>
    <contour>
      <point x="-181.343" y="551" type="curve" smooth="yes" name="n00"/>
      <point x="-237.539" y="551"/>
      <point x="-279" y="591.333"/>
      <point x="-279" y="647.497" type="curve" smooth="yes" name="n03"/>
      <point x="-279" y="718.638"/>
      <point x="-212.474" y="785"/>
      <point x="-139.657" y="785" type="curve" smooth="yes" name="n06"/>
      <point x="-83.0379" y="785"/>
      <point x="-42" y="744.04"/>
      <point x="-42" y="687.528" type="curve" smooth="yes" name="n09"/>
      <point x="-42" y="615.768"/>
      <point x="-108.104" y="551"/>
    </contour>
    <contour>
      <point x="-94" y="682" type="curve" smooth="yes" name="n12"/>
      <point x="-94" y="711.934"/>
      <point x="-115.729" y="733"/>
      <point x="-146.604" y="733" type="curve" smooth="yes" name="n15"/>
      <point x="-188.596" y="733"/>
      <point x="-227" y="695.741"/>
      <point x="-227" y="655" type="curve" smooth="yes" name="n18"/>
      <point x="-227" y="625.056"/>
      <point x="-204.267" y="603"/>
      <point x="-173.403" y="603" type="curve" smooth="yes" name="n21"/>
      <point x="-132.451" y="603"/>
      <point x="-94" y="641.256"/>
    </contour>
  </outline>
</glyph>
<glyph name="uni030C" format="2">
  <unicode hex="030C"/>
  <anchor x="-180" y="560" name="_top"/>
  <outline>
    <contour>
      <point x="22" y="720" type="line" name="n00"/>
      <point x="-144" y="551" type="line" name="n01"/>
      <point x="-223" y="551" type="line"/>
      <point x="-321" y="720" type="line"/>
      <point x="-251" y="720" type="line"/>
      <point x="-168" y="628" type="line"/>
      <point x="-49" y="720" type="line"/>
    </contour>
  </outline>
</glyph>
<glyph name="uni030D" format="2">
  <unicode hex="030D"/>
  <anchor x="-180" y="560" name="_top"/>
  <outline>
    <contour>
      <point x="-127" y="722" type="line" name="n00"/>
      <point x="-161" y="551" type="line" name="n01"/>
      <point x="-207" y="551" type="line"/>
      <point x="-173" y="722" type="line"/>
    </contour>
  </outline>
</glyph>
<glyph name="uni030F" format="2">
  <unicode hex="030F"/>
  <anchor x="-160" y="560" name="_top"/>
  <outline>
    <contour>
      <point x="-13" y="551" type="line" name="n00"/>
      <point x="-71" y="551" type="line"/>
      <point x="-204" y="648" type="line" smooth="yes"/>
      <point x="-214" y="655"/>
      <point x="-220" y="666"/>
      <point x="-220" y="680.468" type="curve" smooth="yes"/>
      <point x="-220" y="710"/>
      <point x="-195" y="733" name="n07"/>
      <point x="-160.047" y="733" type="curve" smooth="yes"/>
      <point x="-137" y="733"/>
      <point x="-128.282" y="722.814"/>
      <point x="-117" y="706" type="curve" smooth="yes"/>
    </contour>
    <contour>
      <point x="-199" y="551" type="line"/>
      <point x="-256" y="551" type="line"/>
      <point x="-389" y="648" type="line" smooth="yes"/>
      <point x="-399" y="655"/>
      <point x="-405" y="665"/>
      <point x="-405" y="679" type="curve" smooth="yes"/>
      <point x="-405" y="710"/>
      <point x="-381" y="733"/>
      <point x="-345.445" y="733" type="curve" smooth="yes"/>
      <point x="-322" y="733"/>
      <point x="-314" y="723"/>
      <point x="-303" y="706" type="curve" smooth="yes"/>
    </contour>
  </outline>
</glyph>
